<svg xmlns="http://www.w3.org/2000/svg" xmlns:xlink="http://www.w3.org/1999/xlink" version="1.1" width="188.98582958157152" height="557.5517933266888" viewBox="7.9469798854227305 -1.0071567246083972 188.98582958157152 557.5517933266888">
  <defs>
    <linearGradient id="grad_1" y2="1" x2="0">
      <stop offset="0" stop-color="#F56258" stop-opacity="1"/>
      <stop offset="1" stop-color="#F56258" stop-opacity="0"/>
    </linearGradient>
    <linearGradient id="grad_2" y2="1" x2="0">
      <stop offset="0" stop-color="#EAD2BA" stop-opacity="1"/>
      <stop offset="1" stop-color="#EAD2BA" stop-opacity="0"/>
    </linearGradient>
    <linearGradient id="grad_3" y2="1" x2="0">
      <stop offset="0" stop-color="#FFD8CB" stop-opacity="1"/>
      <stop offset="1" stop-color="#FFD8CB" stop-opacity="0"/>
    </linearGradient>
    <linearGradient id="grad_4" y2="1" x2="0">
      <stop offset="0" stop-color="#FFD8CB" stop-opacity="1"/>
      <stop offset="1" stop-color="#FFD8CB" stop-opacity="0"/>
    </linearGradient>
    <radialGradient id="grad_5" cx="0.4916" cy="0.5384" r="0.6999200000000001">
      <stop offset="0" stop-color="#FFD8CB" stop-opacity="1"/>
      <stop offset="1" stop-color="#FFD8CB" stop-opacity="0"/>
    </radialGradient>
    <radialGradient id="grad_6" cx="0.44439999999999996" cy="0.43579999999999997" r="0.73346">
      <stop offset="0" stop-color="#FFD8CB" stop-opacity="1"/>
      <stop offset="1" stop-color="#FFD8CB" stop-opacity="0"/>
    </radialGradient>
    <radialGradient id="grad_7" cx="0.49420000000000003" cy="0.4827" r="0.6724899999999999">
      <stop offset="0" stop-color="#FFE5CB" stop-opacity="1"/>
      <stop offset="1" stop-color="#FFE5CB" stop-opacity="0"/>
    </radialGradient>
    <linearGradient id="grad_8" y2="1" x2="0">
      <stop offset="0" stop-color="#FFD6A2" stop-opacity="1"/>
      <stop offset="1" stop-color="#FFD6A2" stop-opacity="0"/>
    </linearGradient>
    <radialGradient id="grad_9" cx="0.57" cy="0.0969" r="1.1740300000000001">
      <stop offset="0" stop-color="#FFD6A2" stop-opacity="1"/>
      <stop offset="1" stop-color="#FFD6A2" stop-opacity="0"/>
    </radialGradient>
    <linearGradient id="grad_10" y2="1" x2="0">
      <stop offset="0" stop-color="#FFD6BD" stop-opacity="0"/>
      <stop offset="1" stop-color="#FFD6BD" stop-opacity="1"/>
    </linearGradient>
    <radialGradient id="grad_11" cx="0.7939" cy="0.146" r="1.1101999999999999">
      <stop offset="0" stop-color="#FFD6A2" stop-opacity="1"/>
      <stop offset="1" stop-color="#FFD6A2" stop-opacity="0"/>
    </radialGradient>
    <linearGradient id="grad_12" y2="1" x2="0">
      <stop offset="0" stop-color="#FFD6BD" stop-opacity="0"/>
      <stop offset="1" stop-color="#FFD6BD" stop-opacity="1"/>
    </linearGradient>
    <linearGradient id="grad_13" x2="1">
      <stop offset="0" stop-color="#FFD6BD" stop-opacity="0"/>
      <stop offset="1" stop-color="#FFD6BD" stop-opacity="1"/>
    </linearGradient>
    <linearGradient id="grad_14" x2="1">
      <stop offset="0" stop-color="#FFB57C" stop-opacity="1"/>
      <stop offset="1" stop-color="#FFB57C" stop-opacity="0"/>
    </linearGradient>
    <linearGradient id="grad_15" y2="1" x2="0">
      <stop offset="0" stop-color="#F9A674" stop-opacity="1"/>
      <stop offset="1" stop-color="#F9A674" stop-opacity="0"/>
    </linearGradient>
    <linearGradient id="grad_16" y2="1" x2="0">
      <stop offset="0" stop-color="#F6AE77" stop-opacity="1"/>
      <stop offset="1" stop-color="#F6AE77" stop-opacity="0"/>
    </linearGradient>
    <linearGradient id="grad_17" y2="1" x2="0">
      <stop offset="0" stop-color="#FFF6B8" stop-opacity="1"/>
      <stop offset="1" stop-color="#FFF6B8" stop-opacity="0"/>
    </linearGradient>
    <linearGradient id="grad_18" x2="1">
      <stop offset="0" stop-color="#FFD6BD" stop-opacity="1"/>
      <stop offset="1" stop-color="#FFD6BD" stop-opacity="0"/>
    </linearGradient>
    <linearGradient id="grad_19" y2="1" x2="0">
      <stop offset="0" stop-color="#EDC5B8" stop-opacity="1"/>
      <stop offset="1" stop-color="#EDC5B8" stop-opacity="0"/>
    </linearGradient>
    <linearGradient id="grad_20" y2="1" x2="0">
      <stop offset="0" stop-color="#F0D7BF" stop-opacity="1"/>
      <stop offset="1" stop-color="#CFBAA4" stop-opacity="1"/>
    </linearGradient>
    <linearGradient id="grad_21" y2="1" x2="0">
      <stop offset="0" stop-color="#EDC5B8" stop-opacity="1"/>
      <stop offset="1" stop-color="#EDC5B8" stop-opacity="0"/>
    </linearGradient>
  <linearGradient id="grad_1-.8670207262039185,0,0,0.9066736102104187,-88.5,-28.8" y2="226.4361" x2="24.4173" x1="24.4173" y1="163.4821" gradientUnits="userSpaceOnUse">
      <stop offset="0" stop-color="#F56258" stop-opacity="1"/>
      <stop offset="1" stop-color="#F56258" stop-opacity="0"/>
    </linearGradient><linearGradient id="grad_2-.8670207262039185,0,0,0.9066736102104187,-161.25,-29.95" y2="153.9066" x2="85.4551" x1="85.4551" y1="132.3071" gradientUnits="userSpaceOnUse">
      <stop offset="0" stop-color="#EAD2BA" stop-opacity="1"/>
      <stop offset="1" stop-color="#EAD2BA" stop-opacity="0"/>
    </linearGradient><linearGradient id="grad_3-.5839118957519531,0,0,0.4945492446422577,-12.25,23.45" y2="123.4901" x2="104.5158" x1="104.5158" y1="95.4069" gradientUnits="userSpaceOnUse">
      <stop offset="0" stop-color="#FFD8CB" stop-opacity="1"/>
      <stop offset="1" stop-color="#FFD8CB" stop-opacity="0"/>
    </linearGradient><linearGradient id="grad_4-0.5839118957519531,0,0,0.4945492446422577,192.7,22.3" y2="122.4409" x2="76.5568" x1="76.5568" y1="94.2541" gradientUnits="userSpaceOnUse">
      <stop offset="0" stop-color="#FFD8CB" stop-opacity="1"/>
      <stop offset="1" stop-color="#FFD8CB" stop-opacity="0"/>
    </linearGradient><radialGradient id="grad_5-.6863914132118225,0,0,0.7177832722663879,-77.9,-11.15" cx="59.5139" cy="102.6178" r="14.2299" gradientUnits="userSpaceOnUse">
      <stop offset="0" stop-color="#FFD8CB" stop-opacity="1"/>
      <stop offset="1" stop-color="#FFD8CB" stop-opacity="0"/>
    </radialGradient><radialGradient id="grad_6-.7534303069114685,0,0,0.78788822889328,-29,-21.85" cx="120.5547" cy="101.453" r="16.3682" gradientUnits="userSpaceOnUse">
      <stop offset="0" stop-color="#FFD8CB" stop-opacity="1"/>
      <stop offset="1" stop-color="#FFD8CB" stop-opacity="0"/>
    </radialGradient><radialGradient id="grad_7-.0364385843276978,0,0,0.9066736102104187,-123.85,-46.95" cx="94.082" cy="106.0766" r="46.9331" gradientUnits="userSpaceOnUse">
      <stop offset="0" stop-color="#FFE5CB" stop-opacity="1"/>
      <stop offset="1" stop-color="#FFE5CB" stop-opacity="0"/>
    </radialGradient><linearGradient id="grad_8-.8670207262039185,0,0,0.9066736102104187,-208.6,-15.75" y2="29.3589" x2="115.0115" x1="115.0115" y1="5.3731" gradientUnits="userSpaceOnUse">
      <stop offset="0" stop-color="#FFD6A2" stop-opacity="1"/>
      <stop offset="1" stop-color="#FFD6A2" stop-opacity="0"/>
    </linearGradient><radialGradient id="grad_9-.8670207262039185,0,0,0.9066736102104187,-191.75,-14.75" cx="106.3941" cy="9.8154" r="26.7889" gradientUnits="userSpaceOnUse">
      <stop offset="0" stop-color="#FFD6A2" stop-opacity="1"/>
      <stop offset="1" stop-color="#FFD6A2" stop-opacity="0"/>
    </radialGradient><linearGradient id="grad_10-.8670207262039185,0,0,0.9066736102104187,-101,-41" y2="70.3219" x2="53.3433" x1="53.3433" y1="44.5139" gradientUnits="userSpaceOnUse">
      <stop offset="0" stop-color="#FFD6BD" stop-opacity="0"/>
      <stop offset="1" stop-color="#FFD6BD" stop-opacity="1"/>
    </linearGradient><radialGradient id="grad_11-.8670207262039185,0,0,0.9066736102104187,-213.35,-13.9" cx="86.8989" cy="11.3388" r="16.63" gradientUnits="userSpaceOnUse">
      <stop offset="0" stop-color="#FFD6A2" stop-opacity="1"/>
      <stop offset="1" stop-color="#FFD6A2" stop-opacity="0"/>
    </radialGradient><linearGradient id="grad_12-.8670207262039185,0,0,0.9066736102104187,-44.15,-62.55" y2="81.2944" x2="95.7661" x1="95.7661" y1="42.1571" gradientUnits="userSpaceOnUse">
      <stop offset="0" stop-color="#FFD6BD" stop-opacity="0"/>
      <stop offset="1" stop-color="#FFD6BD" stop-opacity="1"/>
    </linearGradient><linearGradient id="grad_13-.8670207262039185,0,0,0.9066736102104187,-204.65,-17.2" x2="42.4947" x1="28.7195" y1="46.2625" y2="46.2625" gradientUnits="userSpaceOnUse">
      <stop offset="0" stop-color="#FFD6BD" stop-opacity="0"/>
      <stop offset="1" stop-color="#FFD6BD" stop-opacity="1"/>
    </linearGradient><linearGradient id="grad_15-.8670207262039185,0,0,0.9066736102104187,-216.9,-23.9" y2="21.907" x2="115.0989" x1="115.0989" y1="4.8916" gradientUnits="userSpaceOnUse">
      <stop offset="0" stop-color="#F9A674" stop-opacity="1"/>
      <stop offset="1" stop-color="#F9A674" stop-opacity="0"/>
    </linearGradient><linearGradient id="grad_16-.8670207262039185,0,0,0.9066736102104187,-212.25,-16.35" y2="17.22" x2="68.8809" x1="68.8809" y1="1.3387" gradientUnits="userSpaceOnUse">
      <stop offset="0" stop-color="#F6AE77" stop-opacity="1"/>
      <stop offset="1" stop-color="#F6AE77" stop-opacity="0"/>
    </linearGradient><linearGradient id="grad_17-.8670207262039185,0,0,0.9066736102104187,-178.8,-25.85" y2="14.815" x2="59.5034" x1="59.5034" y1="0.3609" gradientUnits="userSpaceOnUse">
      <stop offset="0" stop-color="#FFF6B8" stop-opacity="1"/>
      <stop offset="1" stop-color="#FFF6B8" stop-opacity="0"/>
    </linearGradient><linearGradient id="grad_18-0.5082184672355652,0,0,0.9066736102104187,111,23.6" x2="28.4144" x1="48.0845" y1="69.6418" y2="69.6418" gradientUnits="userSpaceOnUse">
      <stop offset="0" stop-color="#FFD6BD" stop-opacity="1"/>
      <stop offset="1" stop-color="#FFD6BD" stop-opacity="0"/>
    </linearGradient><linearGradient id="grad_19-.8668342232704163,0.018806608393788338,-0.017984110862016678,0.9064785242080688,-211.55,-20.45" y2="84.303" x2="94.0287" x1="94.149" y1="78.7577" gradientUnits="userSpaceOnUse">
      <stop offset="0" stop-color="#EDC5B8" stop-opacity="1"/>
      <stop offset="1" stop-color="#EDC5B8" stop-opacity="0"/>
    </linearGradient><linearGradient id="grad_20-.8670207262039185,0,0,0.9066736102104187,-98.6,-15.95" y2="108.7199" x2="150.0132" x1="150.0132" y1="87.6768" gradientUnits="userSpaceOnUse">
      <stop offset="0" stop-color="#F0D7BF" stop-opacity="1"/>
      <stop offset="1" stop-color="#CFBAA4" stop-opacity="1"/>
    </linearGradient><linearGradient id="grad_21-0.8014374375343323,-0.13017036020755768,-0.13543838262557983,0.8955183029174805,377,34.7" y2="85.4037" x2="77.9524" x1="78.8407" y1="79.9349" gradientUnits="userSpaceOnUse">
      <stop offset="0" stop-color="#EDC5B8" stop-opacity="1"/>
      <stop offset="1" stop-color="#EDC5B8" stop-opacity="0"/>
    </linearGradient></defs>
  <!-- Exported by Scratch - http://scratch.mit.edu/ -->
  <g id="ID0.26183219719678164">
    <path id="ID0.7732524634338915" fill="#FFE9CC" stroke="none" stroke-linecap="round" d="M 31.4333 424.7827 C 29.6461 424.867 27.1821 427.0788 25.8967 425.9444 C 24.6692 424.7274 26.3505 422.0199 26.4047 420.0789 C 26.4882 417.3254 26.5208 414.3871 27.0168 411.4932 C 27.3676 405.8651 24.7727 398.5947 29.0074 394.5099 C 32.3849 391.119 39.2029 392.1862 43.4613 395.0628 C 46.8126 397.3426 45.3177 402.9777 46.1784 406.9377 C 46.573 408.7481 47.1635 410.6444 47.5102 412.5943 C 48.0407 417.4826 50.0639 422.8543 48.8088 427.439 C 48.3437 429.1325 45.5913 425.1687 43.811 424.9661 C 39.6708 424.2639 35.5503 424.5943 31.4333 424.7827 Z " stroke-width="0.5048443869644316"/>
    <path id="ID0.7597221219912171" fill="#FFE9CC" stroke="none" stroke-linecap="round" d="M 28.1171 461.9492 C 24.7241 461.8443 21.1252 460.2189 18.2283 458.1272 C 16.7085 456.8627 15.8646 454.5957 15.7727 452.5776 C 15.6217 449.176 15.957 445.2095 17.7635 442.0352 C 18.2587 441.1013 19.8633 444.8087 21.0074 443.2348 C 25.5836 436.9401 26.3504 427.9417 31.9693 422.5745 C 34.8169 420.0634 40.1765 420.3862 43.4052 422.3939 C 47.706 425.071 51.2537 430.023 51.5543 434.9882 C 52.1998 442.4989 48.5866 449.7595 46.011 456.8226 C 45.3767 458.5605 44.4557 458.4465 43.165 458.8466 C 38.2753 460.3482 33.2602 462.1 28.1171 461.9492 Z " stroke-width="0.5048443869644316"/>
    <path id="ID0.4751867684535682" fill="#FFE9CC" stroke="none" stroke-linecap="round" d="M 17.3601 491.5638 C 16.5327 491.9029 15.2875 489.5282 15.108 488.3084 C 14.6027 483.1897 15.2515 477.9905 15.3631 473.0893 C 15.5212 466.0469 14.5595 458.8076 16.1008 451.9221 C 16.4799 450.2109 19.5051 451.1881 20.4102 452.2935 C 21.6182 453.8457 21.353 455.9159 21.3796 457.6419 C 21.269 462.9164 20.5027 468.1352 20.1579 473.1935 C 19.8621 477.5828 19.6789 482.8758 19.1723 486.2016 C 18.6658 489.5269 18.4539 491.0993 17.3601 491.5638 Z " stroke-width="0.504844410836514"/>
    <path id="ID0.4751867684535682" fill="#FFE9CC" stroke="none" stroke-linecap="round" d="M 24.5388 493.7548 C 23.4033 492.8046 22.7674 490.8678 22.626 489.415 C 22.1786 484.3484 22.8067 479.2634 22.9264 474.1967 C 23.0255 470.3713 23.1444 467.1746 23.0603 463.6708 C 23.0097 461.5097 20.899 458.3775 22.6022 456.6653 C 24.4102 455.0485 28.5796 455.0218 30.1966 456.9035 C 31.9218 458.9181 29.6519 462.4702 29.2368 465.086 C 28.7462 468.1604 28.0812 471.2214 27.721 474.3152 C 27.0284 480.2687 27.1114 486.5747 26.1812 492.6844 C 25.8766 494.1186 25.0621 494.1571 24.5388 493.7548 Z " stroke-width="0.5048443592540924"/>
    <path id="ID0.4751867684535682" fill="#FFE9CC" stroke="none" stroke-linecap="round" d="M 36.226 489.2916 C 35.7716 490.335 34.0158 492.5231 33.7155 491.029 C 32.4884 484.999 32.8599 478.7451 32.4595 472.6114 C 32.1825 468.3423 30.6156 464.3228 31.4608 460.297 C 31.8692 458.3485 34.0235 457.1137 35.8998 456.7938 C 36.8354 456.4885 37.7985 457.6755 37.8983 458.865 C 38.2843 463.3704 37.459 467.8673 37.2521 472.4292 C 37.0921 475.9555 37.298 479.5099 37.0233 483.022 C 36.8607 485.3213 36.9666 487.4437 36.226 489.2916 Z " stroke-width="0.504844343223388"/>
    <path id="ID0.4751867684535682" fill="#FFE9CC" stroke="none" stroke-linecap="round" d="M 45.404 477.9685 C 44.9182 478.9976 43.2604 481.0596 42.842 479.629 C 41.1683 473.9057 41.6879 467.8181 40.7625 461.9749 C 40.4151 460.3939 38.5717 458.9899 39.0364 457.4445 C 39.5818 455.6198 41.5385 454.5586 43.3022 454.1301 C 44.5807 453.631 46.4729 453.7523 47.2715 454.9326 C 47.8888 455.83 46.2983 456.7247 46.2353 458.0454 C 46.0173 462.5964 46.5665 467.3045 46.391 471.7259 C 46.3067 473.8333 46.2003 476.1439 45.404 477.9685 Z " stroke-width="0.5048443927709332"/>
    <g id="ID0.12542047072201967">
      <path id="ID0.2989720902405679" fill="#FFE9CC" stroke="#FFE9CC" stroke-width="1.009688706189956" stroke-linecap="round" d="M 9.4944 465.7035 C 8.8241 463.0882 10.2205 459.9584 10.6021 457.093 C 10.9245 454.6911 11.1932 452.4011 11.4646 449.9985 C 11.7017 448.8402 11.6149 447.5322 12.1512 446.4583 C 14.12 442.523 16.7284 438.5189 19.2473 434.7038 C 21.7007 430.9913 23.3312 425.9802 27.3122 423.7681 C 29.8716 422.3734 35.1078 422.5733 36.0125 425.4582 C 37.6188 430.6045 34.4844 436.255 32.5005 441.2677 C 31.7173 443.2262 30.0265 444.1937 28.5431 445.3783 C 26.448 447.0486 23.9926 448.1644 22.0573 450.0487 C 20.5677 451.2878 19.4631 453.0158 18.373 454.6532 C 16.3157 457.7447 14.9817 461.2402 12.7583 464.1178 C 11.936 465.0303 9.7672 466.7534 9.4944 465.7035 Z "/>
      <path id="ID0.8340994985774159" fill="none" stroke="#E4D0B8" stroke-width="0.9999999738259092" stroke-linecap="round" d="M 14.8113 460.9336 C 14.8113 460.9336 15.7549 459.8637 16.4747 458.7346 C 17.826 456.6348 18.9277 454.3519 20.4696 452.3863 C 21.6618 450.8722 23.0909 449.6379 24.6333 448.3519 C 27.0891 446.3018 30.1231 444.8528 32.1837 442.4012 C 33.7275 440.5763 35.2307 435.6769 35.2307 435.6769 "/>
    </g>
  </g>
  <path id="ID0.8819110705517232" fill="#FFE7CA" stroke="none" d="M 44.5189 297.3945 C 50.1567 306.5075 48.7349 326.1793 49.0258 341.0131 C 49.4271 361.453 52.3013 385.6118 46.9849 403.3998 C 43.8931 412.9194 34.2875 409.9756 29.978 402.8784 C 25.3385 395.2391 26.8317 379.1333 25.4711 367.4275 C 24.5154 359.2182 23.7126 350.9498 23.5153 342.4033 C 23.2177 329.0953 20.0425 312.2631 24.5358 302.4341 C 29.063 292.4244 39.2621 288.8933 44.5189 297.3945 Z " stroke-width="2.7360584634074683"/>
  <path id="ID0.5472192210145295" fill="#E5E5E5" stroke="#CCCCCC" stroke-width="2.3055830499696275" d="M 74.4513 334.4825 C 85.1383 334.8916 98.3322 336.4186 103.0115 349.793 C 108.3845 365.1605 99.1192 384.1822 99.3848 401.4831 C 100.0839 447.0178 105.7959 493.1202 104.8249 539.2781 C 105.1005 550.4711 101.5926 550.2963 97.5715 551.0659 C 86.4266 553.1186 71.54 558.1277 64.0246 545.6462 C 51.915 525.5325 52.6685 495.4913 48.6111 470.3806 C 44.5012 445.1588 38.9786 419.5428 39.5444 394.7763 C 39.9234 378.608 43.2944 361.4331 50.4245 348.9801 C 56.015 339.4604 65.8225 334.1627 74.4513 334.4825 Z "/>
  <path id="ID0.5472192210145295" fill="#E5E5E5" stroke="#CCCCCC" stroke-width="2.3055830499696275" d="M 138.4513 347.4825 C 148.4265 348.4323 160.0746 352.6935 167.4649 363.335 C 173.8687 373.7367 176.1907 390.0201 175.6249 404.1857 C 174.9603 419.5207 167.2572 431.2014 164.7448 445.8494 C 158.1769 479.6207 159.2912 517.7725 148.4247 549.2296 C 145.1616 558.6693 133.9769 554.1357 126.6645 553.7685 C 118.9587 553.3905 106.2073 558.4051 103.9977 547.4004 C 94.2845 504.5932 95.5947 457.5613 95.3843 412.5862 C 95.2991 393.9832 94.4114 371.2436 103.091 357.9153 C 111.4614 345.0626 126.5449 346.3416 138.4513 347.4825 Z "/>
  <path id="ID0.859178027138114" fill="#FFE7CA" stroke="none" d="M 33.9181 195.8652 C 38.2835 195.8652 42.2402 202.0373 45.1046 212.008 C 47.9691 221.9796 50.0107 237.9445 49.7412 250.9456 C 49.3036 271.8878 49.9293 294.2346 42.7791 315.3473 C 40.9978 320.5577 29.8385 319.6097 27.8601 316.6714 C 21.2289 308.6879 23.9848 299.0011 22.7316 289.8832 C 20.945 276.9298 18.095 266.1414 18.095 250.9456 C 18.095 235.7497 19.8672 221.9796 22.7316 212.008 C 25.5961 202.0373 29.5527 195.8652 33.9181 195.8652 Z " stroke-width="1.4819150222492932"/>
  <path id="ID0.2221537735313177" fill="#FFE7CA" stroke="none" stroke-linecap="round" d="M 43.0164 175.7048 C 48.6373 175.7048 53.7311 179.6162 57.4202 185.9358 C 61.1085 192.2544 63.3914 200.9811 63.3914 210.6118 C 63.3914 220.2425 61.1085 228.9692 57.4202 235.2878 C 53.7311 241.6073 48.6373 245.5187 43.0164 245.5187 C 37.3955 245.5187 32.3018 241.6073 28.6126 235.2878 C 24.9243 228.9692 22.6414 220.2425 22.6414 210.6118 C 22.6414 200.9811 24.9243 192.2544 28.6126 185.9358 C 32.3018 179.6162 37.3955 175.7048 43.0164 175.7048 Z " stroke-width="0.8870687614607913"/>
  <path id="ID0.3618579553440213" fill="#F62323" stroke="none" stroke-linecap="round" d="M 51.0265 203.8451 C 57.895 208.8282 68.353 207.6042 74.3173 213.6771 C 80.2815 219.75 83.9733 228.1367 83.9733 237.392 C 83.9733 246.6473 80.2815 255.0341 74.3173 261.107 C 68.353 267.1799 60.1163 270.9389 51.0265 270.9389 C 41.9367 270.9389 33.7 267.1799 27.7357 261.107 C 21.7715 255.0341 16.1202 245.7271 18.0797 237.392 C 22.1218 220.2087 32.1272 203.7173 44.5238 191.1517 C 47.672 187.8895 47.3183 201.1486 51.0265 203.8451 Z " stroke-width="0.8870687614607913"/>
  <path id="ID0.9606457748450339" fill="#F62323" stroke="none" stroke-linecap="round" d="M 59.5649 170.0203 C 77.1884 167.7754 94.812 164.2566 112.1005 163.795 C 119.2158 163.6054 126.3275 166.5839 133.3146 168.009 C 141.4735 169.5817 149.7793 169.6736 157.5845 172.7978 C 165.1804 175.8376 178.2356 173.6865 179.5625 186.3019 C 181.705 206.6041 170.0202 224.0101 164.8125 243.3833 C 160.525 259.3201 153.6989 273.1767 150.944 290.5041 C 149.1047 302.4855 152.258 315.1162 153.7647 327.0898 C 154.1209 334.9242 161.4206 347.4514 156.5267 349.7883 C 137.0662 359.1052 115.9391 353.8817 95.7639 354.2897 C 81.9531 354.5655 65.8456 361.0283 52.2193 351.608 C 46.8458 347.4629 50.7537 331.2809 49.1047 320.9603 C 45.9785 301.2385 43.5315 281.101 39.9374 261.5803 C 37.702 249.4726 32.6894 238.5926 32.5919 226.1439 C 32.4684 210.1535 35.5019 193.6095 40.4076 179.5019 C 41.8955 174.0122 46.8211 173.4337 50.3388 171.7442 C 53.545 170.208 55.4161 170.5777 59.5649 170.0203 Z " stroke-width="1.589086093844619"/>
  <path id="ID0.3214881760068238" fill="url(#grad_1-.8670207262039185,0,0,0.9066736102104187,-88.5,-28.8)" stroke="none" stroke-linecap="round" d="M 58.5034 169.7162 C 63.5746 168.4242 68.833 167.7197 73.7629 166.7242 C 78.8385 165.6996 83.7718 163.6007 88.9791 163.5055 C 100.4464 163.2969 111.9812 164.5173 123.4866 165.7268 C 126.6061 166.0913 129.5965 167.658 132.7637 168.2202 C 135.5633 168.7161 138.4652 168.4659 141.2605 168.9908 C 145.7655 169.8195 150.3668 170.4488 154.7427 171.7562 C 158.2229 172.798 163.3383 173.0682 165.0169 175.4736 C 165.9775 176.8544 161.3234 177.7294 159.7714 179.2363 C 155.5707 183.4015 150.7128 187.1425 147.8065 192.4284 C 145.5046 196.6181 145.6797 201.9004 145.0754 206.4818 C 144.2916 212.9391 153.1265 224.6352 143.6448 225.5219 C 105.7187 229.0679 67.6158 221.3685 29.5015 218.2686 C 20.2521 217.5115 26.3707 217.196 26.7704 216.0019 C 28.1689 212.0442 32.1876 209.5119 34.01 205.5751 C 34.9698 203.6131 34.3421 201.1016 34.9204 198.7751 C 36.5504 192.1808 38.7032 185.5177 40.8161 179.2816 C 41.4048 177.5417 41.5072 175.1336 43.0704 174.2949 C 47.9587 171.6764 53.342 170.9484 58.5034 169.7162 Z " stroke-width="0.8870687614607913"/>
  <path id="ID0.8794990414753556" fill="#DB1F1F" stroke="none" stroke-linecap="round" d="M 87.0084 235.072 C 107.464 235.2715 128.55 235.5516 147.6998 242.3254 C 152.4841 244.0181 152.0904 252.6932 149.4339 255.9255 C 141.8813 263.3693 131.2949 268.1465 121.6892 269.5256 C 109.0247 271.3535 95.7168 265.0865 83.5403 264.9922 C 68.4585 264.8744 52.931 273.0335 38.3495 268.8538 C 29.6238 266.3341 19.8819 254.8493 19.3808 245.9521 C 19.8819 240.114 31.7861 240.5166 38.3495 239.3705 C 54.3772 236.5753 70.8861 234.2968 87.0084 235.072 Z " stroke-width="0.8870687614607913"/>
  <path id="ID0.12162020616233349" fill="#FFE7CA" stroke="none" d="M 138.9716 374.0499 C 144.4938 358.9928 152.2061 343.5483 158.4915 328.2076 C 160.7765 322.611 160.3996 312.8375 164.391 310.5726 C 173.5065 306.1225 180.4818 312.4305 188.415 312.8762 C 190.4049 312.9948 196.0571 304.9161 192.9463 312.8793 C 180.5044 344.7325 168.3172 378.0559 151.4894 408.0215 C 147.2191 415.2812 145.4947 403.7354 142.5925 401.726 C 139.3407 399.4675 133.6807 400.0674 133.0842 394.458 C 132.471 388.4866 136.4992 380.8059 138.9716 374.0499 Z " stroke-width="2.026507544404123"/>
  <path id="ID0.6019467301666737" fill="#E72121" stroke="none" stroke-linecap="round" d="M 162.6748 248.7387 C 161.8321 256.3983 158.4429 263.571 156.3889 271.1789 C 154.328 278.8112 151.1703 286.2197 150.103 294.0724 C 149.1276 301.2614 151.257 309.1132 150.3198 316.5125 C 149.7363 321.2173 149.1536 329.4662 144.7275 328.8886 C 138.4251 329.0128 129.0145 323.1122 128.861 315.6059 C 128.6833 305.2934 140.6967 298.8596 144.9009 289.539 C 149.3288 279.7188 152.0781 269.2585 155.0884 258.9388 C 156.7817 253.1315 156.3473 245.0367 158.7732 241.4853 C 159.9012 239.807 162.6904 245.9171 162.6748 248.7387 Z " stroke-width="0.8870687614607913"/>
  <path id="ID0.47017325833439827" fill="#FFE7CA" stroke="none" stroke-linecap="round" d="M 166.9339 176.975 C 176.0324 176.3104 185.4968 183.4776 190.3434 191.4817 C 196.292 201.3047 195.3834 214.3218 195.5455 225.9353 C 195.8126 245.6401 193.2297 264.0619 192.2942 283.1011 C 191.383 295.168 197.1131 309.8362 190.04 319.3681 C 184.9566 326.0629 170.806 324.2469 165.5466 318.0081 C 159.2234 310.5162 163.8004 298.3858 163.2924 288.0878 C 162.7704 277.5296 165.1582 267.2316 162.382 256.3542 C 159.6448 245.68 150.3902 237.8944 147.8594 226.842 C 145.5063 216.5612 144.8413 205.1444 148.7264 195.1084 C 151.8685 186.9928 158.4639 177.5942 166.9339 176.975 Z " stroke-width="0.8870687614607913"/>
  <path id="ID0.9539567651227117" fill="#E5E5E5" stroke="none" stroke-linecap="round" d="M 105.7216 354.1845 C 112.3222 354.2135 120.8458 355.0286 125.2151 360.3046 C 128.5181 364.6194 125.2695 371.512 123.8551 376.8514 C 122.4425 382.1844 120.6355 388.2083 116.2816 391.593 C 109.2404 397.0584 101.0948 402.5247 92.5748 402.6916 C 86.7748 402.5247 82.9614 395.7337 79.7481 391.593 C 76.368 387.2319 73.1058 382.2905 72.1747 376.8514 C 71.2027 371.1529 69.3477 363.1207 73.988 360.0779 C 82.9251 353.9461 94.9739 354.1383 105.7216 354.1845 Z " stroke-width="0.9066736102104187"/>
  <path id="ID0.8933487012982368" fill="none" stroke="#CCCCCC" stroke-width="1.8133472204208374" stroke-linecap="round" d="M 113.1918 392.4581 C 113.1918 392.4581 105.4406 397.4321 101.1784 399.2582 C 97.7693 400.8503 94.1625 402.9891 90.2983 402.6582 C 85.8928 402.2819 81.8018 399.9799 78.0582 397.4448 C 75.5839 395.6278 72.1648 389.9648 72.1648 389.9648 "/>
  <g id="ID0.4710060707293451">
    <path id="ID0.7732524634338915" fill="#FFE9CC" stroke="none" stroke-linecap="round" d="M 133.6707 409.8468 C 130.708 409.5127 125.9785 413.7215 124.7767 412.1391 C 123.5328 410.1475 127.5341 405.6974 128.7794 402.6988 C 130.1897 399.3103 130.9669 395.5914 132.8681 392.444 C 135.4533 388.165 137.3376 382.5437 141.8711 381.2508 C 146.1924 379.7108 152.0877 381.7938 154.5436 385.5102 C 156.7784 388.8933 153.7806 393.6041 153.3343 397.6319 C 153.1314 399.4736 153.4108 401.5841 152.7938 403.4179 C 151.0018 408.7155 148.9362 414.9778 146.1409 419.0902 C 145.2115 420.2516 146.6911 414.9366 145.3444 413.9655 C 142.0024 411.5543 137.7638 410.3132 133.6707 409.8468 Z " stroke-width="0.5048443711549733"/>
    <path id="ID0.7597221219912171" fill="#FFE9CC" stroke="none" stroke-linecap="round" d="M 118.7248 444.017 C 115.5422 442.836 112.649 440.1484 110.5698 437.2425 C 109.5323 435.5596 109.455 433.1418 110.011 431.1997 C 110.9521 427.9274 112.5341 424.2746 115.2581 421.8415 C 116.0251 421.1142 116.3643 425.1396 117.9505 424.0125 C 124.2942 419.5045 127.8889 411.2198 134.9255 407.9234 C 138.4249 406.4508 143.2158 408.6206 145.8225 411.397 C 147.9065 413.6145 147.3523 417.4838 146.6574 420.4258 C 144.3586 429.0664 141.0154 437.5232 137.0037 445.5173 C 136.0009 447.5162 135.2624 445.9544 133.9767 445.8722 C 128.8723 445.5422 123.5516 445.7991 118.7248 444.017 Z " stroke-width="0.5048443711549733"/>
    <path id="ID0.4751867684535682" fill="#FFE9CC" stroke="none" stroke-linecap="round" d="M 99.0741 468.6569 C 98.1817 468.7145 97.7584 466.0669 97.977 464.8534 C 99.1295 459.8406 101.4015 455.1194 103.0693 450.5093 C 105.4637 443.8846 106.8595 436.7163 110.515 430.6811 C 111.4197 429.18 113.9756 431.0704 114.4813 432.4066 C 115.1315 434.2629 114.2204 436.1406 113.6955 437.7851 C 111.9096 442.7493 109.5199 447.4517 107.581 452.1363 C 105.9016 456.2024 104.0409 461.161 102.5008 464.1519 C 100.9609 467.1424 100.2588 468.5652 99.0741 468.6569 Z " stroke-width="0.5048443807423614"/>
    <path id="ID0.4751867684535682" fill="#FFE9CC" stroke="none" stroke-linecap="round" d="M 105.2251 472.9627 C 104.4517 471.7002 104.4662 469.6618 104.7953 468.2396 C 105.986 463.2946 108.202 458.6751 109.9303 453.9107 C 111.2435 450.3164 112.375 447.3242 113.412 443.9764 C 114.0529 441.9119 113.0505 438.2703 115.2106 437.1902 C 117.4396 436.234 121.4001 437.5375 122.333 439.8364 C 123.3262 442.2959 120.0426 444.9393 118.8154 447.2863 C 117.3705 450.0441 115.7646 452.7335 114.4371 455.5512 C 111.8832 460.9734 109.952 466.977 107.1231 472.4716 C 106.3772 473.734 105.5929 473.5108 105.2251 472.9627 Z " stroke-width="0.5048443352118589"/>
    <path id="ID0.4751867684535682" fill="#FFE9CC" stroke="none" stroke-linecap="round" d="M 117.7064 472.49 C 116.9432 473.3341 114.5816 474.8485 114.7731 473.3366 C 115.5319 467.23 117.8773 461.4206 119.4526 455.4791 C 120.5507 451.3444 120.3466 447.0351 122.4308 443.4886 C 123.4389 441.772 125.8744 441.2882 127.7548 441.5829 C 128.739 441.5917 129.2736 443.0238 128.989 444.1831 C 127.9189 448.5766 125.7034 452.5759 124.0533 456.8339 C 122.7778 460.1254 121.8401 463.56 120.4604 466.8014 C 119.5734 468.929 118.9974 470.9744 117.7064 472.49 Z " stroke-width="0.5048443215907727"/>
    <path id="ID0.4751867684535682" fill="#FFE9CC" stroke="none" stroke-linecap="round" d="M 132.9578 465.855 C 132.2924 466.7782 130.2864 468.5033 130.1359 467.0204 C 129.534 461.0878 131.155 455.1971 131.3107 449.2831 C 131.2575 447.6652 129.701 445.9486 130.4397 444.5139 C 131.3087 442.8192 133.4261 442.1327 135.2384 442.033 C 136.5865 441.7755 138.4248 442.2397 138.9948 443.5459 C 139.4381 444.5408 137.7111 445.1305 137.4083 446.4176 C 136.3641 450.8525 136.0454 455.5818 135.0666 459.897 C 134.5994 461.9538 134.0734 464.2062 132.9578 465.855 Z " stroke-width="0.5048443672848248"/>
    <path id="ID0.2989720902405679" fill="#FFE9CC" stroke="#FFE9CC" stroke-width="1.0096886774488067" stroke-linecap="round" d="M 94.361 436.6958 C 95.0399 434.0826 97.7763 432.0193 99.4967 429.6964 C 100.9411 427.7503 102.2842 425.8763 103.6843 423.9049 C 104.4523 423.0061 105.0092 421.8194 105.9983 421.139 C 109.6253 418.6478 113.8455 416.4057 117.8959 414.2858 C 121.8393 412.2239 125.6909 408.6275 130.2452 408.6178 C 133.16 408.6356 137.6456 411.3443 137.0415 414.3067 C 135.9571 419.5876 130.4799 423.016 126.3183 426.443 C 124.6852 427.7779 122.7374 427.8065 120.866 428.1254 C 118.2243 428.5734 115.5355 428.3618 112.9302 429.0744 C 111.0269 429.438 109.2242 430.4158 107.4779 431.3213 C 104.1816 433.0313 101.3228 435.4449 97.9847 436.8874 C 96.8235 437.288 94.0917 437.7466 94.361 436.6958 Z "/>
  </g>
  <path id="ID0.9684996223077178" fill="#FFB57C" stroke="none" stroke-linecap="round" d="M 121.4674 105.2611 C 129.6009 107.3419 139.7061 107.4961 145.9842 111.1073 C 152.2623 114.7177 156.1483 119.7044 156.1483 125.2079 C 156.1483 130.7114 149.7436 134.9402 145.9842 139.3085 C 141.1332 144.9408 136.564 152.2259 129.7041 154.6748 C 126.9687 155.6477 129.3903 147.1866 125.369 146.5148 C 109.2849 143.8274 89.32 155.334 76.3823 144.7014 C 60.554 132.1948 41.7648 96.897 52.1058 87.581 C 64.2657 76.641 98.1662 99.2979 121.4674 105.2611 Z " stroke-width="0.8870687614607913"/>
  <path id="ID0.517002412583679" fill="#FFE5CB" stroke="none" d="M 87.3253 142.1378 C 99.6734 134.7212 114.457 129.4471 128.7256 130.5777 C 133.4396 130.9513 126.4089 140.1023 125.691 145.0845 C 124.1694 155.0615 126.9369 166.6633 122.0062 175.4581 C 118.1739 182.2907 109.6745 184.8512 102.715 187.2448 C 98.1926 188.6964 92.472 189.2277 88.8426 186.5648 C 85.1049 183.8194 83.8815 178.0847 83.4237 173.418 C 82.8324 167.5029 85.1136 161.789 85.8081 155.9646 C 86.3603 151.3333 83.3605 144.3709 87.3253 142.1378 Z " stroke-width="0.8870687614607913"/>
  <path id="ID0.6652376689016819" fill="url(#grad_2-.8670207262039185,0,0,0.9066736102104187,-161.25,-29.95)" stroke="none" stroke-linecap="round" d="M 104.7086 140.5046 C 113.195 138.4338 124.1914 131.748 130.069 132.3446 C 132.8452 132.6256 125.5839 140.1238 121.8323 142.0913 C 112.4589 147.2575 101.9298 149.7962 91.7033 153.1981 C 89.1447 154.0503 89.1317 154.0431 88.0185 153.6514 C 87.2503 153.3812 86.4613 152.645 86.2844 151.8381 C 85.7989 149.556 84.8113 146.5884 86.0677 144.8113 C 87.6439 142.5918 90.7322 142.192 93.3532 141.5029 C 97.032 140.5391 101.0203 141.4186 104.7086 140.5046 Z " stroke-width="0.8870687614607913"/>
  <path id="ID0.2417883020825684" fill="none" stroke="#FFB57C" stroke-width="0.5945107849084361" stroke-linecap="round" d="M 169.3929 51.1013 C 169.3929 51.1013 172.1747 51.7492 173.0987 52.7664 C 174.8085 54.6466 175.896 57.0878 176.5015 59.5917 C 177.8456 63.661 178.8874 72.2857 178.8874 72.2857 "/>
  <path id="ID0.9648951692506671" fill="#FFB57C" stroke="none" stroke-linecap="round" d="M 159.9602 76.8175 C 163.9667 76.8175 167.5978 78.7478 170.2266 81.8668 C 172.8554 84.9848 173.7172 89.8002 174.4828 94.0443 C 175.6108 100.2641 178.3818 107.7242 176.2168 113.9911 C 173.2247 122.6054 163.3537 127.0944 161.4775 135.7513 C 159.766 143.6919 171.8141 157.8324 167.1131 160.2315 C 160.5428 163.0458 142.2053 156.4869 138.9349 146.178 C 135.3437 134.822 149.829 124.8159 151.0732 113.0845 C 152.1162 106.4775 145.9691 100.7637 145.4376 94.0443 C 145.1029 89.7476 147.065 84.9848 149.6938 81.8668 C 152.3226 78.7478 155.9537 76.8175 159.9602 76.8175 Z " stroke-width="0.8870687614607913"/>
  <path id="ID0.9570360602810979" fill="#E19F6D" stroke="none" stroke-linecap="round" d="M 102.6127 0.6 C 118.6989 0.6 133.2757 5.527 143.831 13.4879 C 154.3862 21.4479 160.6021 32.2309 160.9199 44.5736 C 161.4676 65.9618 160.9651 95.0884 145.3987 106.6713 C 132.7978 116.3319 117.4384 92.1313 102.6127 88.5473 C 86.6202 84.6864 67.0955 95.6579 53.0927 85.3404 C 43.2413 77.6681 42.8257 58.2827 44.3056 44.5736 C 45.6245 32.3251 50.8393 21.4479 61.3945 13.4879 C 71.9498 5.527 86.5265 0.6 102.6127 0.6 Z " stroke-width="0.8996659776573902"/>
  <path id="ID0.9837475311942399" fill="#FFE5CB" stroke="none" d="M 105.4658 32.9875 C 120.0743 34.2097 133.6726 43.5566 144.9153 53.3876 C 151.3052 58.9755 155.5172 68.2544 155.753 76.9612 C 156.1276 90.7598 153.8343 105.7281 146.6493 117.3081 C 140.2507 127.6152 128.7956 133.1785 118.4711 137.935 C 108.0426 142.7984 96.3049 143.6379 85.5244 145.6417 C 82.8297 146.1422 83.3213 145.4594 82.0563 144.9617 C 78.55 143.5645 74.8505 141.8899 71.8688 139.975 C 66.0866 136.2567 60.001 132.8005 55.1786 127.7349 C 51.8224 124.2115 50.0164 119.4851 48.676 114.8148 C 47.5081 112.0766 48.2026 108.9132 47.809 105.9747 C 47.2766 101.9881 45.6613 98.1882 45.2079 94.188 C 44.6461 89.2384 43.4764 84.0232 44.7744 79.2278 C 47.8922 67.7076 48.9595 53.1845 58.2132 46.1343 C 71.3737 36.1073 89.2352 31.6293 105.4658 32.9875 Z " stroke-width="0.8870687614607913"/>
  <path id="ID0.19555941736325622" fill="#EDC6B9" stroke="none" stroke-linecap="round" d="M 88.3074 39.6505 C 102.1893 45.3988 111.3372 59.9101 120.7123 72.0641 C 123.4035 75.5548 126.1659 85.0014 123.7469 84.9842 C 120.2112 84.957 112.7747 76.962 108.3573 71.8374 C 101.3639 63.9657 99.2275 50.3039 89.7163 46.2239 C 81.8732 42.8601 73.2663 50.2903 65.223 53.4773 C 62.132 54.7031 59.4972 57.2871 57.203 59.5973 C 54.2474 62.573 52.3945 67.2587 49.3998 69.5707 C 48.5406 70.2326 48.9646 67.6695 49.6166 65.9441 C 52.2237 59.0425 51.2527 49.8143 56.7695 45.9972 C 65.8888 39.8681 78.3644 35.5333 88.3074 39.6505 Z " stroke-width="0.8870687614607913"/>
  <path id="ID0.5315825650468469" fill="url(#grad_3-.5839118957519531,0,0,0.4945492446422577,-12.25,23.45)" stroke="none" d="M 118.8382 95.4069 C 122.7849 95.4069 126.3613 96.4737 128.9516 98.1972 C 131.5412 99.9207 133.1441 102.3004 133.1441 104.927 C 133.1441 107.5535 130.3822 109.4323 128.9516 111.6568 C 126.5972 115.3249 125.6163 119.9736 121.4658 122.2362 C 118.8289 123.9108 113.6834 124.0477 111.4809 121.7911 C 107.0082 117.2076 105.0211 110.6034 104.5324 104.927 C 104.3222 102.4008 106.1352 99.9207 108.7249 98.1972 C 111.3151 96.4737 114.8916 95.4069 118.8382 95.4069 Z " stroke-width="0.5410785790330584"/>
  <path id="ID0.5315825650468469" fill="url(#grad_4-0.5839118957519531,0,0,0.4945492446422577,192.7,22.3)" stroke="none" d="M 61.6118 94.2569 C 58.0785 94.1902 54.0887 95.3237 51.4984 97.0472 C 48.9088 98.7707 47.3591 101.192 47.3059 103.777 C 47.2487 106.4411 49.4623 108.9069 50.8094 111.3683 C 52.7714 114.9612 53.4429 119.1782 57.2908 120.8884 C 60.5572 122.8107 66.3333 123.1876 68.9691 120.6411 C 73.5878 116.1748 74.2844 109.5602 75.9176 103.777 C 76.4852 101.7375 77.1818 99.4967 75.5089 98.6831 C 71.6486 95.8143 66.4232 94.3553 61.6118 94.2569 Z " stroke-width="0.5410785790330584"/>
  <path id="ID0.28986231749877334" fill="url(#grad_5-.6863914132118225,0,0,0.7177832722663879,-77.9,-11.15)" stroke="none" d="M 59.7215 95.0819 C 63.1301 95.0819 66.2189 95.8665 68.4558 97.1333 C 70.6921 98.4002 72.0765 100.1495 72.0765 102.0803 C 72.0765 104.0111 70.6921 105.7604 68.4558 107.0273 C 66.2189 108.2942 63.1301 109.0787 59.7215 109.0787 C 56.3129 109.0787 53.2241 108.2942 50.9871 107.0273 C 48.7509 105.7604 47.3664 104.0111 47.3664 102.0803 C 47.3664 100.1495 48.7509 98.4002 50.9871 97.1333 C 53.2241 95.8665 56.3129 95.0819 59.7215 95.0819 Z " stroke-width="0.7022627706479841"/>
  <path id="ID0.28986231749877334" fill="url(#grad_6-.7534303069114685,0,0,0.78788822889328,-29,-21.85)" stroke="none" d="M 122.0628 94.7575 C 125.8043 94.7575 129.1947 95.6186 131.6502 97.0092 C 134.1049 98.3999 135.6245 100.3199 135.6245 102.4394 C 135.6245 104.5588 134.1049 106.4789 131.6502 107.8695 C 129.1947 109.2601 125.8043 110.1213 122.0628 110.1213 C 118.3212 110.1213 114.9308 109.2601 112.4754 107.8695 C 110.0207 106.4789 108.501 104.5588 108.501 102.4394 C 108.501 100.3199 110.0207 98.3999 112.4754 97.0092 C 114.9308 95.6186 118.3212 94.7575 122.0628 94.7575 Z " stroke-width="0.7708518303154307"/>
  <path id="ID0.06717640860006213" fill="url(#grad_7-.0364385843276978,0,0,0.9066736102104187,-123.85,-46.95)" stroke="none" d="M 96.3932 87.691 C 108.5589 87.1697 122.3788 84.2847 133.6013 89.051 C 140.0957 92.034 142.41 101.011 141.4783 107.4112 C 140.6118 113.388 136.4267 117.7817 128.2647 121.3513 C 120.1028 124.9218 107.2126 127.7524 96.3932 127.1313 C 82.4044 126.3253 67.9958 122.4221 55.1429 116.7046 C 51.8294 115.3509 51.9683 110.6462 51.3081 107.4112 C 50.3308 102.5795 44.6853 95.1611 49.4944 93.1311 C 63.6677 86.8587 80.6611 88.3611 96.3932 87.691 Z " stroke-width="0.973720179141625"/>
  <path id="ID0.2417883020825684" fill="none" stroke="#EAA671" stroke-width="0.9221081040443457" stroke-linecap="round" d="M 95.5098 33.8106 C 95.5098 33.8106 94.6991 43.4332 95.7378 48.0064 C 96.2442 50.188 98.9507 51.3196 98.9495 53.6231 C 99.4592 56.3303 96.362 59.1034 97.134 61.7659 C 98.0518 64.9364 101.889 66.6329 103.0776 69.7751 C 103.9991 72.1971 103.2053 77.8891 103.2053 77.8891 "/>
  <path id="ID0.6690720794722438" fill="#FFB57C" stroke="none" d="M 100.6065 23.7903 C 104.6841 24.3414 108.481 26.9549 111.0033 30.1389 C 113.9651 33.8993 113.4946 39.7729 116.214 43.7357 C 126.8419 59.213 151.781 79.234 151.7549 88.176 C 151.7289 94.9713 125.7462 85.1955 115.7962 77.2009 C 104.0225 68.0738 98.4981 52.4958 90.1468 39.6187 C 88.059 36.3991 87.4814 35.9072 87.4814 33.5317 C 87.4814 31.1562 88.3908 28.7098 90.1468 27.4447 C 93.1724 25.2754 97.0667 23.3575 100.6065 23.7903 Z " stroke-width="0.5029420756953743"/>
  <path id="ID0.2417883020825684" fill="none" stroke="#EAA671" stroke-width="0.9222629016126347" stroke-linecap="round" d="M 67.0509 58.6509 C 67.0509 58.6509 65.1042 60.5992 64.5795 61.8556 C 64.2164 62.725 64.9987 63.7532 64.5225 64.7034 C 62.6236 68.4868 61.2065 73.5564 57.4944 75.8187 C 54.0125 77.8116 45.3683 76.0332 45.3683 76.0332 "/>
  <path id="ID0.7351165390573442" fill="#FFB57C" stroke="none" stroke-linecap="round" d="M 77.8563 30.4272 C 80.3082 30.4272 82.5295 31.4309 84.1387 33.0511 C 85.747 34.6723 86.7432 36.9108 86.7432 39.3806 C 86.7432 41.8504 85.3794 43.8197 84.1387 45.7101 C 82.5356 48.1627 80.4721 50.4892 78.5065 52.8674 C 74.6205 56.8803 71.1967 61.722 66.585 64.8808 C 62.6851 67.5501 55.2808 70.436 53.7964 70.0942 C 52.4309 69.6644 58.5208 65.899 59.8656 63.0675 C 64.5865 53.4576 66.5469 42.4198 71.5738 33.0511 C 72.831 30.7083 75.4043 30.4272 77.8563 30.4272 Z " stroke-width="0.8870687614607913"/>
  <path id="ID0.6264609037898481" fill="#FFB57C" stroke="none" stroke-linecap="round" d="M 64.2127 31.9006 C 66.6048 31.9006 68.7725 32.9296 70.3419 34.5907 C 71.9113 36.2526 73.5898 38.8131 72.8829 41.0806 C 71.5813 45.2196 67.9492 47.0166 65.3135 49.8074 C 61.3773 53.9273 56.6674 56.7897 53.1601 61.8208 C 50.7137 65.3369 48.2535 78.3232 47.973 75.4209 C 47.5026 70.4977 48.8591 54.416 51.23 44.8207 C 52.376 40.212 55.4991 37.1149 58.0836 34.5907 C 59.8664 32.8517 61.8206 31.9006 64.2127 31.9006 Z " stroke-width="0.7700132656584332"/>
  <path id="ID0.4254714152775705" fill="#FFB57C" stroke="none" stroke-linecap="round" d="M 114.707 56.6341 C 116.3214 56.6341 117.785 57.6124 118.8445 59.1918 C 119.904 60.7712 121.0025 63.2709 120.5594 65.3608 C 120.0141 67.8814 116.5469 69.0909 115.5741 71.5942 C 114.5796 74.2109 115.3764 79.9954 114.0568 79.9809 C 113.1681 79.9664 111.7878 74.4656 110.5696 71.5298 C 109.7633 69.5678 108.8547 67.768 108.8547 65.3608 C 108.8547 62.9536 109.5101 60.7712 110.5696 59.1918 C 111.6291 57.6124 113.0926 56.6341 114.707 56.6341 Z " stroke-width="0.8870687614607913"/>
  <path id="ID0.6912295995280147" fill="#FFB57C" stroke="none" d="M 119.1081 16.0638 C 125.6688 16.839 133.8301 18.0748 138.8328 23.3172 C 149.0654 34.5618 159.5286 47.8962 162.6759 63.2108 C 166.1058 79.9417 160.5031 111.0841 157.0403 115.3446 C 153.9407 119.1481 152.3653 92.5263 146.2025 83.1577 C 137.7621 69.2357 124.3648 59.44 114.1227 46.8907 C 111.5624 43.7536 111.1931 40.1378 109.7608 36.9563 C 108.4628 34.084 105.886 31.6813 105.886 28.3039 C 105.886 24.9266 107.3678 21.8665 109.7608 19.6515 C 112.1546 17.4356 115.8117 15.6803 119.1081 16.0638 Z " stroke-width="0.8870687614607913"/>
  <path id="ID0.24383304128423333" fill="#FFB57C" stroke="none" stroke-linecap="round" d="M 51.9781 26.0205 C 55.0118 24.0222 60.2894 22.3884 62.8159 25.1139 C 65.6831 28.3806 64.2248 34.3547 62.8159 38.714 C 61.1572 44.9392 57.0874 50.333 53.8881 55.9254 C 51.5481 60.0435 47.5658 63.9385 46.3425 69.0875 C 44.1064 77.3927 45.1607 96.1971 43.7414 95.3811 C 42.3247 94.5605 37.2162 73.4187 36.3717 62.2875 C 35.8151 54.9552 37.3194 47.176 40.0973 40.5427 C 42.5302 34.731 46.8471 29.4324 51.9781 26.0205 Z " stroke-width="0.8870687614607913"/>
  <path id="ID0.5041508325375617" fill="#FFE5CB" stroke="none" stroke-linecap="round" d="M 160.4559 82.6303 C 162.6014 83.1921 162.3234 87.0498 162.6208 89.4005 C 162.1393 99.8034 162.2129 102.0863 159.1626 107.0886 C 155.6982 112.7582 146.9501 120.5332 143.5946 120.2579 C 141.2913 119.945 146.8088 110.6139 147.2093 105.8465 C 147.4976 102.3731 145.44 99.0216 146.1784 95.4288 C 146.9054 91.8845 149.1449 89.1752 151.7695 87.1716 C 154.0548 84.7516 157.1606 81.8599 160.4559 82.6303 Z " stroke-width="0.8870194048847069"/>
  <path id="ID0.39319502422586083" fill="#FFB57C" stroke="none" d="M 92.5071 1.8703 C 105.3806 0.7551 119.3544 1.4923 131.3062 7.0837 C 141.4036 11.9081 159.8303 24.6641 155.3661 31.5639 C 149.2605 40.9987 124.9172 36.8543 109.8345 39.7793 C 102.8836 41.1275 97.1283 44.0307 88.9956 44.0307 C 80.863 44.0307 75.0591 41.375 68.1568 39.7793 C 61.603 38.2651 49.5869 40.9598 48.5058 35.1906 C 47.1315 27.5582 56.2482 18.224 63.2451 12.9771 C 71.702 6.6358 82.1765 2.7652 92.5071 1.8703 Z " stroke-width="0.8870687614607913"/>
  <path id="ID0.6039587566629052" fill="#FFB57C" stroke="none" stroke-linecap="round" d="M 131.5648 51.4502 C 135.9667 51.4502 140.2281 52.492 143.2098 54.1739 C 146.1923 55.8566 149.3873 58.3763 148.0382 60.7436 C 144.995 66.0975 132.431 64.49 133.2989 70.4904 C 135.019 82.2372 154.3805 87.6718 154.5409 99.9572 C 154.6518 108.6577 135.2471 105.8715 133.2989 114.464 C 131.5379 122.2496 140.8914 128.5864 146.3042 133.9575 C 148.0946 135.449 152.3924 132.1133 152.8068 133.0508 C 153.2421 134.0572 150.3037 138.9905 147.6047 137.5842 C 137.8273 132.3844 124.0582 127.8211 121.1606 116.2774 C 119.0052 107.6776 138.1412 104.7427 137.634 95.8772 C 137.0964 87.6356 123.8171 87.5249 119.86 80.9171 C 117.3041 77.0175 120.6031 71.6799 119.9199 67.3134 C 116.3009 59.2957 117.2373 56.7035 119.9199 54.1739 C 122.6848 51.6488 127.163 51.4502 131.5648 51.4502 Z " stroke-width="0.8870687614607913"/>
  <path id="ID0.42566540837287903" fill="url(#grad_8-.8670207262039185,0,0,0.9066736102104187,-208.6,-15.75)" stroke="none" stroke-linecap="round" d="M 135.6072 14.3062 C 138.9886 16.4133 145.2927 19.8134 144.0607 23.0103 C 142.4315 27.239 134.9275 29.1711 129.7548 29.357 C 127.237 29.4486 125.6191 26.1011 124.2059 23.917 C 120.8289 18.1895 112.9104 8.0901 115.5357 5.8742 C 118.448 3.4162 129.3248 10.6079 135.6072 14.3062 Z " stroke-width="0.8870687614607913"/>
  <path id="ID0.03435819363221526" fill="url(#grad_9-.8670207262039185,0,0,0.9066736102104187,-191.75,-14.75)" stroke="none" d="M 100.0025 9.2769 C 103.9752 8.557 108.4074 8.2623 112.1841 9.8209 C 115.2967 11.1065 118.809 14.0668 119.0769 17.0742 C 119.3509 19.0988 115.445 19.768 113.2679 19.8849 C 105.6485 20.2947 97.6745 20.8832 90.3785 18.7969 C 88.5543 18.2756 90.1982 14.9481 91.3756 13.7649 C 93.6906 11.442 96.8404 9.849 100.0025 9.2769 Z " stroke-width="0.8870687614607913"/>
  <path id="ID0.6039587566629052" fill="#FFB57C" stroke="none" stroke-linecap="round" d="M 41.9823 50.9002 C 40.5369 49.7623 39.0148 42.2034 39.0092 44.3268 C 38.5066 51.7235 42.426 62.0659 40.9659 69.9404 C 38.809 81.6074 28.5851 87.1209 28.5145 99.4072 C 28.4657 108.1412 38.4517 106.3333 40.9659 113.914 C 41.9599 118.9116 40.2111 124.2846 38.8313 128.6021 C 37.2706 132.3911 31.2258 138.7251 32.5802 137.0342 C 35.748 133.0213 46.4343 127.1551 48.0809 115.7274 C 49.3205 107.1158 38.1275 104.1927 38.4248 95.3272 C 38.7399 87.0856 46.5237 86.9749 48.8432 80.3671 C 50.3415 76.4675 48.4077 71.1299 48.8082 66.7634 C 50.9295 58.7457 50.3806 56.1535 48.8082 53.6239 C 47.1875 51.0988 44.0995 52.5912 41.9823 50.9002 Z " stroke-width="0.7349636201511138"/>
  <path id="ID0.47073724726215005" fill="#FFD6A2" stroke="none" stroke-linecap="round" d="M 79.1571 23.3837 C 81.3992 23.3837 83.4315 24.6286 84.9029 26.6387 C 86.3742 28.6497 87.947 31.8366 87.2855 34.4905 C 86.1132 39.1861 82.3538 42.9715 79.699 47.1839 C 79.0462 48.1214 78.7262 49.6555 77.5315 49.6772 C 74.9313 49.7081 71.2664 49.4098 70.1618 46.9572 C 68.4668 43.1936 70.421 38.468 71.0288 34.4905 C 71.4406 31.7813 71.9401 28.6497 73.4114 26.6387 C 74.8827 24.6286 76.915 23.3837 79.1571 23.3837 Z " stroke-width="0.8870687614607913"/>
  <path id="ID0.7198191368952394" fill="#FFB57C" stroke="none" stroke-linecap="round" d="M 143.0808 25.7068 C 149.0745 23.2361 156.067 26.6897 161.2882 30.2402 C 166.7617 39.5835 165.1248 39.909 167.3574 43.8403 C 169.2197 46.9856 172.1633 49.0927 172.993 52.4537 C 174.1539 56.8338 173.0936 61.7888 172.5595 66.5071 C 172.08 73.8829 174.1401 85.8837 169.9584 88.7206 C 166.753 90.8903 162.7535 79.7029 158.2536 76.0272 C 155.0639 73.2138 150.4158 72.5519 147.128 69.4538 C 144.5036 66.9868 142.6161 63.6031 141.3467 60.1604 C 139.2165 54.4185 136.2816 47.846 136.5781 41.1203 C 136.892 35.7083 138.0971 27.7704 143.0808 25.7068 Z " stroke-width="0.8870687614607913"/>
  <path id="ID0.8537644832395017" fill="none" stroke="#FFB57C" stroke-width="1.3497956913003801" stroke-linecap="round" d="M 66.6172 49.6906 C 66.6172 49.6906 67.6921 48.935 68.0581 48.4385 C 68.6655 47.614 68.9731 46.6437 69.499 45.7779 C 70.1136 44.7662 70.9551 43.3113 71.4803 42.8042 C 71.7202 42.5726 71.3174 43.7639 71.12 44.2128 C 70.535 45.5425 69.834 46.8365 69.1388 48.1255 C 68.9335 48.5061 68.2058 48.9625 68.4183 49.2211 C 68.6561 49.5103 69.7036 49.5885 70.0394 49.2211 C 71.2396 47.9064 71.7339 46.1992 72.5609 44.6823 C 72.8138 44.2184 73.4298 42.8386 73.2814 43.2737 C 72.7094 44.9515 70.9831 48.9212 71.12 48.908 C 71.2569 48.8949 74.5645 43.2524 74.9024 43.1172 C 75.2403 42.982 73.3621 47.969 73.4615 47.969 C 73.5609 47.969 74.9954 44.5759 76.1632 43.1172 C 76.455 42.7529 76.4031 43.9523 76.3433 44.3693 C 76.2799 44.8113 75.6625 45.8417 75.803 45.6214 C 76.0573 45.2232 76.7172 43.367 77.2439 42.9607 C 77.5076 42.7572 77.4449 43.8979 77.424 44.3693 C 77.3844 45.2608 76.7266 47.2935 77.0638 47.0299 C 77.4615 46.7188 79.0796 42.7504 79.2251 42.9607 C 79.3707 43.171 78.0349 48.3096 78.1445 48.595 C 78.254 48.8805 79.3123 46.0771 79.9456 44.8388 C 80.1041 44.5295 80.3058 44.3693 80.3058 44.3693 "/>
  <path id="ID0.7577737565152347" fill="#FFB57C" stroke="none" stroke-linecap="round" d="M 74.9445 45.5248 C 76.1909 45.5095 77.3593 46.2831 78.4382 46.9196 C 79.3351 47.4549 80.9956 47.5691 81.083 48.5168 C 80.9956 50.5253 79.5848 52.3618 78.4382 53.65 C 77.016 55.244 75.3607 57.136 73.2798 57.3841 C 70.1554 57.5059 66.696 56.6932 64.1761 54.664 C 63.0191 53.7273 64.6224 51.6492 65.0604 50.1488 C 65.4953 49.051 65.6826 47.4908 66.7771 46.9392 C 69.2606 45.6912 72.3039 45.5574 74.9445 45.5248 Z " stroke-width="1.0644825852606559"/>
  <path id="ID0.7351165390573442" fill="url(#grad_10-.8670207262039185,0,0,0.9066736102104187,-101,-41)" stroke="none" stroke-linecap="round" d="M 66.0315 47.9447 C 67.3026 45.9835 69.3531 44.7169 71.4504 44.5447 C 73.8937 44.3407 76.5606 45.1494 77.9531 47.038 C 79.2944 48.573 79.3837 51.3764 78.2565 53.0674 C 75.1092 57.7993 70.9467 61.922 66.335 65.0808 C 62.4351 67.7501 55.0308 70.636 53.5464 70.2942 C 52.1809 69.8644 58.0922 65.9884 59.6156 63.2675 C 62.3614 58.3642 63.0516 52.5606 66.0315 47.9447 Z " stroke-width="0.8870687614607913"/>
  <path id="ID0.03435819363221526" fill="url(#grad_11-.8670207262039185,0,0,0.9066736102104187,-213.35,-13.9)" stroke="none" d="M 78.4025 10.1269 C 82.2208 9.7315 86.7805 9.6527 89.7604 12.1669 C 91.6245 13.6457 90.2755 17.3059 89.6737 19.4203 C 86.3834 20.1392 83.1338 19.0159 80.0498 18.1509 C 77.4002 17.4065 74.2833 16.8671 72.3333 15.1136 C 71.6683 14.5152 73.9867 14.2749 74.761 13.6175 C 76.0398 12.5359 76.678 10.3064 78.4025 10.1269 Z " stroke-width="0.8870687614607913"/>
  <path id="ID0.5717927822843194" fill="none" stroke="#FFB57C" stroke-width="1.2719683650189553" stroke-linecap="round" d="M 77.7144 18.724 C 77.7144 18.724 77.0091 19.7552 76.7381 20.2851 C 76.5522 20.6486 76.5163 21.0339 76.3476 21.4001 C 76.1906 21.7409 75.9266 22.0643 75.7618 22.4037 C 75.6017 22.7337 75.4752 23.07 75.3713 23.4072 C 75.2799 23.702 75.2409 24.0022 75.1761 24.2993 C 75.1112 24.5963 75.0456 24.8943 74.9808 25.1913 C 74.916 25.4884 74.8222 26.0834 74.7855 26.0834 C 74.7488 26.0834 74.5903 25.4906 74.5903 25.1913 C 74.5903 24.892 74.6582 24.5896 74.7855 24.2993 C 74.9207 23.9915 75.2362 23.715 75.3713 23.4072 C 75.4986 23.1169 75.4393 22.8055 75.5666 22.5152 C 75.7017 22.2074 75.9173 21.9108 76.1524 21.6231 C 76.3742 21.352 76.6288 21.0861 76.9334 20.8426 C 77.2817 20.5638 77.7144 20.3221 78.1049 20.0621 C 78.4955 19.802 79.1984 19.2668 79.2765 19.2815 C 79.3546 19.2962 78.8579 19.8712 78.6907 20.1736 C 78.4673 20.5772 78.3393 20.9987 78.1049 21.4001 C 77.8831 21.7797 77.566 22.1401 77.3239 22.5152 C 77.1107 22.8457 76.9435 23.1864 76.7381 23.5187 C 76.553 23.818 76.3179 24.1079 76.1524 24.4108 C 75.9922 24.7029 75.6908 24.9995 75.7618 25.3028 C 75.8313 25.5994 76.2531 26.111 76.5429 26.0834 C 76.8389 26.0553 76.7897 25.4861 76.9334 25.1913 C 77.1154 24.818 77.3372 24.4496 77.5192 24.0763 C 77.6629 23.7814 77.78 23.4813 77.9097 23.1842 C 78.0393 22.8872 78.1705 22.5892 78.3002 22.2922 C 78.4299 21.9951 78.5025 21.6869 78.6907 21.4001 C 78.8946 21.0892 79.1726 20.7926 79.4718 20.5081 C 79.7592 20.2342 80.3489 19.6709 80.448 19.7275 C 80.5472 19.7842 80.2044 20.4733 80.0575 20.8426 C 79.8795 21.2904 79.6928 21.7391 79.4718 22.1807 C 79.3023 22.5192 79.0812 22.8501 78.886 23.1842 C 78.6907 23.5183 78.4416 23.8448 78.3002 24.1878 C 78.1799 24.479 78.1698 24.7828 78.1049 25.0798 C 78.0401 25.3769 77.7066 25.9719 77.9097 25.9719 C 78.1128 25.9719 78.768 25.405 79.0812 25.0798 C 79.4889 24.657 79.7107 24.182 80.0575 23.7417 C 80.2965 23.4389 80.5785 23.1467 80.8386 22.8497 C 81.0986 22.5526 81.372 22.2583 81.6196 21.9577 C 81.8922 21.6267 82.2132 20.9327 82.4006 20.9541 C 82.5881 20.9755 82.6646 21.6981 82.5959 22.0692 C 82.5311 22.4193 82.2233 22.7422 82.0101 23.0727 C 81.768 23.4478 81.3986 23.7997 81.2291 24.1878 C 81.0705 24.5499 81.1354 24.9344 81.0338 25.3028 C 80.9401 25.6409 80.8128 25.9781 80.6433 26.3064 C 80.4863 26.6106 80.1926 26.8907 80.0575 27.1984 C 79.9302 27.4888 79.8623 27.7912 79.8623 28.0905 C 79.8623 28.4268 79.8677 29.1373 80.0575 29.094 C 80.2473 29.0507 80.6386 28.2867 80.8386 27.8674 C 81.0299 27.4669 81.126 27.0517 81.2291 26.6409 C 81.3212 26.2716 81.3595 25.8974 81.4243 25.5258 C 81.4892 25.1543 81.5228 24.7796 81.6196 24.4108 C 81.718 24.0361 81.8664 23.6655 82.0101 23.2957 C 82.1265 22.9969 82.3382 22.7079 82.4006 22.4037 C 82.4694 22.0718 82.3132 21.3502 82.4006 21.4001 C 82.4881 21.4501 82.9067 22.281 82.9864 22.7382 C 83.0387 23.0361 82.8825 23.3354 82.7912 23.6302 C 82.6873 23.9674 82.4897 24.2953 82.4006 24.6338 C 82.2944 25.0392 82.2804 25.4527 82.2054 25.8603 C 82.1507 26.1578 82.0749 26.4553 82.0101 26.7524 C 81.9453 27.0494 81.8797 27.3474 81.8149 27.6444 C 81.75 27.9415 81.6321 28.5436 81.6196 28.5365 C 81.6071 28.5293 81.5891 27.8666 81.6196 27.5329 C 81.654 27.1605 81.7133 26.7863 81.8149 26.4179 C 81.9086 26.0798 82.025 25.7408 82.2054 25.4143 C 82.4163 25.033 82.799 24.6846 82.9864 24.2993 C 83.127 24.0107 83.0676 23.6994 83.1817 23.4072 C 83.3293 23.029 83.5089 22.6508 83.7674 22.2922 C 83.9674 22.0152 84.2751 21.4594 84.5485 21.5116 C 84.8609 21.571 85.0093 22.1753 84.939 22.5152 C 84.871 22.8452 84.3415 23.0923 84.158 23.4072 C 83.9486 23.7663 83.8971 24.1507 83.7674 24.5223 C 83.6378 24.8938 83.4863 25.264 83.3769 25.6373 C 83.291 25.9326 83.2465 26.2323 83.1817 26.5294 C 83.1168 26.8264 82.9317 27.4678 82.9864 27.4214 C 83.0411 27.375 83.4269 26.6101 83.5722 26.1949 C 83.6878 25.8653 83.6987 25.5254 83.7674 25.1913 C 83.8284 24.8938 83.8659 24.5936 83.9627 24.2993 C 84.0619 23.9982 84.1423 23.3831 84.3532 23.4072 C 84.5641 23.4313 84.832 24.0638 84.939 24.4108 C 85.0296 24.7034 84.939 25.0058 84.939 25.3028 C 84.939 25.5999 84.9085 25.8983 84.939 26.1949 C 84.9734 26.5307 85.1343 27.2055 85.1343 27.1984 C 85.1343 27.1917 84.9749 26.4558 84.939 26.0834 C 84.9101 25.7868 84.939 25.4884 84.939 25.1913 C 84.939 24.8943 84.8742 24.5941 84.939 24.2993 C 85.0054 23.9955 85.1999 23.7043 85.3295 23.4072 C 85.4592 23.1102 85.3053 22.5678 85.72 22.5152 C 86.184 22.4563 86.8463 22.8707 87.0868 23.1842 C 87.3477 23.5245 87.0868 23.9277 87.0868 24.2993 C 87.0868 24.6708 87.0868 25.0428 87.0868 25.4143 C 87.0868 25.7114 87.1196 26.0098 87.0868 26.3064 C 87.054 26.6052 86.9564 26.9014 86.8916 27.1984 C 86.8268 27.4955 86.7932 27.7961 86.6963 28.0905 C 86.5971 28.3915 86.387 28.9825 86.3058 28.9825 C 86.2246 28.9825 86.141 28.3893 86.1106 28.0905 C 86.0762 27.7568 86.1106 27.421 86.1106 27.0869 C 86.1106 26.6783 86.1106 26.2689 86.1106 25.8603 C 86.1106 25.5633 86.0777 25.2649 86.1106 24.9683 C 86.1434 24.6695 86.273 24.3751 86.3058 24.0763 C 86.3386 23.7797 86.3058 23.4813 86.3058 23.1842 C 86.3058 23.1102 86.3058 22.9612 86.3058 22.9612 "/>
  <path id="ID0.47073724726215005" fill="#FFD6A2" stroke="none" stroke-linecap="round" d="M 98.714 28.4004 C 97.2219 28.2707 95.2841 28.0105 94.2471 29.3887 C 92.6345 31.5248 91.203 34.5866 91.8645 37.2405 C 93.0368 41.9361 96.7962 45.7215 99.451 49.9339 C 100.1038 50.8714 100.4238 52.4055 101.6185 52.4272 C 104.2187 52.4581 107.8836 52.1598 108.9882 49.7072 C 110.6832 45.9436 108.729 41.218 108.1212 37.2405 C 107.7094 34.5313 107.5984 31.2872 105.7386 29.3887 C 104.0601 27.6696 101.1226 28.2707 98.714 28.4004 Z " stroke-width="0.8870687614607913"/>
  <path id="ID0.9724912280216813" fill="#FFD6A2" stroke="none" d="M 88.8229 28.077 C 90.557 28.077 92.1289 28.9148 93.2664 30.2693 C 94.4048 31.623 95.1088 33.4935 95.1088 35.5571 C 95.1088 37.6207 94.4048 39.4911 93.2664 40.8448 C 92.1289 42.1994 90.557 43.0371 88.8229 43.0371 C 87.0889 43.0371 85.517 42.1994 84.3795 40.8448 C 83.2411 39.4911 82.537 37.6207 82.537 35.5571 C 82.537 33.4935 83.2411 31.623 84.3795 30.2693 C 85.517 28.9148 87.0889 28.077 88.8229 28.077 Z " stroke-width="0.8870687614607913"/>
  <path id="ID0.5645068781450391" fill="none" stroke="#FFEFD6" stroke-width="1.7741375229215826" stroke-linecap="round" d="M 73.9535 33.6077 C 73.9535 33.6077 72.3695 37.948 72.4363 38.0504 C 72.503 38.1529 73.9613 35.1427 74.6038 34.6051 C 74.9029 34.3548 73.8391 36.2135 74.3871 36.4184 C 76.363 37.1564 80.673 36.8717 80.673 36.8717 "/>
  <path id="ID0.9068396100774407" fill="none" stroke="#FFB57C" stroke-width="1.5963787881922251" stroke-linecap="round" d="M 98.9998 47.4817 C 98.9998 47.4817 99.6835 48.576 99.7697 49.1941 C 100.049 51.2091 100.0862 53.5465 100.0875 55.3181 C 100.0873 55.7977 99.8026 54.2485 99.7721 53.6966 C 99.7436 53.1908 99.7865 52.6706 99.9111 52.1661 C 100.1948 51.016 100.5513 48.2729 100.9928 48.7463 C 101.6715 49.474 102.0481 53.0488 102.3941 54.8275 C 102.4862 55.3009 101.9747 53.7939 101.869 53.2506 C 101.7516 52.6473 101.6961 52.025 101.7282 51.4043 C 101.7884 50.2499 101.9262 48.0442 102.1458 47.9382 C 102.3654 47.8322 102.8 49.8014 103.1259 50.7317 C 103.4519 51.662 103.9688 53.8703 104.1061 53.5252 C 104.2433 53.18 103.8862 50.4371 103.8589 48.8871 C 103.8501 48.3794 103.8265 46.924 103.9979 47.3566 C 104.6841 49.0876 105.2904 53.2732 105.5739 53.2129 C 105.8574 53.1526 106.115 46.9062 106.3045 46.8659 C 106.4941 46.8256 107.172 52.1427 107.4611 52.8115 C 107.6656 53.2835 107.551 50.6737 107.4944 49.6148 C 107.3863 47.5821 106.7428 45.5448 106.9669 43.5354 C 107.0229 43.0334 107.8442 43.8831 108.051 44.6181 C 108.8771 47.5585 109.8033 53.6266 109.8033 53.6266 "/>
  <path id="ID0.4573299139738083" fill="#FFD6A2" stroke="none" stroke-linecap="round" d="M 116.6011 25.8603 C 119.0557 26.8767 119.0453 31.0293 120.0692 33.5671 C 121.5553 37.2355 123.5546 40.9193 123.754 44.9005 C 123.9309 48.4547 123.8451 53.3244 121.153 55.7806 C 119.3201 57.4262 115.9699 55.0117 113.7833 53.5139 C 111.7267 51.9617 110.2311 49.549 109.0069 47.0466 C 107.735 44.4417 107.3283 41.4397 106.8471 38.5538 C 106.2931 35.2743 103.2689 31.0266 105.3299 28.3537 C 107.6483 25.3463 112.905 24.7016 116.6011 25.8603 Z " stroke-width="0.8870687614607913"/>
  <path id="ID0.1563721038401127" fill="#FFD6A2" stroke="none" stroke-linecap="round" d="M 114.3509 27.437 C 115.9939 23.6489 124.7976 22.6344 129.0902 25.397 C 133.3161 28.3473 132.8626 35.5137 134.2923 40.8105 C 135.5634 45.527 137.4379 50.4493 136.6766 55.3172 C 136.2145 57.2095 133.1357 57.4615 131.2578 57.5839 C 128.5344 57.7634 124.58 58.1615 123.2378 55.7706 C 120.8154 51.4575 123.3783 45.5796 121.9373 40.8105 C 120.4746 35.9752 112.6584 31.3557 114.3509 27.437 Z " stroke-width="0.8870687614607913"/>
  <path id="ID0.3627366414293647" fill="#FFD6A2" stroke="none" stroke-linecap="round" d="M 133.908 21.5036 C 136.4198 21.5036 138.863 21.7983 140.3439 23.1973 C 143.975 34.9124 145.6813 43.6491 144.529 52.7839 C 144.1631 55.1965 139.991 54.7223 137.8096 54.5972 C 136.1016 54.4993 134.1005 53.9834 133.2578 52.1039 C 129.4437 44.204 126.4282 35.7475 124.8043 27.2837 C 124.3985 25.1675 125.8248 24.2436 127.4721 23.1973 C 129.1203 22.151 131.3963 21.5036 133.908 21.5036 Z " stroke-width="0.8870687614607913"/>
  <path id="ID0.4426325857639313" fill="#FFD6A2" stroke="none" stroke-linecap="round" d="M 144.2039 19.6903 C 145.7888 19.6903 147.3364 20.0239 148.2642 21.4175 C 151.9499 26.9564 155.5541 33.362 157.3176 40.0904 C 158.6346 45.0771 160.3322 51.5925 157.0141 55.2772 C 154.3116 58.6011 146.9662 58.5104 144.6591 54.8239 C 139.4414 46.4834 139.8627 35.6178 138.4599 25.5837 C 138.1096 23.0749 139.1067 22.4819 140.1436 21.4175 C 141.1841 20.3494 142.619 19.6903 144.2039 19.6903 Z " stroke-width="0.8870687614607913"/>
  <path id="ID0.007240200415253639" fill="url(#grad_12-.8670207262039185,0,0,0.9066736102104187,-44.15,-62.55)" stroke="none" stroke-linecap="round" d="M 102.1597 42.1708 C 104.6004 41.9659 106.8798 44.0966 108.4456 46.2508 C 110.7918 49.4777 112.5571 53.3492 113.2143 57.3576 C 114.468 64.9918 115.0836 74.8999 114.298 80.9311 C 114.0223 82.9956 112.3117 75.6969 110.83 73.2244 C 107.1997 67.0726 102.647 61.5002 98.9865 55.1027 C 97.5489 52.5894 95.2401 49.7823 95.8738 46.9308 C 96.46 44.2906 99.5327 42.2397 102.1597 42.1708 Z " stroke-width="0.8870687614607913"/>
  <path id="ID0.8484609983861446" fill="url(#grad_13-.8670207262039185,0,0,0.9066736102104187,-204.65,-17.2)" stroke="none" stroke-linecap="round" d="M 38.5493 46.2672 C 38.7765 46.2418 38.6863 51.7924 38.9828 54.6085 C 39.399 58.5199 40.0943 62.4885 40.8469 66.4406 C 41.2388 68.847 42.7717 71.2243 42.4509 73.694 C 42.0174 76.92 40.3597 79.9165 38.7661 82.7608 C 37.3702 85.1072 35.1341 86.8553 33.5639 89.1075 C 32.3536 90.8438 31.1372 92.5864 30.3126 94.5929 C 29.5323 96.3246 28.9696 99.9994 28.7953 100.2142 C 28.6228 100.4273 28.7659 97.3192 29.0121 95.9075 C 29.3554 93.9473 29.86 91.9916 30.7461 90.2408 C 32.8686 86.0456 35.4783 82.1025 37.9858 78.1367 C 38.6126 77.1457 38.6776 78.1186 38.7227 77.8194 C 38.8103 76.3279 38.5363 74.8373 38.3326 73.4674 C 37.8245 70.0592 36.8421 66.6737 36.5985 63.2673 C 36.3757 60.1465 36.5612 56.9831 36.9219 53.8696 C 37.2349 51.1695 38.3456 46.0876 38.5493 46.2672 Z " stroke-width="0.8870687614607913"/>
  <path id="ID0.07623290736228228" fill="none" stroke="url(#grad_14)" stroke-width="0.9433665074508251" stroke-linecap="round" d="M 51.6351 27.8736 C 51.6351 27.8736 47.7431 30.1236 46.656 31.5135 C 44.5316 34.2196 42.3685 36.9468 40.801 40.1191 C 39.813 42.0832 38.9251 44.2286 38.8647 46.4588 C 38.666 53.9344 41.3814 61.6158 39.7176 68.9009 C 38.2073 75.4928 29.1141 86.5943 29.1141 86.5943 "/>
  <path id="ID0.29914368549361825" fill="#FFD6A2" stroke="none" stroke-linecap="round" d="M 70.2339 22.4177 C 71.8257 22.1076 72.75 24.8675 73.1384 26.4977 C 73.4947 28.5685 72.8462 30.7763 72.3147 32.7538 C 71.5379 35.6469 71.0081 38.9255 69.02 41.0952 C 67.703 42.5295 65.1115 42.8124 63.1676 42.3645 C 61.2047 41.9112 58.406 40.6681 58.0956 38.5111 C 57.6196 35.1048 59.3215 31.6748 61.3036 29.1271 C 63.5604 26.0552 66.6791 23.1122 70.2339 22.4177 Z " stroke-width="0.8870687614607913"/>
  <path id="ID0.42566540837287903" fill="url(#grad_15-.8670207262039185,0,0,0.9066736102104187,-216.9,-23.9)" stroke="none" stroke-linecap="round" d="M 126.8737 7.8336 C 130.1094 9.3659 136.2228 13.62 135.7607 14.8603 C 135.2986 16.0934 127.8647 11.6824 124.5761 13.4096 C 122.1268 14.8349 124.6489 21.5398 122.9721 21.887 C 121.2251 22.2433 118.8633 17.7453 117.77 15.2003 C 116.4894 12.2092 113.8173 7.3485 115.8192 5.5669 C 118.3691 3.6656 123.4568 6.217 126.8737 7.8336 Z " stroke-width="0.8870687614607913"/>
  <path id="ID0.49103622883558273" fill="#E79A6B" stroke="none" stroke-linecap="round" d="M 83.6288 7.511 C 86.6297 8.57 92.2626 11.5416 92.2377 11.6964 C 92.2316 11.8694 86.4338 9.5246 83.4326 9.5653 C 80.9203 9.5987 78.0843 10.3666 76.2653 12.03 C 71.7837 16.1253 65.3311 26.7744 65.0239 26.562 C 64.7151 26.3489 69.8254 14.8802 73.2438 9.6861 C 74.2722 8.1233 76.1868 7.1374 77.9264 6.7883 C 79.8421 6.3719 81.817 6.8721 83.6288 7.511 Z " stroke-width="0.8868021489123115"/>
  <path id="ID0.49103622883558273" fill="#E79A6B" stroke="none" stroke-linecap="round" d="M 104.1019 5.1971 C 99.8554 6.5298 92.3872 11.8984 92.5088 12.1332 C 92.7581 12.481 101.4152 8.548 106.0174 8.2153 C 108.5235 8.0347 111.3657 9.0166 113.1847 10.68 C 117.6663 14.7753 124.1189 25.4244 124.4261 25.212 C 124.7349 24.9989 119.1422 13.8388 116.2062 8.3361 C 115.4722 6.9602 115.4401 5.7869 114.4909 5.4455 C 111.0587 4.6505 107.3717 4.1663 104.1019 5.1971 Z " stroke-width="0.8868021489123115"/>
  <path id="ID0.3693540976382792" fill="#E79A6B" stroke="none" stroke-linecap="round" d="M 100.5277 1.5568 C 103.4817 1.4598 106.8336 0.778 109.6314 2.0101 C 111.6715 2.9123 115.6954 6.5063 114.4001 7.6769 C 111.577 9.5664 105.6232 7.1401 101.3947 8.1302 C 98.4755 8.8174 95.4262 9.8909 93.6783 12.3009 C 91.0052 15.9883 89.3163 25.4386 88.9096 25.5837 C 88.5108 25.5673 90.4625 17.0056 89.9934 12.8902 C 89.8625 11.7424 88.4787 11.1059 87.3057 10.8502 C 83.0399 9.9091 74.7035 10.91 74.3004 9.2635 C 73.8998 7.6225 81.3466 4.3231 85.3549 3.1435 C 90.0402 1.7662 95.4522 1.7209 100.5277 1.5568 Z " stroke-width="0.8870687614607913"/>
  <path id="ID0.44957977207377553" fill="#E79A6B" stroke="none" stroke-linecap="round" d="M 110.065 1.5568 C 114.0879 1.9149 118.4673 2.4988 122.2032 4.5035 C 127.4531 7.1972 136.6721 15.2548 136.5091 15.3836 C 136.3461 15.5105 125.3939 8.0622 119.4123 6.1999 C 116.4185 5.2687 113.7125 6.9968 110.065 6.9968 C 106.4174 6.9968 103.1114 6.6922 100.7176 6.1999 C 98.3246 5.7076 96.8429 5.0276 96.8429 4.2768 C 96.8429 3.5261 98.3246 2.8461 100.7176 2.3538 C 103.1114 1.8614 106.9497 1.2821 110.065 1.5568 Z " stroke-width="0.8870687614607913"/>
  <path id="ID0.7341409814544022" fill="url(#grad_16-.8670207262039185,0,0,0.9066736102104187,-212.25,-16.35)" stroke="none" stroke-linecap="round" d="M 87.9559 2.9168 C 90.4989 2.2069 93.3696 0.7979 95.9759 1.5568 C 97.3189 1.9458 97.879 5.2216 96.8429 5.6368 C 95.603 6.2416 93.4979 3.4971 91.424 3.5968 C 88.5507 3.7355 85.9965 5.0829 83.1873 6.3168 C 80.7146 7.4112 78.5722 8.9226 76.2511 10.6235 C 73.6137 12.5638 68.937 17.6022 68.8815 17.1969 C 68.826 16.7916 72.8117 9.4766 76.2511 6.9968 C 79.4756 4.4881 83.9867 4.0239 87.9559 2.9168 Z " stroke-width="0.8870687614607913"/>
  <path id="ID0.38957672333344817" fill="url(#grad_17-.8670207262039185,0,0,0.9066736102104187,-178.8,-25.85)" stroke="none" stroke-linecap="round" d="M 106.4498 0.4435 C 113.4987 0.7364 120.7175 2.4881 127.6918 4.7502 C 132.874 6.5228 142.2725 11.0108 142.6479 12.457 C 143.0182 13.9031 133.6795 12.2475 129.2091 12.457 C 118.4477 12.962 107.6203 14.8578 96.7825 14.8143 C 89.3539 14.7064 82.0718 12.0698 74.5868 12.0036 C 69.5546 11.9592 58.1767 15.9413 59.6307 14.2703 C 61.6231 12.2457 74.892 5.365 83.0403 2.9369 C 90.5747 0.692 98.6198 0.1226 106.4498 0.4435 Z " stroke-width="0.8870687614607913"/>
  <path id="ID0.7118298942223191" fill="none" stroke="#FFEFD6" stroke-width="1.7741375229215826" stroke-linecap="round" d="M 150.1647 27.6237 C 150.1647 27.6237 150.8453 29.4089 151.0317 30.3437 C 151.5692 33.0401 151.9291 35.781 152.3322 38.5038 C 152.7232 41.1413 153.5018 43.9202 153.416 46.4371 C 153.3934 47.0936 152.3435 45.6447 152.1155 44.8505 C 151.2042 41.6744 150.9762 38.3097 150.1647 35.1037 C 149.6739 33.1653 148.2477 28.2484 148.2139 29.437 C 148.1497 31.7227 149.7008 38.3242 149.9479 42.8105 C 150.0095 43.932 149.0705 41.8711 148.8641 41.2238 C 148.0396 38.6361 147.7379 35.878 146.9133 33.2904 C 146.707 32.643 145.9128 31.1824 145.8296 31.7037 C 145.5877 33.2224 146.5709 35.5045 146.2631 37.3704 C 146.1642 37.9697 145.1542 38.5436 144.7458 38.2771 C 144.2871 37.977 144.601 36.9162 144.529 36.2371 C 144.4571 35.558 144.536 34.839 144.3123 34.1971 C 144.223 33.9414 143.662 33.7437 143.662 33.7437 "/>
  <path id="ID0.23927508061751723" fill="none" stroke="#FFEFD6" stroke-width="1.7741375229215826" stroke-linecap="round" d="M 138.2431 33.0637 C 138.2431 33.0637 138.2241 38.3623 138.0264 40.9971 C 137.9345 42.222 137.7255 44.1977 137.3761 44.6238 C 137.1368 44.9157 136.8446 43.2892 136.7258 42.5838 C 136.4102 40.7124 136.5611 38.356 136.0756 36.9171 C 135.9108 36.4293 135.7834 38.2055 135.4253 38.7304 C 135.0386 39.2971 134.4785 39.7323 133.908 40.0904 C 133.7225 40.2065 133.2578 40.0904 133.2578 40.0904 "/>
  <path id="ID0.37762056151404977" fill="none" stroke="#FFEFD6" stroke-width="1.122871813435854" stroke-linecap="round" d="M 119.2177 39.3349 C 119.2177 39.3349 118.3803 39.4755 117.983 39.6218 C 117.5978 39.7641 117.2817 40.0918 116.8855 40.1956 C 116.531 40.2886 116.1535 40.1956 115.788 40.1956 C 115.0116 40.1956 114.2318 40.2255 113.4559 40.1956 C 112.9971 40.1778 112.5417 40.0889 112.084 40.0522 C 111.9474 40.0413 111.6724 40.0522 111.6724 40.0522 "/>
  <path id="ID0.28674831287935376" fill="#FFD6A2" stroke="none" stroke-linecap="round" d="M 59.7778 17.1969 C 62.0069 18.1471 63.3924 21.0104 64.3296 23.5436 C 65.1169 25.677 64.366 28.1967 63.9828 30.4117 C 63.6351 32.4173 63.3585 34.7864 62.3502 36.2924 C 61.3419 37.7984 59.9043 39.0532 58.4122 38.7304 C 54.5453 37.8954 49.8937 36.5472 47.206 33.2904 C 46.0164 31.7418 48.3339 29.5132 49.1567 27.8503 C 50.9567 25.027 52.8294 22.2135 55.0091 19.9169 C 56.2403 18.6222 57.9631 16.574 59.7778 17.1969 Z " stroke-width="0.8870687614607913"/>
  <path id="ID0.7347561060450971" fill="none" stroke="#FFB57C" stroke-width="1.7741375229215826" stroke-linecap="round" d="M 87.6525 25.221 C 87.6525 25.221 87.4548 29.6465 87.6525 31.2504 C 87.7149 31.7545 87.929 30.0137 88.1727 29.437 C 88.653 28.301 89.6336 26.0624 89.82 26.1277 C 90.0064 26.1929 89.2963 29.8532 89.4732 29.8904 C 89.6501 29.9275 90.4703 26.9283 91.1206 26.3997 C 91.444 26.1367 91.372 27.6636 91.424 28.3037 C 91.4734 28.9057 91.339 29.5857 91.424 30.117 C 91.4474 30.2657 91.6408 29.6637 91.6408 29.6637 "/>
  <path id="ID0.7650739434175193" fill="none" stroke="#FFB57C" stroke-width="1.7741375229215826" stroke-linecap="round" d="M 96.1926 25.493 C 96.1926 25.493 96.3712 26.8204 96.4094 27.4877 C 96.4441 28.0906 96.3218 29.3128 96.4094 29.301 C 96.4969 29.2892 96.5819 27.5393 97.0596 27.397 C 97.4923 27.2673 97.6622 28.6201 98.2301 28.757 C 98.805 28.8957 99.294 28.1686 99.8775 28.077 C 100.4783 27.9827 101.0904 28.1894 101.6982 28.213 C 102.2756 28.2348 102.8609 28.1251 103.4322 28.213 C 103.8571 28.2783 104.6461 28.6663 104.6461 28.6663 "/>
  <path id="ID0.41171110048890114" fill="none" stroke="#FFB57C" stroke-width="1.7741375229215826" stroke-linecap="round" d="M 107.8974 23.7703 C 107.8974 23.7703 107.3312 27.0371 107.4639 27.7597 C 107.5324 28.1341 107.7604 26.3017 108.3309 26.1277 C 108.8893 25.9581 109.3479 27.2574 109.8482 27.0343 C 110.3667 26.804 109.908 25.6281 110.3684 25.221 C 110.8115 24.8293 111.5302 24.9399 112.1025 25.0397 C 112.6955 25.143 113.4169 25.2872 113.7498 25.8103 C 114.0697 26.3126 113.6926 27.6237 113.7498 27.6237 C 113.807 27.6237 113.7732 26.0062 114.27 25.8103 C 114.7486 25.6208 115.137 26.9981 115.7006 26.853 C 116.278 26.7052 116.1107 25.619 116.5676 25.221 C 117.0375 24.8112 117.6956 24.4993 118.3017 24.5863 C 118.8852 24.6697 119.2328 25.852 119.7322 25.6743 C 120.2516 25.4894 120.1198 24.4585 120.3392 23.861 C 120.4085 23.6724 120.5993 23.317 120.5993 23.317 "/>
  <path id="ID0.8615348758175969" fill="none" stroke="#FFB57C" stroke-width="1.7741375229215826" stroke-linecap="round" d="M 122.7235 53.4639 C 122.7235 53.4639 123.2125 57.8222 123.4171 57.9066 C 123.6217 57.9909 123.6824 54.1022 124.154 54.0532 C 124.6257 54.0042 125.191 57.6799 125.5846 57.6799 C 125.9783 57.6799 125.8179 53.6561 126.1048 54.0532 C 126.4048 54.4685 126.8852 59.3491 127.0586 59.7199 C 127.232 60.0907 126.8652 57.2837 127.0586 56.0932 C 127.1617 55.454 127.6776 54.0405 127.9256 54.3705 C 128.3886 54.9862 128.0799 58.3536 128.4891 57.9972 C 128.9625 57.5847 129.3033 53.9245 130.0064 52.5572 C 130.2353 52.1111 130.2804 53.7594 130.3532 54.3705 C 130.4972 55.5737 130.3914 57.4922 130.6567 57.9972 C 130.8223 58.3119 130.9385 56.2301 131.307 56.1839 C 131.6538 56.1395 131.7318 58.1133 132.0873 57.8159 C 132.8156 57.2066 133.0653 54.8529 133.4745 54.3705 C 133.7008 54.104 133.2092 56.095 133.4745 56.1839 C 133.7398 56.2727 134.2782 55.2718 134.5583 54.7332 C 134.8349 54.2001 135.0854 52.6932 135.1219 53.0105 C 135.1791 53.5119 135.0473 55.4576 134.775 56.6372 C 134.6355 57.242 133.8083 57.9301 133.908 58.2692 C 133.9809 58.5168 134.8999 58.2003 135.1219 57.8159 C 135.4444 57.2574 135.2207 56.5139 135.2953 55.8666 C 135.3655 55.26 135.3412 54.0822 135.5554 54.0532 C 135.7695 54.0242 136.1848 55.1267 136.2923 55.7306 C 136.3929 56.2963 136.1623 57.4532 136.1623 57.4532 "/>
  <path id="ID0.19138467824086547" fill="none" stroke="#FFB57C" stroke-width="1.7741375229215826" stroke-linecap="round" d="M 121.4663 53.3732 C 121.4663 53.3732 121.5278 56.8648 121.3362 57.4532 C 121.2209 57.8077 120.9027 56.1685 120.7727 55.5039 C 120.6565 54.9091 120.7198 54.2844 120.5993 53.6905 C 120.4727 53.0695 120.1623 51.5308 120.0357 51.8772 C 119.8077 52.5001 119.8883 54.5074 119.8189 55.8212 C 119.7869 56.4251 119.8198 57.6473 119.7322 57.6346 C 119.6447 57.6219 119.3048 56.3788 119.1687 55.7306 C 119.0438 55.1358 119.1167 54.5011 118.9519 53.9172 C 118.7802 53.3079 118.3355 51.8672 118.1716 52.1945 C 117.8933 52.7494 118.5661 54.7677 117.9982 55.8212 C 117.7138 56.348 116.5832 56.2347 116.2642 55.7306 C 115.6338 54.735 115.8254 53.3814 115.7006 52.1945 C 115.6373 51.5943 115.4093 50.4936 115.7006 50.3812 C 115.9945 50.2669 116.6612 51.1727 116.8711 51.7412 C 117.0792 52.3042 116.8329 52.9516 116.8711 53.5545 C 116.9482 54.7659 117.6583 56.0588 117.2179 57.1812 C 116.9985 57.7406 115.7977 57.5983 115.4838 57.0906 C 114.4512 55.4177 114.1946 53.3351 113.6631 51.4239 C 113.5001 50.8372 113.2356 49.6722 113.403 49.6105 C 113.5703 49.5489 114.3125 50.5145 114.5301 51.1065 C 114.7373 51.6714 114.5396 52.3206 114.6168 52.9199 C 114.6844 53.4421 114.9636 54.4612 114.9636 54.4612 "/>
  <path id="ID0.37762056151404977" fill="none" stroke="#FFB57C" stroke-width="1.1228182339296018" stroke-linecap="round" d="M 129.9491 41.858 C 129.9491 41.858 130.3627 43.5127 130.4749 44.3558 C 130.6228 45.476 130.6889 46.4588 130.7137 47.5126 C 130.756 49.2396 130.8707 51.1501 130.6943 52.9513 C 130.5583 54.3236 129.6204 57.1443 129.6204 57.1443 "/>
  <path id="ID0.6039587566629052" fill="url(#grad_18-0.5082184672355652,0,0,0.9066736102104187,111,23.6)" stroke="none" stroke-linecap="round" d="M 38.3248 95.2272 C 41.3354 81.1819 43.0304 67.8475 40.8659 69.8404 C 37.6437 73.3428 28.4541 87.02 28.4145 99.3072 C 28.3871 108.0857 38.3517 106.2333 40.8659 113.814 C 41.8599 118.8116 40.1111 124.1846 38.7313 128.5021 C 37.1706 132.2911 31.1258 138.6251 32.4802 136.9342 C 35.648 132.9213 46.3511 127.0179 47.9809 115.6274 C 49.2128 107.0122 39.0627 103.9095 38.3248 95.2272 Z " stroke-width="0.7349636201511138"/>
  <path id="ID0.5159274456091225" fill="url(#grad_19-.8668342232704163,0.018806608393788338,-0.017984110862016678,0.9064785242080688,-211.55,-20.45)" stroke="none" stroke-linecap="round" d="M 101.9681 78.9433 C 104.033 78.8983 108.1884 79.3041 108.2039 79.3507 C 108.2194 79.3991 104.0896 79.2786 102.0838 79.6713 C 99.9734 80.0853 97.6872 80.5807 95.8409 81.803 C 95.2099 82.2255 95.862 84.2366 95.4438 84.3337 C 94.9929 84.3311 93.9149 82.8087 94.1028 81.992 C 94.3511 80.9282 95.0101 80.3186 96.4346 79.7664 C 97.8582 79.2151 100.056 78.9825 101.9681 78.9433 Z " stroke-width="0.8870679715788303"/>
  <path id="ID0.09375834045931697" fill="#FFA56F" stroke="none" stroke-linecap="round" d="M 103.9086 69.4293 C 106.1003 70.0294 107.6583 70.6168 109.3545 71.5889 C 111.8497 73.0176 116.5947 76.542 116.5396 76.6482 C 116.4844 76.7544 111.314 73.8514 108.5185 72.9477 C 106.4755 72.2868 104.2665 72.15 102.1209 71.8539 C 100.5277 71.6714 98.8114 72.0955 97.3013 71.5109 C 96.4193 71.1697 95.2234 69.9595 95.3836 69.3745 C 95.5438 68.7895 96.5795 68.5034 98.1221 68.5131 C 99.6656 68.5231 101.7168 68.8291 103.9086 69.4293 Z " stroke-width="0.8870687697130678"/>
  <path id="ID0.09375834045931697" fill="#FFA56F" stroke="none" stroke-linecap="round" d="M 75.4133 67.4392 C 73.499 67.5345 71.6125 67.6801 69.6906 68.0334 C 67.157 68.4996 64.6257 69.1995 62.2304 69.992 C 60.7872 70.4639 58.2098 71.7213 58.195 71.8215 C 58.1909 71.9244 60.476 71.2872 61.6365 71.053 C 62.9961 70.7786 64.4582 70.42 65.9139 70.1994 C 67.9886 69.9574 70.0863 69.6304 72.2245 69.6662 C 74.1637 69.6975 76.0924 70.9169 77.9354 70.6345 C 79.1199 70.3588 80.5036 69.0526 80.6228 68.1177 C 80.6944 67.52 79.2573 67.5436 78.4822 67.4014 C 77.4632 67.2303 76.466 67.3915 75.4133 67.4392 Z " stroke-width="0.8601223414115169"/>
  <path id="ID0.11540623940527439" fill="none" stroke="#DBB6A0" stroke-width="0.8584501637656268" stroke-linecap="round" d="M 70.4762 120.0309 C 70.4762 120.0309 76.3218 122.8599 79.4934 123.626 C 82.4521 124.3234 85.5885 124.6892 88.6149 124.3607 C 93.4921 123.8313 103.0216 121.0692 103.0216 121.0692 "/>
  <path id="ID0.45782751915976405" fill="#FFD9A8" stroke="none" d="M 119.1912 103.6844 C 119.4002 103.6844 119.59 103.7479 119.7279 103.8503 C 119.8649 103.9528 119.9498 104.0951 119.9498 104.2511 C 119.9498 104.407 119.8649 104.5494 119.7279 104.6518 C 119.59 104.7543 119.4002 104.8178 119.1912 104.8178 C 118.9822 104.8178 118.7924 104.7543 118.6545 104.6518 C 118.5175 104.5494 118.4326 104.407 118.4326 104.2511 C 118.4326 104.0951 118.5175 103.9528 118.6545 103.8503 C 118.7924 103.7479 118.9822 103.6844 119.1912 103.6844 Z " stroke-width="0.8870687614607913"/>
  <path id="ID0.028513711411505938" fill="url(#grad_20-.8670207262039185,0,0,0.9066736102104187,-98.6,-15.95)" stroke="none" d="M 154.4833 88.7708 C 155.7397 88.0436 157.9592 87.0663 158.7318 88.1815 C 160.2881 90.4599 159.93 93.7666 159.9889 96.4775 C 160.0219 98.0098 159.9386 99.7833 159.004 100.9637 C 156.6093 103.9857 151.1835 108.5163 150.1482 108.7176 C 149.2344 108.8382 153.2296 104.2323 154.0498 101.7816 C 154.5224 100.3708 154.486 98.7533 154.1799 97.2935 C 153.7993 95.4811 151.7826 94.1175 151.7956 92.2615 C 151.9057 90.7764 153.3172 89.4952 154.4833 88.7708 Z " stroke-width="0.8870687614607913"/>
  <path id="ID0.45782751915976405" fill="#FFD9A8" stroke="none" d="M 59.2412 108.6844 C 59.4502 108.6844 59.64 108.7479 59.7779 108.8503 C 59.9149 108.9528 59.9998 109.0951 59.9998 109.2511 C 59.9998 109.407 59.9149 109.5494 59.7779 109.6518 C 59.64 109.7543 59.4502 109.8178 59.2412 109.8178 C 59.0322 109.8178 58.8424 109.7543 58.7045 109.6518 C 58.5675 109.5494 58.4826 109.407 58.4826 109.2511 C 58.4826 109.0951 58.5675 108.9528 58.7045 108.8503 C 58.8424 108.7479 59.0322 108.6844 59.2412 108.6844 Z " stroke-width="0.8870687614607913"/>
  <path id="ID0.45782751915976405" fill="#FFD9A8" stroke="none" d="M 55.8412 104.1344 C 56.0502 104.1344 56.24 104.1979 56.3779 104.3003 C 56.5149 104.4028 56.5998 104.5451 56.5998 104.7011 C 56.5998 104.857 56.5149 104.9994 56.3779 105.1018 C 56.24 105.2043 56.0502 105.2678 55.8412 105.2678 C 55.6322 105.2678 55.4424 105.2043 55.3045 105.1018 C 55.1675 104.9994 55.0826 104.857 55.0826 104.7011 C 55.0826 104.5451 55.1675 104.4028 55.3045 104.3003 C 55.4424 104.1979 55.6322 104.1344 55.8412 104.1344 Z " stroke-width="0.8870687614607913"/>
  <path id="ID0.45782751915976405" fill="#FFD9A8" stroke="none" d="M 63.5912 103.9344 C 63.8002 103.9344 63.99 103.9979 64.1279 104.1003 C 64.2649 104.2028 64.3498 104.3451 64.3498 104.5011 C 64.3498 104.657 64.2649 104.7994 64.1279 104.9018 C 63.99 105.0043 63.8002 105.0678 63.5912 105.0678 C 63.3822 105.0678 63.1924 105.0043 63.0545 104.9018 C 62.9175 104.7994 62.8326 104.657 62.8326 104.5011 C 62.8326 104.3451 62.9175 104.2028 63.0545 104.1003 C 63.1924 103.9979 63.3822 103.9344 63.5912 103.9344 Z " stroke-width="0.8870687614607913"/>
  <path id="ID0.45782751915976405" fill="#FFD9A8" stroke="none" d="M 64.4412 106.8344 C 64.6502 106.8344 64.84 106.8979 64.9779 107.0003 C 65.1149 107.1028 65.1998 107.2451 65.1998 107.4011 C 65.1998 107.557 65.1149 107.6994 64.9779 107.8018 C 64.84 107.9043 64.6502 107.9678 64.4412 107.9678 C 64.2322 107.9678 64.0424 107.9043 63.9045 107.8018 C 63.7675 107.6994 63.6826 107.557 63.6826 107.4011 C 63.6826 107.2451 63.7675 107.1028 63.9045 107.0003 C 64.0424 106.8979 64.2322 106.8344 64.4412 106.8344 Z " stroke-width="0.8870687614607913"/>
  <path id="ID0.45782751915976405" fill="#FFD9A8" stroke="none" d="M 54.0912 107.2844 C 54.3002 107.2844 54.49 107.3479 54.6279 107.4503 C 54.7649 107.5528 54.8498 107.6951 54.8498 107.8511 C 54.8498 108.007 54.7649 108.1494 54.6279 108.2518 C 54.49 108.3543 54.3002 108.4178 54.0912 108.4178 C 53.8822 108.4178 53.6924 108.3543 53.5545 108.2518 C 53.4175 108.1494 53.3326 108.007 53.3326 107.8511 C 53.3326 107.6951 53.4175 107.5528 53.5545 107.4503 C 53.6924 107.3479 53.8822 107.2844 54.0912 107.2844 Z " stroke-width="0.8870687614607913"/>
  <path id="ID0.45782751915976405" fill="#FFD9A8" stroke="none" d="M 67.7412 100.6844 C 67.9502 100.6844 68.14 100.7479 68.2779 100.8503 C 68.4149 100.9528 68.4998 101.0951 68.4998 101.2511 C 68.4998 101.407 68.4149 101.5494 68.2779 101.6518 C 68.14 101.7543 67.9502 101.8178 67.7412 101.8178 C 67.5322 101.8178 67.3424 101.7543 67.2045 101.6518 C 67.0675 101.5494 66.9826 101.407 66.9826 101.2511 C 66.9826 101.0951 67.0675 100.9528 67.2045 100.8503 C 67.3424 100.7479 67.5322 100.6844 67.7412 100.6844 Z " stroke-width="0.8870687614607913"/>
  <path id="ID0.45782751915976405" fill="#FFD9A8" stroke="none" d="M 106.2412 103.4844 C 106.4502 103.4844 106.64 103.5479 106.7779 103.6503 C 106.9149 103.7528 106.9998 103.8951 106.9998 104.0511 C 106.9998 104.207 106.9149 104.3494 106.7779 104.4518 C 106.64 104.5543 106.4502 104.6178 106.2412 104.6178 C 106.0322 104.6178 105.8424 104.5543 105.7045 104.4518 C 105.5675 104.3494 105.4826 104.207 105.4826 104.0511 C 105.4826 103.8951 105.5675 103.7528 105.7045 103.6503 C 105.8424 103.5479 106.0322 103.4844 106.2412 103.4844 Z " stroke-width="0.8870687614607913"/>
  <path id="ID0.45782751915976405" fill="#FFD9A8" stroke="none" d="M 116.7412 106.8344 C 116.9502 106.8344 117.14 106.8979 117.2779 107.0003 C 117.4149 107.1028 117.4998 107.2451 117.4998 107.4011 C 117.4998 107.557 117.4149 107.6994 117.2779 107.8018 C 117.14 107.9043 116.9502 107.9678 116.7412 107.9678 C 116.5322 107.9678 116.3424 107.9043 116.2045 107.8018 C 116.0675 107.6994 115.9826 107.557 115.9826 107.4011 C 115.9826 107.2451 116.0675 107.1028 116.2045 107.0003 C 116.3424 106.8979 116.5322 106.8344 116.7412 106.8344 Z " stroke-width="0.8870687614607913"/>
  <path id="ID0.45782751915976405" fill="#FFD9A8" stroke="none" d="M 123.2412 100.6844 C 123.4502 100.6844 123.64 100.7479 123.7779 100.8503 C 123.9149 100.9528 123.9998 101.0951 123.9998 101.2511 C 123.9998 101.407 123.9149 101.5494 123.7779 101.6518 C 123.64 101.7543 123.4502 101.8178 123.2412 101.8178 C 123.0322 101.8178 122.8424 101.7543 122.7045 101.6518 C 122.5675 101.5494 122.4826 101.407 122.4826 101.2511 C 122.4826 101.0951 122.5675 100.9528 122.7045 100.8503 C 122.8424 100.7479 123.0322 100.6844 123.2412 100.6844 Z " stroke-width="0.8870687614607913"/>
  <path id="ID0.45782751915976405" fill="#FFD9A8" stroke="none" d="M 113.3912 102.3344 C 113.6002 102.3344 113.79 102.3979 113.9279 102.5003 C 114.0649 102.6028 114.1498 102.7451 114.1498 102.9011 C 114.1498 103.057 114.0649 103.1994 113.9279 103.3018 C 113.79 103.4043 113.6002 103.4678 113.3912 103.4678 C 113.1822 103.4678 112.9924 103.4043 112.8545 103.3018 C 112.7175 103.1994 112.6326 103.057 112.6326 102.9011 C 112.6326 102.7451 112.7175 102.6028 112.8545 102.5003 C 112.9924 102.3979 113.1822 102.3344 113.3912 102.3344 Z " stroke-width="0.8870687614607913"/>
  <path id="ID0.6621946734376252" fill="#F9B079" stroke="none" stroke-linecap="round" d="M 138.3298 69.3307 C 137.2547 66.782 131.3893 64.9242 131.5237 64.888 C 131.6572 64.8517 138.4538 66.0358 139.7604 68.8773 C 141.0661 71.4795 137.3501 74.3301 137.4628 77.2641 C 137.527 78.9006 139.4786 79.8689 140.4974 81.0267 C 143.447 84.3833 149.9887 90.9766 149.6011 90.8642 C 149.2135 90.7517 141.08 83.6307 136.8559 79.8934 C 135.8892 78.9595 135.1418 78.6776 134.9918 77.7174 C 134.8201 76.6013 135.6247 75.739 135.9889 74.7707 C 136.705 72.8631 139.0919 71.144 138.3298 69.3307 Z " stroke-width="0.8870687614607913"/>
  <path id="ID0.8755627274513245" fill="none" stroke="#FFB57C" stroke-width="1.7741375229215826" stroke-linecap="round" d="M 90.6437 23.2716 C 90.6437 23.2716 90.7503 24.7822 90.7737 25.5383 C 90.7937 26.1875 90.5475 27.7397 90.7737 27.4877 C 91.1197 27.1014 91.509 24.0541 92.0743 24.0876 C 92.6396 24.1212 92.5667 27.3172 93.0713 27.6237 C 93.4537 27.8567 93.7103 26.0424 93.9384 25.221 C 94.1022 24.6326 93.8395 23.5554 94.2418 23.4076 C 94.6415 23.2608 95.2103 24.1303 95.5424 24.6316 C 95.8779 25.1385 95.9837 26.3924 96.1926 26.3543 C 96.4016 26.3162 96.3305 25.0578 96.5394 24.4503 C 96.7406 23.8655 96.9911 22.7748 97.4065 22.8183 C 97.8582 22.8654 97.6917 24.4793 98.2735 24.6316 C 98.8188 24.774 99.1084 23.6642 99.6607 23.4076 C 100.1922 23.1601 100.8893 23.482 101.3947 23.181 C 101.9046 22.8781 101.9731 22.0413 102.4785 21.7303 C 103.023 21.3957 103.7782 21.072 104.3426 21.3676 C 104.8802 21.6487 105.3302 22.7712 105.0796 23.0903 C 104.8316 23.4058 103.8432 22.9788 103.3455 22.637 C 103.1773 22.5218 103.5623 22.0476 103.5623 22.0476 "/>
  <path id="ID0.06290462240576744" fill="none" stroke="#FFB57C" stroke-width="1.7741375229215826" stroke-linecap="round" d="M 80.803 20.6876 C 80.803 20.6876 80.4206 21.8953 80.2394 22.501 C 80.06 23.103 79.7496 23.6851 79.7192 24.3143 C 79.6898 24.929 79.9611 25.522 80.066 26.1277 C 80.1051 26.3525 80.1527 26.8077 80.1527 26.8077 "/>
  <path id="ID0.00464507145807147" fill="#DEC7B0" stroke="none" stroke-linecap="round" d="M 158.5998 87.3961 C 159.8275 87.6881 159.6307 89.8577 159.9004 91.1588 C 160.1353 92.294 160.1223 93.4844 160.1171 94.6495 C 160.1128 95.7983 160.0374 97.015 159.9004 98.1855 C 159.831 98.7857 159.6923 100.8684 159.5969 99.9989 C 159.0654 96.5037 159.4885 92.8352 158.6432 89.4361 C 158.4316 88.5866 157.3461 88.4605 156.649 88.4841 C 155.4673 88.5249 152.9261 89.8051 153.2677 89.6175 C 153.6101 89.4298 156.7219 86.9664 158.5998 87.3961 Z " stroke-width="0.8870687614607913"/>
  <path id="ID0.3093227776698768" fill="#FFE5CB" stroke="none" stroke-linecap="round" d="M 153.0796 89.8155 C 152.6178 89.5389 152.7342 88.6547 153.1416 88.8407 C 154.8532 89.5454 156.1893 88.6906 158.049 90.4466 C 159.8543 92.1532 160.1847 94.3971 160.6782 96.0909 C 160.8253 96.511 159.6849 95.1919 159.3317 94.678 C 158.5346 93.5171 158.5691 92.146 157.4937 91.2814 C 155.7599 89.9612 154.6829 90.7546 153.0796 89.8155 Z " stroke-width="0.6736643539942194"/>
  <path id="ID0.7399692763574421" fill="#F9B079" stroke="none" stroke-linecap="round" d="M 157.2043 82.7073 C 158.1048 82.5015 162.1978 78.9428 163.7016 82.4807 C 165.9349 86.859 168.316 97.1769 166.0859 101.5208 C 158.555 116.1926 146.7869 115.4428 139.2028 130.5344 C 136.9 135.1239 142.1339 150.5048 142.0242 150.4812 C 141.9157 150.4576 135.9967 135.9363 138.1299 130.5344 C 144.0191 115.6277 155.1403 115.2206 161.7544 101.5208 C 163.8017 97.2803 161.932 88.3178 160.6616 82.7073 C 160.1628 80.5286 156.6333 82.8216 157.2043 82.7073 Z " stroke-width="0.6999898197978355"/>
  <path id="ID0.7399692763574421" fill="#F9B079" stroke="none" stroke-linecap="round" d="M 162.4043 86.9573 C 163.3048 86.7515 167.5159 82.9435 168.9016 86.7307 C 170.6874 91.5968 171.5907 101.3181 169.6367 105.9068 C 163.6771 119.8007 152.6994 120.1071 148.178 136.2804 C 146.098 143.7233 155.5987 157.5401 155.5494 157.5872 C 155.41 157.4829 144.6643 144.551 146.6679 135.827 C 150.4339 119.428 161.9684 120.1452 167.471 106.3601 C 169.3248 101.436 167.2695 92.5887 165.8616 86.9573 C 165.2985 84.7124 161.8333 87.0716 162.4043 86.9573 Z " stroke-width="0.6999898197978355"/>
  <path id="ID0.5159274456091225" fill="url(#grad_21-0.8014374375343323,-0.13017036020755768,-0.13543838262557983,0.8955183029174805,377,34.7)" stroke="none" stroke-linecap="round" d="M 71.6088 78.7764 C 69.7148 78.378 65.82 78.0647 65.7978 78.1079 C 65.7754 78.1529 69.5989 78.7427 71.3802 79.4733 C 73.2543 80.2429 75.2766 81.1228 76.7719 82.6428 C 77.2822 83.1671 76.3444 85.0351 76.7133 85.2024 C 77.1289 85.2772 78.377 83.9633 78.3409 83.1271 C 78.2906 82.0371 77.7859 81.3239 76.5667 80.5359 C 75.3481 79.749 73.3631 79.143 71.6088 78.7764 Z " stroke-width="0.8600712755361919"/>
  <path id="ID0.25654474878683686" fill="#FEE5CA" stroke="none" d="M 85 121.5 C 85.621 121.5 86.183 121.808 86.591 122.306 C 86.998 122.804 87.25 123.491 87.25 124.25 C 87.25 125.009 86.998 125.696 86.591 126.194 C 86.183 126.692 85.621 127 85 127 C 84.379 127 83.817 126.692 83.409 126.194 C 83.002 125.696 82.75 125.009 82.75 124.25 C 82.75 123.491 83.002 122.804 83.409 122.306 C 83.817 121.808 84.379 121.5 85 121.5 Z " stroke-width="1"/>
  <path id="ID0.6323743984103203" fill="#EDC1AD" stroke="none" stroke-linecap="round" d="M 84.2 110.6 C 85.031 110.544 85.904 110.419 86.611 110.593 C 87.097 110.719 87.54 110.952 87.6 111.3 C 87.643 111.578 87.161 111.687 86.95 111.8 C 86.025 112.289 85.161 113.114 84.2 113.1 C 83.195 113.086 82.379 112.284 81.45 111.8 C 81.258 111.682 80.802 111.564 80.85 111.3 C 80.921 110.955 81.353 110.719 81.839 110.593 C 82.546 110.419 83.407 110.544 84.2 110.6 Z " stroke-width="1"/>
  <g id="ID0.8034474812448025">
    <path id="ID0.6288162106648088" fill="#FFA56F" stroke="none" stroke-linecap="round" d="M 123.9003 90.1929 C 124.0364 90.2599 123.5206 90.609 123.5102 90.8729 C 123.4946 91.2537 123.5986 91.6508 123.7269 92.0062 C 123.9081 92.3607 124.6026 92.9782 124.4205 92.9582 C 124.1821 92.9337 123.3454 92.2719 122.8582 91.8566 C 122.6544 91.6834 122.4264 91.4368 122.4264 91.1675 C 122.4264 90.8982 122.5911 90.6553 122.8582 90.4785 C 123.1252 90.3017 123.6922 90.0931 123.9003 90.1929 Z " stroke-width="0.8870687614607913"/>
    <path id="ID0.7154157999902964" fill="#FFA56F" stroke="none" stroke-linecap="round" d="M 120.0074 91.4661 C 119.8344 91.3689 120.7737 91.0567 120.5834 90.9652 C 120.0681 90.7201 119.0541 91.1362 118.5199 90.8659 C 118.3013 90.7542 119.3293 90.2617 119.1406 90.1386 C 118.7946 89.9139 117.9293 90.3948 117.5193 90.2177 C 117.3332 90.1367 118.2095 89.7883 118.0552 89.7006 C 117.5685 89.4075 116.7473 89.7722 116.2373 89.4559 C 116.0326 89.3284 116.813 88.9745 116.6462 88.7899 C 116.2575 88.3632 114.9447 88.1063 114.9747 88.0666 C 115.0425 88.0607 116.4197 88.3642 117.1375 88.5619 C 118.0673 88.8109 118.8938 89.0124 119.8988 89.418 C 120.9039 89.8235 121.6372 90.27 122.4811 90.718 C 122.8586 90.9202 123.7475 91.1245 123.5993 91.2533 C 123.3804 91.4828 122.3022 91.4857 121.6752 91.5035 C 121.1194 91.5208 120.4233 91.7004 120.0074 91.4661 Z " stroke-width="0.8870687485016234"/>
    <path id="ID0.8399942205287516" fill="#FFA56F" stroke="none" stroke-linecap="round" d="M 112.3816 85.4567 C 115.6737 85.7495 119.0256 85.9436 122.309 86.6353 C 123.13 86.8085 121.6526 87.5819 122.0489 87.6327 C 123.5488 87.8177 125.4771 86.7269 126.6441 87.0887 C 127.114 87.2365 125.1146 88.4242 125.5169 88.5394 C 126.2756 88.7579 128.366 87.4251 128.8116 87.7234 C 129.1654 87.9636 126.9519 88.99 127.381 89.6727 C 128.3235 91.1651 132.0109 92.0654 131.5861 92.3927 C 131.1612 92.72 127.2597 91.9131 125.1268 91.5314 C 123.2549 91.1578 121.3969 90.6383 119.5779 90.126 C 117.0019 89.4016 114.563 88.0035 111.9047 87.7234 C 108.2095 87.4069 104.4579 87.7814 100.7635 88.358 C 98.0671 88.7796 93.9799 90.7952 92.917 90.806 C 92.1999 90.8097 95.2007 89.2402 96.385 88.5394 C 97.3466 87.9691 98.1156 87.4613 99.0728 87.1794 C 101.5837 86.4431 104.4137 85.7858 107.1361 85.4567 C 108.8459 85.25 110.6146 85.356 112.3816 85.4567 Z " stroke-width="0.8870687614607913"/>
    <path id="ID0.6288162106648088" fill="#FFA56F" stroke="none" stroke-linecap="round" d="M 125.6003 90.4429 C 125.687 90.5372 125.2206 90.859 125.2102 91.1229 C 125.1946 91.5037 125.2986 91.9008 125.4269 92.2562 C 125.6081 92.6107 126.3026 93.2282 126.1205 93.2082 C 125.8821 93.1837 125.0454 92.5219 124.5582 92.1066 C 124.3544 91.9334 124.0735 91.6841 124.1264 91.4175 C 124.1949 91.0857 124.6284 90.9089 124.9501 90.7149 C 125.1261 90.5798 125.4997 90.3395 125.6003 90.4429 Z " stroke-width="0.8870687614607913"/>
    <path id="ID0.6288162106648088" fill="#FFA56F" stroke="none" stroke-linecap="round" d="M 126.8191 90.7342 C 126.9261 90.769 126.58 91.0821 126.5984 91.2778 C 126.6244 91.5603 126.7403 91.842 126.8699 92.0903 C 127.0385 92.3322 127.6116 92.7127 127.4754 92.7176 C 127.2971 92.7253 126.6148 92.3273 126.2145 92.0736 C 126.0471 91.9679 125.8547 91.8106 125.8281 91.612 C 125.8016 91.4134 125.8991 91.2164 126.0786 91.0572 C 126.2581 90.898 126.6558 90.6831 126.8191 90.7342 Z " stroke-width="0.6605571906619657"/>
  </g>
  <g id="ID0.8034474812448025">
    <path id="ID0.6288162106648088" fill="#FFA56F" stroke="none" stroke-linecap="round" d="M 54.6907 87.2504 C 54.5751 87.3073 54.9766 87.6673 54.9691 87.9196 C 54.9588 88.2839 54.8494 88.6574 54.7227 88.9899 C 54.5527 89.3188 53.9461 89.8718 54.0965 89.8623 C 54.2934 89.8513 55.0192 89.2633 55.4436 88.8924 C 55.6211 88.7378 55.8229 88.5143 55.8393 88.2574 C 55.8556 88.0004 55.7354 87.7599 55.5273 87.5773 C 55.3192 87.3946 54.8673 87.166 54.6907 87.2504 Z " stroke-width="0.7932378986561234"/>
    <path id="ID0.7154157999902964" fill="#FFA56F" stroke="none" stroke-linecap="round" d="M 57.8063 88.6206 C 57.954 88.5369 57.2032 88.19 57.3647 88.1127 C 57.8018 87.9056 58.6074 88.3555 59.0615 88.1254 C 59.2474 88.0302 58.435 87.5066 58.5971 87.399 C 58.8942 87.2027 59.5741 87.7067 59.9208 87.559 C 60.0782 87.4914 59.3813 87.1133 59.5131 87.0376 C 59.9296 86.7832 60.5804 87.1741 61.0175 86.8989 C 61.193 86.7878 60.575 86.4094 60.7229 86.242 C 61.0673 85.855 62.1586 85.6782 62.1364 85.6388 C 62.0812 85.6297 60.9343 85.8475 60.3342 85.9987 C 59.5572 86.1879 58.8677 86.3372 58.0196 86.6718 C 57.1714 87.0064 56.5435 87.3942 55.8248 87.7778 C 55.5032 87.9511 54.7624 88.0997 54.876 88.2304 C 55.0414 88.4608 55.9247 88.5198 56.4374 88.5694 C 56.8918 88.6149 57.4512 88.8226 57.8063 88.6206 Z " stroke-width="0.7899400339067594"/>
    <path id="ID0.8399942205287516" fill="#FFA56F" stroke="none" stroke-linecap="round" d="M 64.4197 83.2833 C 61.7044 83.3912 58.9461 83.4016 56.2137 83.8906 C 55.5304 84.0131 56.694 84.8282 56.3663 84.8559 C 55.126 84.9543 53.6122 83.8128 52.634 84.0972 C 52.24 84.2138 53.8061 85.4515 53.4695 85.5404 C 52.8346 85.7094 51.2027 84.3285 50.8194 84.5899 C 50.515 84.8008 52.2664 85.8956 51.8733 86.5248 C 51.0104 87.8999 47.9343 88.5668 48.2625 88.9013 C 48.5908 89.2359 51.8367 88.6692 53.6075 88.4161 C 55.164 88.1572 56.718 87.7583 58.2396 87.3642 C 60.3943 86.8072 62.4776 85.6001 64.6728 85.4713 C 67.7198 85.362 70.7711 85.9149 73.7632 86.6578 C 75.9471 87.2007 79.1737 89.3373 80.044 89.4031 C 80.6313 89.4439 78.2678 87.7897 77.3399 87.0591 C 76.5867 86.4648 75.9873 85.9401 75.2202 85.6211 C 73.2075 84.7876 70.9285 84.0128 68.7178 83.5568 C 67.3293 83.2704 65.8736 83.2794 64.4197 83.2833 Z " stroke-width="0.7932378986561234"/>
    <path id="ID0.6288162106648088" fill="#FFA56F" stroke="none" stroke-linecap="round" d="M 53.2826 87.4003 C 53.2058 87.4858 53.5685 87.8173 53.561 88.0696 C 53.5506 88.4338 53.4413 88.8074 53.3146 89.1399 C 53.1445 89.4687 52.538 90.0218 52.6884 90.0122 C 52.8853 90.0013 53.611 89.4133 54.0355 89.0424 C 54.2129 88.8878 54.4583 88.6645 54.4311 88.4073 C 54.3951 88.0871 54.0507 87.8957 53.7989 87.6938 C 53.6629 87.5557 53.3713 87.3069 53.2826 87.4003 Z " stroke-width="0.7932378986561234"/>
    <path id="ID0.6288162106648088" fill="#FFA56F" stroke="none" stroke-linecap="round" d="M 52.2693 87.5671 C 52.1795 87.5948 52.444 87.9116 52.4171 88.0974 C 52.3786 88.3656 52.2666 88.6284 52.1453 88.8586 C 51.9924 89.0807 51.4998 89.4139 51.6111 89.4257 C 51.7567 89.4423 52.3399 89.0981 52.6833 88.8769 C 52.8269 88.7847 52.9942 88.6446 53.028 88.4564 C 53.0618 88.2683 52.9938 88.0752 52.8564 87.914 C 52.719 87.7527 52.4062 87.5269 52.2693 87.5671 Z " stroke-width="0.590191261837547"/>
  </g>
</svg>