<svg version="1.1" xmlns="http://www.w3.org/2000/svg" xmlns:xlink="http://www.w3.org/1999/xlink" width="186.7546" height="555.96856" viewBox="0,0,186.7546,555.96856"><defs><linearGradient x1="157.4173" y1="172.4821" x2="157.4173" y2="235.4361" gradientUnits="userSpaceOnUse" id="color-1"><stop offset="0" stop-color="#f56258"/><stop offset="1" stop-color="#f56258" stop-opacity="0"/></linearGradient><linearGradient x1="218.4551" y1="141.3071" x2="218.4551" y2="162.9066" gradientUnits="userSpaceOnUse" id="color-2"><stop offset="0" stop-color="#ead2ba"/><stop offset="1" stop-color="#ead2ba" stop-opacity="0"/></linearGradient><linearGradient x1="237.5158" y1="104.4069" x2="237.5158" y2="132.4901" gradientUnits="userSpaceOnUse" id="color-3"><stop offset="0" stop-color="#ffd8cb"/><stop offset="1" stop-color="#ffd8cb" stop-opacity="0"/></linearGradient><linearGradient x1="209.5568" y1="103.2541" x2="209.5568" y2="131.4409" gradientUnits="userSpaceOnUse" id="color-4"><stop offset="0" stop-color="#ffd8cb"/><stop offset="1" stop-color="#ffd8cb" stop-opacity="0"/></linearGradient><radialGradient cx="192.5139" cy="111.6178" r="14.2299" gradientUnits="userSpaceOnUse" id="color-5"><stop offset="0" stop-color="#ffd8cb"/><stop offset="1" stop-color="#ffd8cb" stop-opacity="0"/></radialGradient><radialGradient cx="253.5547" cy="110.453" r="16.3682" gradientUnits="userSpaceOnUse" id="color-6"><stop offset="0" stop-color="#ffd8cb"/><stop offset="1" stop-color="#ffd8cb" stop-opacity="0"/></radialGradient><radialGradient cx="227.082" cy="115.0766" r="46.9331" gradientUnits="userSpaceOnUse" id="color-7"><stop offset="0" stop-color="#ffe5cb"/><stop offset="1" stop-color="#ffe5cb" stop-opacity="0"/></radialGradient><linearGradient x1="248.0115" y1="14.3731" x2="248.0115" y2="38.3589" gradientUnits="userSpaceOnUse" id="color-8"><stop offset="0" stop-color="#ffd6a2"/><stop offset="1" stop-color="#ffd6a2" stop-opacity="0"/></linearGradient><radialGradient cx="239.3941" cy="18.8154" r="26.7889" gradientUnits="userSpaceOnUse" id="color-9"><stop offset="0" stop-color="#ffd6a2"/><stop offset="1" stop-color="#ffd6a2" stop-opacity="0"/></radialGradient><linearGradient x1="186.3433" y1="53.5139" x2="186.3433" y2="79.3219" gradientUnits="userSpaceOnUse" id="color-10"><stop offset="0" stop-color="#ffd6bd" stop-opacity="0"/><stop offset="1" stop-color="#ffd6bd"/></linearGradient><radialGradient cx="219.8989" cy="20.3388" r="16.63" gradientUnits="userSpaceOnUse" id="color-11"><stop offset="0" stop-color="#ffd6a2"/><stop offset="1" stop-color="#ffd6a2" stop-opacity="0"/></radialGradient><linearGradient x1="228.7661" y1="51.1571" x2="228.7661" y2="90.2944" gradientUnits="userSpaceOnUse" id="color-12"><stop offset="0" stop-color="#ffd6bd" stop-opacity="0"/><stop offset="1" stop-color="#ffd6bd"/></linearGradient><linearGradient x1="161.7195" y1="55.2625" x2="175.4947" y2="55.2625" gradientUnits="userSpaceOnUse" id="color-13"><stop offset="0" stop-color="#ffd6bd" stop-opacity="0"/><stop offset="1" stop-color="#ffd6bd"/></linearGradient><linearGradient x1="162.1141" y1="36.8736" x2="184.6351" y2="36.8736" gradientUnits="userSpaceOnUse" id="color-14"><stop offset="0" stop-color="#ffb57c"/><stop offset="1" stop-color="#ffb57c" stop-opacity="0"/></linearGradient><linearGradient x1="248.0989" y1="13.8916" x2="248.0989" y2="30.907" gradientUnits="userSpaceOnUse" id="color-15"><stop offset="0" stop-color="#f9a674"/><stop offset="1" stop-color="#f9a674" stop-opacity="0"/></linearGradient><linearGradient x1="201.8809" y1="10.3387" x2="201.8809" y2="26.22" gradientUnits="userSpaceOnUse" id="color-16"><stop offset="0" stop-color="#f6ae77"/><stop offset="1" stop-color="#f6ae77" stop-opacity="0"/></linearGradient><linearGradient x1="192.5034" y1="9.3609" x2="192.5034" y2="23.815" gradientUnits="userSpaceOnUse" id="color-17"><stop offset="0" stop-color="#fff6b8"/><stop offset="1" stop-color="#fff6b8" stop-opacity="0"/></linearGradient><linearGradient x1="181.0845" y1="78.6418" x2="161.4144" y2="78.6418" gradientUnits="userSpaceOnUse" id="color-18"><stop offset="0" stop-color="#ffd6bd"/><stop offset="1" stop-color="#ffd6bd" stop-opacity="0"/></linearGradient><radialGradient cx="245.0407" cy="97.48" r="3.8504" gradientUnits="userSpaceOnUse" id="color-19"><stop offset="0" stop-color="#83ff71"/><stop offset="1" stop-color="#83ff71" stop-opacity="0"/></radialGradient><linearGradient x1="236.3443" y1="92.6592" x2="236.3443" y2="100.826" gradientUnits="userSpaceOnUse" id="color-20"><stop offset="0" stop-color="#507f55"/><stop offset="1" stop-color="#507f55" stop-opacity="0"/></linearGradient><radialGradient cx="244.975" cy="95.5362" r="2.2074" gradientUnits="userSpaceOnUse" id="color-21"><stop offset="0" stop-color="#ffffff"/><stop offset="1" stop-color="#ffffff" stop-opacity="0"/></radialGradient><linearGradient x1="239.363" y1="101.5777" x2="239.363" y2="106.6575" gradientUnits="userSpaceOnUse" id="color-22"><stop offset="0" stop-color="#71ff9e"/><stop offset="1" stop-color="#71ff9e" stop-opacity="0"/></linearGradient><linearGradient x1="227.149" y1="87.7577" x2="227.0287" y2="93.303" gradientUnits="userSpaceOnUse" id="color-23"><stop offset="0" stop-color="#edc5b8"/><stop offset="1" stop-color="#edc5b8" stop-opacity="0"/></linearGradient><linearGradient x1="283.0132" y1="96.6768" x2="283.0132" y2="117.7199" gradientUnits="userSpaceOnUse" id="color-24"><stop offset="0" stop-color="#f0d7bf"/><stop offset="1" stop-color="#cfbaa4"/></linearGradient><radialGradient cx="197.4906" cy="96.3743" r="3.2706" gradientUnits="userSpaceOnUse" id="color-25"><stop offset="0" stop-color="#83ff71"/><stop offset="1" stop-color="#83ff71" stop-opacity="0"/></radialGradient><linearGradient x1="205.06" y1="92.6576" x2="204.3654" y2="100.2482" gradientUnits="userSpaceOnUse" id="color-26"><stop offset="0" stop-color="#507f55"/><stop offset="1" stop-color="#507f55" stop-opacity="0"/></linearGradient><radialGradient cx="197.6228" cy="94.795" r="1.8841" gradientUnits="userSpaceOnUse" id="color-27"><stop offset="0" stop-color="#ffffff"/><stop offset="1" stop-color="#ffffff" stop-opacity="0"/></radialGradient><linearGradient x1="201.8853" y1="99.9139" x2="201.4991" y2="104.1341" gradientUnits="userSpaceOnUse" id="color-28"><stop offset="0" stop-color="#71ff9e"/><stop offset="1" stop-color="#71ff9e" stop-opacity="0"/></linearGradient><linearGradient x1="211.8407" y1="88.9349" x2="210.9524" y2="94.4037" gradientUnits="userSpaceOnUse" id="color-29"><stop offset="0" stop-color="#edc5b8"/><stop offset="1" stop-color="#edc5b8" stop-opacity="0"/></linearGradient></defs><g transform="translate(-141.81016,-9.36087)"><g data-paper-data="{&quot;isPaintingLayer&quot;:true}" fill-rule="nonzero" stroke-linejoin="miter" stroke-miterlimit="10" stroke-dasharray="" stroke-dashoffset="0" style="mix-blend-mode: normal"><g stroke-linecap="round"><path d="M164.4333,433.7827c-1.7872,0.0843 -4.2512,2.2961 -5.5366,1.1617c-1.2275,-1.217 0.4538,-3.9245 0.508,-5.8655c0.0835,-2.7535 0.1161,-5.6918 0.6121,-8.5857c0.3508,-5.6281 -2.2441,-12.8985 1.9906,-16.9833c3.3775,-3.3909 10.1955,-2.3237 14.4539,0.5529c3.3513,2.2798 1.8564,7.9149 2.7171,11.8749c0.3946,1.8104 0.9851,3.7067 1.3318,5.6566c0.5305,4.8883 2.5537,10.26 1.2986,14.8447c-0.4651,1.6935 -3.2175,-2.2703 -4.9978,-2.4729c-4.1402,-0.7022 -8.2607,-0.3718 -12.3777,-0.1834z" fill="#ffe9cc" stroke="none" stroke-width="0.50485"/><path d="M161.1171,470.9492c-3.393,-0.1049 -6.9919,-1.7303 -9.8888,-3.822c-1.5198,-1.2645 -2.3637,-3.5315 -2.4556,-5.5496c-0.151,-3.4016 0.1843,-7.3681 1.9908,-10.5424c0.4952,-0.9339 2.0998,2.7735 3.2439,1.1996c4.5762,-6.2947 5.343,-15.2931 10.9619,-20.6603c2.8476,-2.5111 8.2072,-2.1883 11.4359,-0.1806c4.3008,2.6771 7.8485,7.6291 8.1491,12.5943c0.6455,7.5107 -2.9677,14.7713 -5.5433,21.8344c-0.6343,1.7379 -1.5553,1.6239 -2.846,2.024c-4.8897,1.5016 -9.9048,3.2534 -15.0479,3.1026z" fill="#ffe9cc" stroke="none" stroke-width="0.50485"/><path d="M150.3601,500.5638c-0.8274,0.3391 -2.0726,-2.0356 -2.2521,-3.2554c-0.5053,-5.1187 0.1435,-10.3179 0.2551,-15.2191c0.1581,-7.0424 -0.8036,-14.2817 0.7377,-21.1672c0.3791,-1.7112 3.4043,-0.734 4.3094,0.3714c1.208,1.5522 0.9428,3.6224 0.9694,5.3484c-0.1106,5.2745 -0.8769,10.4933 -1.2217,15.5516c-0.2958,4.3893 -0.479,9.6823 -0.9856,13.0081c-0.5065,3.3253 -0.7184,4.8977 -1.8122,5.3622z" fill="#ffe9cc" stroke="none" stroke-width="0.50485"/><path d="M157.5388,502.7548c-1.1355,-0.9502 -1.7714,-2.887 -1.9128,-4.3398c-0.4474,-5.0666 0.1807,-10.1516 0.3004,-15.2183c0.0991,-3.8254 0.218,-7.0221 0.1339,-10.5259c-0.0506,-2.1611 -2.1613,-5.2933 -0.4581,-7.0055c1.808,-1.6168 5.9774,-1.6435 7.5944,0.2382c1.7252,2.0146 -0.5447,5.5667 -0.9598,8.1825c-0.4906,3.0744 -1.1556,6.1354 -1.5158,9.2292c-0.6926,5.9535 -0.6096,12.2595 -1.5398,18.3692c-0.3046,1.4342 -1.1191,1.4727 -1.6424,1.0704z" fill="#ffe9cc" stroke="none" stroke-width="0.50485"/><path d="M169.226,498.2916c-0.4544,1.0434 -2.2102,3.2315 -2.5105,1.7374c-1.2271,-6.03 -0.8556,-12.2839 -1.256,-18.4176c-0.277,-4.2691 -1.8439,-8.2886 -0.9987,-12.3144c0.4084,-1.9485 2.5627,-3.1833 4.439,-3.5032c0.9356,-0.3053 1.8987,0.8817 1.9985,2.0712c0.386,4.5054 -0.4393,9.0023 -0.6462,13.5642c-0.16,3.5263 0.0459,7.0807 -0.2288,10.5928c-0.1626,2.2993 -0.0567,4.4217 -0.7973,6.2696z" fill="#ffe9cc" stroke="none" stroke-width="0.50485"/><path d="M178.404,486.9685c-0.4858,1.0291 -2.1436,3.0911 -2.562,1.6605c-1.6737,-5.7233 -1.1541,-11.8109 -2.0795,-17.6541c-0.3474,-1.581 -2.1908,-2.985 -1.7261,-4.5304c0.5454,-1.8247 2.5021,-2.8859 4.2658,-3.3144c1.2785,-0.4991 3.1707,-0.3778 3.9693,0.8025c0.6173,0.8974 -0.9732,1.7921 -1.0362,3.1128c-0.218,4.551 0.3312,9.2591 0.1557,13.6805c-0.0843,2.1074 -0.1907,4.418 -0.987,6.2426z" fill="#ffe9cc" stroke="none" stroke-width="0.50485"/><g><path d="M142.4944,474.7035c-0.6703,-2.6153 0.7261,-5.7451 1.1077,-8.6105c0.3224,-2.4019 0.5911,-4.6919 0.8625,-7.0945c0.2371,-1.1583 0.1503,-2.4663 0.6866,-3.5402c1.9688,-3.9353 4.5772,-7.9394 7.0961,-11.7545c2.4534,-3.7125 4.0839,-8.7236 8.0649,-10.9357c2.5594,-1.3947 7.7956,-1.1948 8.7003,1.6901c1.6063,5.1463 -1.5281,10.7968 -3.512,15.8095c-0.7832,1.9585 -2.474,2.926 -3.9574,4.1106c-2.0951,1.6703 -4.5505,2.7861 -6.4858,4.6704c-1.4896,1.2391 -2.5942,2.9671 -3.6843,4.6045c-2.0573,3.0915 -3.3913,6.587 -5.6147,9.4646c-0.8223,0.9125 -2.9911,2.6356 -3.2639,1.5857z" fill="#ffe9cc" stroke="#ffe9cc" stroke-width="1.00969"/><path d="M168.2307,444.6769c0,0 -1.5032,4.8994 -3.047,6.7243c-2.0606,2.4516 -5.0946,3.9006 -7.5504,5.9507c-1.5424,1.286 -2.9715,2.5203 -4.1637,4.0344c-1.5419,1.9656 -2.6436,4.2485 -3.9949,6.3483c-0.7198,1.1291 -1.6634,2.199 -1.6634,2.199" fill="none" stroke="#e4d0b8" stroke-width="1"/></g></g><path d="M177.5189,306.3945c5.6378,9.113 4.216,28.7848 4.5069,43.6186c0.4013,20.4399 3.2755,44.5987 -2.0409,62.3867c-3.0918,9.5196 -12.6974,6.5758 -17.0069,-0.5214c-4.6395,-7.6393 -3.1463,-23.7451 -4.5069,-35.4509c-0.9557,-8.2093 -1.7585,-16.4777 -1.9558,-25.0242c-0.2976,-13.308 -3.4728,-30.1402 1.0205,-39.9692c4.5272,-10.0097 14.7263,-13.5408 19.9831,-5.0396z" fill="#ffe7ca" stroke="none" stroke-width="2.73606" stroke-linecap="butt"/><path d="M207.4513,343.4825c10.687,0.4091 23.8809,1.9361 28.5602,15.3105c5.373,15.3675 -3.8923,34.3892 -3.6267,51.6901c0.6991,45.5347 6.4111,91.6371 5.4401,137.795c0.2756,11.193 -3.2323,11.0182 -7.2534,11.7878c-11.1449,2.0527 -26.0315,7.0618 -33.5469,-5.4197c-12.1096,-20.1137 -11.3561,-50.1549 -15.4135,-75.2656c-4.1099,-25.2218 -9.6325,-50.8378 -9.0667,-75.6043c0.379,-16.1683 3.75,-33.3432 10.8801,-45.7962c5.5905,-9.5197 15.398,-14.8174 24.0268,-14.4976z" fill="#e5e5e5" stroke="#cccccc" stroke-width="2.30559" stroke-linecap="butt"/><path d="M271.4513,356.4825c9.9752,0.9498 21.6233,5.211 29.0136,15.8525c6.4038,10.4017 8.7258,26.6851 8.16,40.8507c-0.6646,15.335 -8.3677,27.0157 -10.8801,41.6637c-6.5679,33.7713 -5.4536,71.9231 -16.3201,103.3802c-3.2631,9.4397 -14.4478,4.9061 -21.7602,4.5389c-7.7058,-0.378 -20.4572,4.6366 -22.6668,-6.3681c-9.7132,-42.8072 -8.403,-89.8391 -8.6134,-134.8142c-0.0852,-18.603 -0.9729,-41.3426 7.7067,-54.6709c8.3704,-12.8527 23.4539,-11.5737 35.3603,-10.4328z" fill="#e5e5e5" stroke="#cccccc" stroke-width="2.30559" stroke-linecap="butt"/><path d="M166.9181,204.8652c4.3654,0 8.3221,6.1721 11.1865,16.1428c2.8645,9.9716 4.9061,25.9365 4.6366,38.9376c-0.4376,20.9422 0.1881,43.289 -6.9621,64.4017c-1.7813,5.2104 -12.9406,4.2624 -14.919,1.3241c-6.6312,-7.9835 -3.8753,-17.6703 -5.1285,-26.7882c-1.7866,-12.9534 -4.6366,-23.7418 -4.6366,-38.9376c0,-15.1959 1.7722,-28.966 4.6366,-38.9376c2.8645,-9.9707 6.8211,-16.1428 11.1865,-16.1428z" fill="#ffe7ca" stroke="none" stroke-width="1.48192" stroke-linecap="butt"/><path d="M176.0164,184.7048c5.6209,0 10.7147,3.9114 14.4038,10.231c3.6883,6.3186 5.9712,15.0453 5.9712,24.676c0,9.6307 -2.2829,18.3574 -5.9712,24.676c-3.6891,6.3195 -8.7829,10.2309 -14.4038,10.2309c-5.6209,0 -10.7146,-3.9114 -14.4038,-10.2309c-3.6883,-6.3186 -5.9712,-15.0453 -5.9712,-24.676c0,-9.6307 2.2829,-18.3574 5.9712,-24.676c3.6892,-6.3196 8.7829,-10.231 14.4038,-10.231z" fill="#ffe7ca" stroke="none" stroke-width="0.88707" stroke-linecap="round"/><path d="M184.0265,212.8451c6.8685,4.9831 17.3265,3.7591 23.2908,9.832c5.9642,6.0729 9.656,14.4596 9.656,23.7149c0,9.2553 -3.6918,17.6421 -9.656,23.715c-5.9643,6.0729 -14.201,9.8319 -23.2908,9.8319c-9.0898,0 -17.3265,-3.759 -23.2908,-9.8319c-5.9642,-6.0729 -11.6155,-15.3799 -9.656,-23.715c4.0421,-17.1833 14.0475,-33.6747 26.4441,-46.2403c3.1482,-3.2622 2.7945,9.9969 6.5027,12.6934z" fill="#f62323" stroke="none" stroke-width="0.88707" stroke-linecap="round"/><path d="M192.5649,179.0203c17.6235,-2.2449 35.2471,-5.7637 52.5356,-6.2253c7.1153,-0.1896 14.227,2.7889 21.2141,4.214c8.1589,1.5727 16.4647,1.6646 24.2699,4.7888c7.5959,3.0398 20.6511,0.8887 21.978,13.5041c2.1425,20.3022 -9.5423,37.7082 -14.75,57.0814c-4.2875,15.9368 -11.1136,29.7934 -13.8685,47.1208c-1.8393,11.9814 1.314,24.6121 2.8207,36.5857c0.3562,7.8344 7.6559,20.3616 2.762,22.6985c-19.4605,9.3169 -40.5876,4.0934 -60.7628,4.5014c-13.8108,0.2758 -29.9183,6.7386 -43.5446,-2.6817c-5.3735,-4.1451 -1.4656,-20.3271 -3.1146,-30.6477c-3.1262,-19.7218 -5.5732,-39.8593 -9.1673,-59.38c-2.2354,-12.1077 -7.248,-22.9877 -7.3455,-35.4364c-0.1235,-15.9904 2.91,-32.5344 7.8157,-46.642c1.4879,-5.4897 6.4135,-6.0682 9.9312,-7.7577c3.2062,-1.5362 5.0773,-1.1665 9.2261,-1.7239z" fill="#f62323" stroke="none" stroke-width="1.58909" stroke-linecap="round"/><path d="M191.5034,178.7162c5.0712,-1.292 10.3296,-1.9965 15.2595,-2.992c5.0756,-1.0246 10.0089,-3.1235 15.2162,-3.2187c11.4673,-0.2086 23.0021,1.0118 34.5075,2.2213c3.1195,0.3645 6.1099,1.9312 9.2771,2.4934c2.7996,0.4959 5.7015,0.2457 8.4968,0.7706c4.505,0.8287 9.1063,1.458 13.4822,2.7654c3.4802,1.0418 8.5956,1.312 10.2742,3.7174c0.9606,1.3808 -3.6935,2.2558 -5.2455,3.7627c-4.2007,4.1652 -9.0586,7.9062 -11.9649,13.1921c-2.3019,4.1897 -2.1268,9.472 -2.7311,14.0534c-0.7838,6.4573 8.0511,18.1534 -1.4306,19.0401c-37.9261,3.546 -76.029,-4.1534 -114.1433,-7.2533c-9.2494,-0.7571 -3.1308,-1.0726 -2.7311,-2.2667c1.3985,-3.9577 5.4172,-6.49 7.2396,-10.4268c0.9598,-1.962 0.3321,-4.4735 0.9104,-6.8c1.63,-6.5943 3.7828,-13.2574 5.8957,-19.4935c0.5887,-1.7399 0.6911,-4.148 2.2543,-4.9867c4.8883,-2.6185 10.2716,-3.3465 15.433,-4.5787z" fill="url(#color-1)" stroke="none" stroke-width="0.88707" stroke-linecap="round"/><path d="M220.0084,244.072c20.4556,0.1995 41.5416,0.4796 60.6914,7.2534c4.7843,1.6927 4.3906,10.3678 1.7341,13.6001c-7.5526,7.4438 -18.139,12.221 -27.7447,13.6001c-12.6645,1.8279 -25.9724,-4.4391 -38.1489,-4.5334c-15.0818,-0.1178 -30.6093,8.0413 -45.1908,3.8616c-8.7257,-2.5197 -18.4676,-14.0045 -18.9687,-22.9017c0.5011,-5.8381 12.4053,-5.4355 18.9687,-6.5816c16.0277,-2.7952 32.5366,-5.0737 48.6589,-4.2985z" fill="#db1f1f" stroke="none" stroke-width="0.88707" stroke-linecap="round"/><path d="M271.9716,383.0499c5.5222,-15.0571 13.2345,-30.5016 19.5199,-45.8423c2.285,-5.5966 1.9081,-15.3701 5.8995,-17.635c9.1155,-4.4501 16.0908,1.8579 24.024,2.3036c1.9899,0.1186 7.6421,-7.9601 4.5313,0.0031c-12.4419,31.8532 -24.6291,65.1766 -41.4569,95.1422c-4.2703,7.2597 -5.9947,-4.2861 -8.8969,-6.2955c-3.2518,-2.2585 -8.9118,-1.6586 -9.5083,-7.268c-0.6132,-5.9714 3.415,-13.6521 5.8874,-20.4081z" fill="#ffe7ca" stroke="none" stroke-width="2.02651" stroke-linecap="butt"/><path d="M295.6748,257.7387c-0.8427,7.6596 -4.2319,14.8323 -6.2859,22.4402c-2.0609,7.6323 -5.2186,15.0408 -6.2859,22.8935c-0.9754,7.189 1.154,15.0408 0.2168,22.4401c-0.5835,4.7048 -1.1662,12.9537 -5.5923,12.3761c-6.3024,0.1242 -15.713,-5.7764 -15.8665,-13.2827c-0.1777,-10.3125 11.8357,-16.7463 16.0399,-26.0669c4.4279,-9.8202 7.1772,-20.2805 10.1875,-30.6002c1.6933,-5.8073 1.2589,-13.9021 3.6848,-17.4535c1.128,-1.6783 3.9172,4.4318 3.9016,7.2534z" fill="#e72121" stroke="none" stroke-width="0.88707" stroke-linecap="round"/><path d="M299.9339,185.975c9.0985,-0.6646 18.5629,6.5026 23.4095,14.5067c5.9486,9.823 5.04,22.8401 5.2021,34.4536c0.2671,19.7048 -2.3158,38.1266 -3.2513,57.1658c-0.9112,12.0669 4.8189,26.7351 -2.2542,36.267c-5.0834,6.6948 -19.234,4.8788 -24.4934,-1.36c-6.3232,-7.4919 -1.7462,-19.6223 -2.2542,-29.9203c-0.522,-10.5582 1.8658,-20.8562 -0.9104,-31.7336c-2.7372,-10.6742 -11.9918,-18.4598 -14.5226,-29.5122c-2.3531,-10.2808 -3.0181,-21.6976 0.867,-31.7336c3.1421,-8.1156 9.7375,-17.5142 18.2075,-18.1334z" fill="#ffe7ca" stroke="none" stroke-width="0.88707" stroke-linecap="round"/><path d="M238.7216,363.1845c6.6006,0.029 15.1242,0.8441 19.4935,6.1201c3.303,4.3148 0.0544,11.2074 -1.36,16.5468c-1.4126,5.333 -3.2196,11.3569 -7.5735,14.7416c-7.0412,5.4654 -15.1868,10.9317 -23.7068,11.0986c-5.8,-0.1669 -9.6134,-6.9579 -12.8267,-11.0986c-3.3801,-4.3611 -6.6423,-9.3025 -7.5734,-14.7416c-0.972,-5.6985 -2.827,-13.7307 1.8133,-16.7735c8.9371,-6.1318 20.9859,-5.9396 31.7336,-5.8934z" fill="#e5e5e5" stroke="none" stroke-width="0.90668" stroke-linecap="round"/><path d="M246.1918,401.4581c0,0 -7.7512,4.974 -12.0134,6.8001c-3.4091,1.5921 -7.0159,3.7309 -10.8801,3.4c-4.4055,-0.3763 -8.4965,-2.6783 -12.2401,-5.2134c-2.4743,-1.817 -5.8934,-7.48 -5.8934,-7.48" fill="none" stroke="#cccccc" stroke-width="1.81335" stroke-linecap="round"/><g fill="#ffe9cc" stroke-linecap="round"><path d="M266.6707,418.8468c-2.9627,-0.3341 -7.6922,3.8747 -8.894,2.2923c-1.2439,-1.9916 2.7574,-6.4417 4.0027,-9.4403c1.4103,-3.3885 2.1875,-7.1074 4.0887,-10.2548c2.5852,-4.279 4.4695,-9.9003 9.003,-11.1932c4.3213,-1.54 10.2166,0.543 12.6725,4.2594c2.2348,3.3831 -0.763,8.0939 -1.2093,12.1217c-0.2029,1.8417 0.0765,3.9522 -0.5405,5.786c-1.792,5.2976 -3.8576,11.5599 -6.6529,15.6723c-0.9294,1.1614 0.5502,-4.1536 -0.7965,-5.1247c-3.342,-2.4112 -7.5806,-3.6523 -11.6737,-4.1187z" stroke="none" stroke-width="0.50485"/><path d="M251.7248,453.017c-3.1826,-1.181 -6.0758,-3.8686 -8.155,-6.7745c-1.0375,-1.6829 -1.1148,-4.1007 -0.5588,-6.0428c0.9411,-3.2723 2.5231,-6.9251 5.2471,-9.3582c0.767,-0.7273 1.1062,3.2981 2.6924,2.171c6.3437,-4.508 9.9384,-12.7927 16.975,-16.0891c3.4994,-1.4726 8.2903,0.6972 10.897,3.4736c2.084,2.2175 1.5298,6.0868 0.8349,9.0288c-2.2988,8.6406 -5.642,17.0974 -9.6537,25.0915c-1.0028,1.9989 -1.7413,0.4371 -3.027,0.3549c-5.1044,-0.33 -10.4251,-0.0731 -15.2519,-1.8552z" stroke="none" stroke-width="0.50485"/><path d="M232.0741,477.6569c-0.8924,0.0576 -1.3157,-2.59 -1.0971,-3.8035c1.1525,-5.0128 3.4245,-9.734 5.0923,-14.3441c2.3944,-6.6247 3.7902,-13.793 7.4457,-19.8282c0.9047,-1.5011 3.4606,0.3893 3.9663,1.7255c0.6502,1.8563 -0.2609,3.734 -0.7858,5.3785c-1.7859,4.9642 -4.1756,9.6666 -6.1145,14.3512c-1.6794,4.0661 -3.5401,9.0247 -5.0802,12.0156c-1.5399,2.9905 -2.242,4.4133 -3.4267,4.505z" stroke="none" stroke-width="0.50485"/><path d="M238.2251,481.9627c-0.7734,-1.2625 -0.7589,-3.3009 -0.4298,-4.7231c1.1907,-4.945 3.4067,-9.5645 5.135,-14.3289c1.3132,-3.5943 2.4447,-6.5865 3.4817,-9.9343c0.6409,-2.0645 -0.3615,-5.7061 1.7986,-6.7862c2.229,-0.9562 6.1895,0.3473 7.1224,2.6462c0.9932,2.4595 -2.2904,5.1029 -3.5176,7.4499c-1.4449,2.7578 -3.0508,5.4472 -4.3783,8.2649c-2.5539,5.4222 -4.4851,11.4258 -7.314,16.9204c-0.7459,1.2624 -1.5302,1.0392 -1.898,0.4911z" stroke="none" stroke-width="0.50485"/><path d="M250.7064,481.49c-0.7632,0.8441 -3.1248,2.3585 -2.9333,0.8466c0.7588,-6.1066 3.1042,-11.916 4.6795,-17.8575c1.0981,-4.1347 0.894,-8.444 2.9782,-11.9905c1.0081,-1.7166 3.4436,-2.2004 5.324,-1.9057c0.9842,0.0088 1.5188,1.4409 1.2342,2.6002c-1.0701,4.3935 -3.2856,8.3928 -4.9357,12.6508c-1.2755,3.2915 -2.2132,6.7261 -3.5929,9.9675c-0.887,2.1276 -1.463,4.173 -2.754,5.6886z" stroke="none" stroke-width="0.50485"/><path d="M265.9578,474.855c-0.6654,0.9232 -2.6714,2.6483 -2.8219,1.1654c-0.6019,-5.9326 1.0191,-11.8233 1.1748,-17.7373c-0.0532,-1.6179 -1.6097,-3.3345 -0.871,-4.7692c0.869,-1.6947 2.9864,-2.3812 4.7987,-2.4809c1.3481,-0.2575 3.1864,0.2067 3.7564,1.5129c0.4433,0.9949 -1.2837,1.5846 -1.5865,2.8717c-1.0442,4.4349 -1.3629,9.1642 -2.3417,13.4794c-0.4672,2.0568 -0.9932,4.3092 -2.1088,5.958z" stroke="none" stroke-width="0.50485"/><path d="M227.361,445.6958c0.6789,-2.6132 3.4153,-4.6765 5.1357,-6.9994c1.4444,-1.9461 2.7875,-3.8201 4.1876,-5.7915c0.768,-0.8988 1.3249,-2.0855 2.314,-2.7659c3.627,-2.4912 7.8472,-4.7333 11.8976,-6.8532c3.9434,-2.0619 7.795,-5.6583 12.3493,-5.668c2.9148,0.0178 7.4004,2.7265 6.7963,5.6889c-1.0844,5.2809 -6.5616,8.7093 -10.7232,12.1363c-1.6331,1.3349 -3.5809,1.3635 -5.4523,1.6824c-2.6417,0.448 -5.3305,0.2364 -7.9358,0.949c-1.9033,0.3636 -3.706,1.3414 -5.4523,2.2469c-3.2963,1.71 -6.1551,4.1236 -9.4932,5.5661c-1.1612,0.4006 -3.893,0.8592 -3.6237,-0.1916z" stroke="#ffe9cc" stroke-width="1.00969"/></g><g><path d="M254.4674,114.2611c8.1335,2.0808 18.2387,2.235 24.5168,5.8462c6.2781,3.6104 10.1641,8.5971 10.1641,14.1006c0,5.5035 -6.4047,9.7323 -10.1641,14.1006c-4.851,5.6323 -9.4202,12.9174 -16.2801,15.3663c-2.7354,0.9729 -0.3138,-7.4882 -4.3351,-8.16c-16.0841,-2.6874 -36.049,8.8192 -48.9867,-1.8134c-15.8283,-12.5066 -34.6175,-47.8044 -24.2765,-57.1204c12.1599,-10.94 46.0604,11.7169 69.3616,17.6801z" fill="#ffb57c" stroke="none" stroke-width="0.88707" stroke-linecap="round"/><path d="M220.3253,151.1378c12.3481,-7.4166 27.1317,-12.6907 41.4003,-11.5601c4.714,0.3736 -2.3167,9.5246 -3.0346,14.5068c-1.5216,9.977 1.2459,21.5788 -3.6848,30.3736c-3.8323,6.8326 -12.3317,9.3931 -19.2912,11.7867c-4.5224,1.4516 -10.243,1.9829 -13.8724,-0.68c-3.7377,-2.7454 -4.9611,-8.4801 -5.4189,-13.1468c-0.5913,-5.9151 1.6899,-11.629 2.3844,-17.4534c0.5522,-4.6313 -2.4476,-11.5937 1.5172,-13.8268z" fill="#ffe5cb" stroke="none" stroke-width="0.88707" stroke-linecap="butt"/><path d="M237.7086,149.5046c8.4864,-2.0708 19.4828,-8.7566 25.3604,-8.16c2.7762,0.281 -4.4851,7.7792 -8.2367,9.7467c-9.3734,5.1662 -19.9025,7.7049 -30.129,11.1068c-2.5586,0.8522 -2.5716,0.845 -3.6848,0.4533c-0.7682,-0.2702 -1.5572,-1.0064 -1.7341,-1.8133c-0.4855,-2.2821 -1.4731,-5.2497 -0.2167,-7.0268c1.5762,-2.2195 4.6645,-2.6193 7.2855,-3.3084c3.6788,-0.9638 7.6671,-0.0843 11.3554,-0.9983z" fill="url(#color-2)" stroke="none" stroke-width="0.88707" stroke-linecap="round"/><path d="M302.3929,60.1013c0,0 2.7818,0.6479 3.7058,1.6651c1.7098,1.8802 2.7973,4.3214 3.4028,6.8253c1.3441,4.0693 2.3859,12.694 2.3859,12.694" fill="none" stroke="#ffb57c" stroke-width="0.59451" stroke-linecap="round"/><path d="M292.9602,85.8175c4.0065,0 7.6376,1.9303 10.2664,5.0493c2.6288,3.118 3.4906,7.9334 4.2562,12.1775c1.128,6.2198 3.899,13.6799 1.734,19.9468c-2.9921,8.6143 -12.8631,13.1033 -14.7393,21.7602c-1.7115,7.9406 10.3366,22.0811 5.6356,24.4802c-6.5703,2.8143 -24.9078,-3.7446 -28.1782,-14.0535c-3.5912,-11.356 10.8941,-21.3621 12.1383,-33.0935c1.043,-6.607 -5.1041,-12.3208 -5.6356,-19.0402c-0.3347,-4.2967 1.6274,-9.0595 4.2562,-12.1775c2.6288,-3.119 6.2599,-5.0493 10.2664,-5.0493z" fill="#ffb57c" stroke="none" stroke-width="0.88707" stroke-linecap="round"/><path d="M235.6127,9.6c16.0862,0 30.663,4.927 41.2183,12.8879c10.5552,7.96 16.7711,18.743 17.0889,31.0857c0.5477,21.3882 0.0452,50.5148 -15.5212,62.0977c-12.6009,9.6606 -27.9603,-14.54 -42.786,-18.124c-15.9925,-3.8609 -35.5172,7.1106 -49.52,-3.2069c-9.8514,-7.6723 -10.267,-27.0577 -8.7871,-40.7668c1.3189,-12.2485 6.5337,-23.1257 17.0889,-31.0857c10.5553,-7.9609 25.132,-12.8879 41.2182,-12.8879z" fill="#e19f6d" stroke="none" stroke-width="0.89967" stroke-linecap="round"/><path d="M238.4658,41.9875c14.6085,1.2222 28.2068,10.5691 39.4495,20.4001c6.3899,5.5879 10.6019,14.8668 10.8377,23.5736c0.3746,13.7986 -1.9187,28.7669 -9.1037,40.3469c-6.3986,10.3071 -17.8537,15.8704 -28.1782,20.6269c-10.4285,4.8634 -22.1662,5.7029 -32.9467,7.7067c-2.6947,0.5005 -2.2031,-0.1823 -3.4681,-0.68c-3.5063,-1.3972 -7.2058,-3.0718 -10.1875,-4.9867c-5.7822,-3.7183 -11.8678,-7.1745 -16.6902,-12.2401c-3.3562,-3.5234 -5.1622,-8.2498 -6.5026,-12.9201c-1.1679,-2.7382 -0.4734,-5.9016 -0.867,-8.8401c-0.5324,-3.9866 -2.1477,-7.7865 -2.6011,-11.7867c-0.5618,-4.9496 -1.7315,-10.1648 -0.4335,-14.9602c3.1178,-11.5202 4.1851,-26.0433 13.4388,-33.0935c13.1605,-10.027 31.022,-14.505 47.2526,-13.1468z" fill="#ffe5cb" stroke="none" stroke-width="0.88707" stroke-linecap="butt"/><path d="M221.3074,48.6505c13.8819,5.7483 23.0298,20.2596 32.4049,32.4136c2.6912,3.4907 5.4536,12.9373 3.0346,12.9201c-3.5357,-0.0272 -10.9722,-8.0222 -15.3896,-13.1468c-6.9934,-7.8717 -9.1298,-21.5335 -18.641,-25.6135c-7.8431,-3.3638 -16.45,4.0664 -24.4933,7.2534c-3.091,1.2258 -5.7258,3.8098 -8.02,6.12c-2.9556,2.9757 -4.8085,7.6614 -7.8032,9.9734c-0.8592,0.6619 -0.4352,-1.9012 0.2168,-3.6266c2.6071,-6.9016 1.6361,-16.1298 7.1529,-19.9469c9.1193,-6.1291 21.5949,-10.4639 31.5379,-6.3467z" fill="#edc6b9" stroke="none" stroke-width="0.88707" stroke-linecap="round"/><path d="M251.8382,104.4069c3.9467,0 7.5231,1.0668 10.1134,2.7903c2.5896,1.7235 4.1925,4.1032 4.1925,6.7298c0,2.6265 -2.7619,4.5053 -4.1925,6.7298c-2.3544,3.6681 -3.3353,8.3168 -7.4858,10.5794c-2.6369,1.6746 -7.7824,1.8115 -9.9849,-0.4451c-4.4727,-4.5835 -6.4598,-11.1877 -6.9485,-16.8641c-0.2102,-2.5262 1.6028,-5.0063 4.1925,-6.7298c2.5902,-1.7235 6.1667,-2.7903 10.1133,-2.7903z" fill="url(#color-3)" stroke="none" stroke-width="0.54108" stroke-linecap="butt"/><path d="M208.5089,107.6831c1.6729,0.8136 0.9763,3.0544 0.4087,5.0939c-1.6332,5.7832 -2.3298,12.3978 -6.9485,16.8641c-2.6358,2.5465 -8.4119,2.1696 -11.6783,0.2473c-3.8479,-1.7102 -4.5194,-5.9272 -6.4814,-9.5201c-1.3471,-2.4614 -3.5607,-4.9272 -3.5035,-7.5913c0.0532,-2.585 1.6029,-5.0063 4.1925,-6.7298c2.5903,-1.7235 6.5801,-2.857 10.1134,-2.7903c4.8114,0.0984 10.0368,1.5574 13.8971,4.4262z" fill="url(#color-4)" stroke="none" stroke-width="0.54108" stroke-linecap="butt"/><path d="M192.7215,104.0819c3.4086,0 6.4974,0.7846 8.7343,2.0514c2.2363,1.2669 3.6207,3.0162 3.6207,4.947c0,1.9308 -1.3844,3.6801 -3.6207,4.947c-2.2369,1.2669 -5.3257,2.0514 -8.7343,2.0514c-3.4086,0 -6.4974,-0.7845 -8.7344,-2.0514c-2.2362,-1.2669 -3.6207,-3.0162 -3.6207,-4.947c0,-1.9308 1.3845,-3.6801 3.6207,-4.947c2.237,-1.2668 5.3258,-2.0514 8.7344,-2.0514z" fill="url(#color-5)" stroke="none" stroke-width="0.70227" stroke-linecap="butt"/><path d="M255.0628,103.7575c3.7415,0 7.1319,0.8611 9.5874,2.2517c2.4547,1.3907 3.9743,3.3107 3.9743,5.4302c0,2.1194 -1.5196,4.0395 -3.9743,5.4301c-2.4555,1.3906 -5.8459,2.2518 -9.5874,2.2518c-3.7416,0 -7.132,-0.8612 -9.5874,-2.2518c-2.4547,-1.3906 -3.9744,-3.3107 -3.9744,-5.4301c0,-2.1195 1.5197,-4.0395 3.9744,-5.4302c2.4554,-1.3906 5.8458,-2.2517 9.5874,-2.2517z" fill="url(#color-6)" stroke="none" stroke-width="0.77085" stroke-linecap="butt"/><path d="M229.3932,96.691c12.1657,-0.5213 25.9856,-3.4063 37.2081,1.36c6.4944,2.983 8.8087,11.96 7.877,18.3602c-0.8665,5.9768 -5.0516,10.3705 -13.2136,13.9401c-8.1619,3.5705 -21.0521,6.4011 -31.8715,5.78c-13.9888,-0.806 -28.3974,-4.7092 -41.2503,-10.4267c-3.3135,-1.3537 -3.1746,-6.0584 -3.8348,-9.2934c-0.9773,-4.8317 -6.6228,-12.2501 -1.8137,-14.2801c14.1733,-6.2724 31.1667,-4.77 46.8988,-5.4401z" fill="url(#color-7)" stroke="none" stroke-width="0.97372" stroke-linecap="butt"/><path d="M236.2053,86.8891c0,0 0.7938,-5.692 -0.1277,-8.114c-1.1886,-3.1422 -5.0258,-4.8387 -5.9436,-8.0092c-0.772,-2.6625 2.3252,-5.4356 1.8155,-8.1428c0.0012,-2.3035 -2.7053,-3.4351 -3.2117,-5.6167c-1.0387,-4.5732 -0.228,-14.1958 -0.228,-14.1958" fill="none" stroke="#eaa671" stroke-width="0.92211" stroke-linecap="round"/><path d="M233.6065,32.7903c4.0776,0.5511 7.8745,3.1646 10.3968,6.3486c2.9618,3.7604 2.4913,9.634 5.2107,13.5968c10.6279,15.4773 35.567,35.4983 35.5409,44.4403c-0.026,6.7953 -26.0087,-2.9805 -35.9587,-10.9751c-11.7737,-9.1271 -17.2981,-24.7051 -25.6494,-37.5822c-2.0878,-3.2196 -2.6654,-3.7115 -2.6654,-6.087c0,-2.3755 0.9094,-4.8219 2.6654,-6.087c3.0256,-2.1693 6.9199,-4.0872 10.4597,-3.6544z" fill="#ffb57c" stroke="none" stroke-width="0.50294" stroke-linecap="butt"/><path d="M200.0509,67.6509c0,0 -1.9467,1.9483 -2.4714,3.2047c-0.3631,0.8694 0.4192,1.8976 -0.057,2.8478c-1.8989,3.7834 -3.316,8.853 -7.0281,11.1153c-3.4819,1.9929 -12.1261,0.2145 -12.1261,0.2145" fill="none" stroke="#eaa671" stroke-width="0.92227" stroke-linecap="round"/><path d="M210.8563,39.4272c2.4519,0 4.6732,1.0037 6.2824,2.6239c1.6083,1.6212 2.6045,3.8597 2.6045,6.3295c0,2.4698 -1.3638,4.4391 -2.6045,6.3295c-1.6031,2.4526 -3.6666,4.7791 -5.6322,7.1573c-3.886,4.0129 -7.3098,8.8546 -11.9215,12.0134c-3.8999,2.6693 -11.3042,5.5552 -12.7886,5.2134c-1.3655,-0.4298 4.7244,-4.1952 6.0692,-7.0267c4.7209,-9.6099 6.6813,-20.6477 11.7082,-30.0164c1.2572,-2.3428 3.8305,-2.6239 6.2825,-2.6239z" fill="#ffb57c" stroke="none" stroke-width="0.88707" stroke-linecap="round"/><path d="M197.2127,40.9006c2.3921,0 4.5598,1.029 6.1292,2.6901c1.5694,1.6619 3.2479,4.2224 2.541,6.4899c-1.3016,4.139 -4.9337,5.936 -7.5694,8.7268c-3.9362,4.1199 -8.6461,6.9823 -12.1534,12.0134c-2.4464,3.5161 -4.9066,16.5024 -5.1871,13.6001c-0.4704,-4.9232 0.8861,-21.0049 3.257,-30.6002c1.146,-4.6087 4.2691,-7.7058 6.8536,-10.23c1.7828,-1.739 3.737,-2.6901 6.1291,-2.6901z" fill="#ffb57c" stroke="none" stroke-width="0.77002" stroke-linecap="round"/><path d="M247.707,65.6341c1.6144,0 3.078,0.9783 4.1375,2.5577c1.0595,1.5794 2.158,4.0791 1.7149,6.169c-0.5453,2.5206 -4.0125,3.7301 -4.9853,6.2334c-0.9945,2.6167 -0.1977,8.4012 -1.5173,8.3867c-0.8887,-0.0145 -2.269,-5.5153 -3.4872,-8.4511c-0.8063,-1.962 -1.7149,-3.7618 -1.7149,-6.169c0,-2.4072 0.6554,-4.5896 1.7149,-6.169c1.0595,-1.5794 2.523,-2.5577 4.1374,-2.5577z" fill="#ffb57c" stroke="none" stroke-width="0.88707" stroke-linecap="round"/><path d="M252.1081,25.0638c6.5607,0.7752 14.722,2.011 19.7247,7.2534c10.2326,11.2446 20.6958,24.579 23.8431,39.8936c3.4299,16.7309 -2.1728,47.8733 -5.6356,52.1338c-3.0996,3.8035 -4.675,-22.8183 -10.8378,-32.1869c-8.4404,-13.922 -21.8377,-23.7177 -32.0798,-36.267c-2.5603,-3.1371 -2.9296,-6.7529 -4.3619,-9.9344c-1.298,-2.8723 -3.8748,-5.275 -3.8748,-8.6524c0,-3.3773 1.4818,-6.4374 3.8748,-8.6524c2.3938,-2.2159 6.0509,-3.9712 9.3473,-3.5877z" fill="#ffb57c" stroke="none" stroke-width="0.88707" stroke-linecap="butt"/><path d="M184.9781,35.0205c3.0337,-1.9983 8.3113,-3.6321 10.8378,-0.9066c2.8672,3.2667 1.4089,9.2408 0,13.6001c-1.6587,6.2252 -5.7285,11.619 -8.9278,17.2114c-2.34,4.1181 -6.3223,8.0131 -7.5456,13.1621c-2.2361,8.3052 -1.1818,27.1096 -2.6011,26.2936c-1.4167,-0.8206 -6.5252,-21.9624 -7.3697,-33.0936c-0.5566,-7.3323 0.9477,-15.1115 3.7256,-21.7448c2.4329,-5.8117 6.7498,-11.1103 11.8808,-14.5222z" fill="#ffb57c" stroke="none" stroke-width="0.88707" stroke-linecap="round"/><path d="M293.4559,91.6303c2.1455,0.5618 1.8675,4.4195 2.1649,6.7702c-0.4815,10.4029 -0.4079,12.6858 -3.4582,17.6881c-3.4644,5.6696 -12.2125,13.4446 -15.568,13.1693c-2.3033,-0.3129 3.2142,-9.644 3.6147,-14.4114c0.2883,-3.4734 -1.7693,-6.8249 -1.0309,-10.4177c0.727,-3.5443 2.9665,-6.2536 5.5911,-8.2572c2.2853,-2.42 5.3911,-5.3117 8.6864,-4.5413z" fill="#ffe5cb" stroke="none" stroke-width="0.88702" stroke-linecap="round"/><path d="M225.5071,10.8703c12.8735,-1.1152 26.8473,-0.378 38.7991,5.2134c10.0974,4.8244 28.5241,17.5804 24.0599,24.4802c-6.1056,9.4348 -30.4489,5.2904 -45.5316,8.2154c-6.9509,1.3482 -12.7062,4.2514 -20.8389,4.2514c-8.1326,0 -13.9365,-2.6557 -20.8388,-4.2514c-6.5538,-1.5142 -18.5699,1.1805 -19.651,-4.5887c-1.3743,-7.6324 7.7424,-16.9666 14.7393,-22.2135c8.4569,-6.3413 18.9314,-10.2119 29.262,-11.1068z" fill="#ffb57c" stroke="none" stroke-width="0.88707" stroke-linecap="butt"/><path d="M264.5648,60.4502c4.4019,0 8.6633,1.0418 11.645,2.7237c2.9825,1.6827 6.1775,4.2024 4.8284,6.5697c-3.0432,5.3539 -15.6072,3.7464 -14.7393,9.7468c1.7201,11.7468 21.0816,17.1814 21.242,29.4668c0.1109,8.7005 -19.2938,5.9143 -21.242,14.5068c-1.761,7.7856 7.5925,14.1224 13.0053,19.4935c1.7904,1.4915 6.0882,-1.8442 6.5026,-0.9067c0.4353,1.0064 -2.5031,5.9397 -5.2021,4.5334c-9.7774,-5.1998 -23.5465,-9.7631 -26.4441,-21.3068c-2.1554,-8.5998 16.9806,-11.5347 16.4734,-20.4002c-0.5376,-8.2416 -13.8169,-8.3523 -17.774,-14.9601c-2.5559,-3.8996 0.7431,-9.2372 0.0599,-13.6037c-3.619,-8.0177 -2.6826,-10.6099 0,-13.1395c2.7649,-2.5251 7.2431,-2.7237 11.6449,-2.7237z" fill="#ffb57c" stroke="none" stroke-width="0.88707" stroke-linecap="round"/><path d="M268.6072,23.3062c3.3814,2.1071 9.6855,5.5072 8.4535,8.7041c-1.6292,4.2287 -9.1332,6.1608 -14.3059,6.3467c-2.5178,0.0916 -4.1357,-3.2559 -5.5489,-5.44c-3.377,-5.7275 -11.2955,-15.8269 -8.6702,-18.0428c2.9123,-2.458 13.7891,4.7337 20.0715,8.432z" fill="url(#color-8)" stroke="none" stroke-width="0.88707" stroke-linecap="round"/><path d="M233.0025,18.2769c3.9727,-0.7199 8.4049,-1.0146 12.1816,0.544c3.1126,1.2856 6.6249,4.2459 6.8928,7.2533c0.274,2.0246 -3.6319,2.6938 -5.809,2.8107c-7.6194,0.4098 -15.5934,0.9983 -22.8894,-1.088c-1.8242,-0.5213 -0.1803,-3.8488 0.9971,-5.032c2.315,-2.3229 5.4648,-3.9159 8.6269,-4.488z" fill="url(#color-9)" stroke="none" stroke-width="0.88707" stroke-linecap="butt"/><path d="M181.8082,62.6239c1.5724,2.5296 2.1213,5.1218 0,13.1395c-0.4005,4.3665 1.5333,9.7041 0.035,13.6037c-2.3195,6.6078 -10.1033,6.7185 -10.4184,14.9601c-0.2973,8.8655 10.8957,11.7886 9.6561,20.4002c-1.6466,11.4277 -12.3329,17.2939 -15.5007,21.3068c-1.3544,1.6909 4.6904,-4.6431 6.2511,-8.4321c1.3798,-4.3175 3.1286,-9.6905 2.1346,-14.6881c-2.5142,-7.5807 -12.5002,-5.7728 -12.4514,-14.5068c0.0706,-12.2863 10.2945,-17.7998 12.4514,-29.4668c1.4601,-7.8745 -2.4593,-18.2169 -1.9567,-25.6136c0.0056,-2.1234 1.5277,5.4355 2.9731,6.5734c2.1172,1.691 5.2052,0.1986 6.8259,2.7237z" fill="#ffb57c" stroke="none" stroke-width="0.73497" stroke-linecap="round"/><path d="M212.1571,32.3837c2.2421,0 4.2744,1.2449 5.7458,3.255c1.4713,2.011 3.0441,5.1979 2.3826,7.8518c-1.1723,4.6956 -4.9317,8.481 -7.5865,12.6934c-0.6528,0.9375 -0.9728,2.4716 -2.1675,2.4933c-2.6002,0.0309 -6.2651,-0.2674 -7.3697,-2.72c-1.695,-3.7636 0.2592,-8.4892 0.867,-12.4667c0.4118,-2.7092 0.9113,-5.8408 2.3826,-7.8518c1.4713,-2.0101 3.5036,-3.255 5.7457,-3.255z" fill="#ffd6a2" stroke="none" stroke-width="0.88707" stroke-linecap="round"/><path d="M276.0808,34.7068c5.9937,-2.4707 12.9862,0.9829 18.2074,4.5334c5.4735,9.3433 3.8366,9.6688 6.0692,13.6001c1.8623,3.1453 4.8059,5.2524 5.6356,8.6134c1.1609,4.3801 0.1006,9.3351 -0.4335,14.0534c-0.4795,7.3758 1.5806,19.3766 -2.6011,22.2135c-3.2054,2.1697 -7.2049,-9.0177 -11.7048,-12.6934c-3.1897,-2.8134 -7.8378,-3.4753 -11.1256,-6.5734c-2.6244,-2.467 -4.5119,-5.8507 -5.7813,-9.2934c-2.1302,-5.7419 -5.0651,-12.3144 -4.7686,-19.0401c0.3139,-5.412 1.519,-13.3499 6.5027,-15.4135z" fill="#ffb57c" stroke="none" stroke-width="0.88707" stroke-linecap="round"/><path d="M199.6172,58.6906c0,0 1.0749,-0.7556 1.4409,-1.2521c0.6074,-0.8245 0.915,-1.7948 1.4409,-2.6606c0.6146,-1.0117 1.4561,-2.4666 1.9813,-2.9737c0.2399,-0.2316 -0.1629,0.9597 -0.3603,1.4086c-0.585,1.3297 -1.286,2.6237 -1.9812,3.9127c-0.2053,0.3806 -0.933,0.837 -0.7205,1.0956c0.2378,0.2892 1.2853,0.3674 1.6211,0c1.2002,-1.3147 1.6945,-3.0219 2.5215,-4.5388c0.2529,-0.4639 0.8689,-1.8437 0.7205,-1.4086c-0.572,1.6778 -2.2983,5.6475 -2.1614,5.6343c0.1369,-0.0131 3.4445,-5.6556 3.7824,-5.7908c0.3379,-0.1352 -1.5403,4.8518 -1.4409,4.8518c0.0994,0 1.5339,-3.3931 2.7017,-4.8518c0.2918,-0.3643 0.2399,0.8351 0.1801,1.2521c-0.0634,0.442 -0.6808,1.4724 -0.5403,1.2521c0.2543,-0.3982 0.9142,-2.2544 1.4409,-2.6607c0.2637,-0.2035 0.201,0.9372 0.1801,1.4086c-0.0396,0.8915 -0.6974,2.9242 -0.3602,2.6606c0.3977,-0.3111 2.0158,-4.2795 2.1613,-4.0692c0.1456,0.2103 -1.1902,5.3489 -1.0806,5.6343c0.1095,0.2855 1.1678,-2.5179 1.8011,-3.7562c0.1585,-0.3093 0.3602,-0.4695 0.3602,-0.4695" fill="none" stroke="#ffb57c" stroke-width="1.3498" stroke-linecap="round"/><path d="M207.9445,54.5248c1.2464,-0.0153 2.4148,0.7583 3.4937,1.3948c0.8969,0.5353 2.5574,0.6495 2.6448,1.5972c-0.0874,2.0085 -1.4982,3.845 -2.6448,5.1332c-1.4222,1.594 -3.0775,3.486 -5.1584,3.7341c-3.1244,0.1218 -6.5838,-0.6909 -9.1037,-2.7201c-1.157,-0.9367 0.4463,-3.0148 0.8843,-4.5152c0.4349,-1.0978 0.6222,-2.658 1.7167,-3.2096c2.4835,-1.248 5.5268,-1.3818 8.1674,-1.4144z" fill="#ffb57c" stroke="none" stroke-width="1.06448" stroke-linecap="round"/><path d="M199.0315,56.9447c1.2711,-1.9612 3.3216,-3.2278 5.4189,-3.4c2.4433,-0.204 5.1102,0.6047 6.5027,2.4933c1.3413,1.535 1.4306,4.3384 0.3034,6.0294c-3.1473,4.7319 -7.3098,8.8546 -11.9215,12.0134c-3.8999,2.6693 -11.3042,5.5552 -12.7886,5.2134c-1.3655,-0.4298 4.5458,-4.3058 6.0692,-7.0267c2.7458,-4.9033 3.436,-10.7069 6.4159,-15.3228z" fill="url(#color-10)" stroke="none" stroke-width="0.88707" stroke-linecap="round"/><path d="M211.4025,19.1269c3.8183,-0.3954 8.378,-0.4742 11.3579,2.04c1.8641,1.4788 0.5151,5.139 -0.0867,7.2534c-3.2903,0.7189 -6.5399,-0.4044 -9.6239,-1.2694c-2.6496,-0.7444 -5.7665,-1.2838 -7.7165,-3.0373c-0.665,-0.5984 1.6534,-0.8387 2.4277,-1.4961c1.2788,-1.0816 1.917,-3.3111 3.6415,-3.4906z" fill="url(#color-11)" stroke="none" stroke-width="0.88707" stroke-linecap="butt"/><path d="M219.3058,31.9612c0,0 0,0.149 0,0.223c0,0.2971 0.0328,0.5955 0,0.8921c-0.0328,0.2988 -0.1624,0.5932 -0.1952,0.892c-0.0329,0.2966 0,0.595 0,0.892c0,0.4086 0,0.818 0,1.2266c0,0.3341 -0.0344,0.6699 0,1.0036c0.0304,0.2988 0.114,0.892 0.1952,0.892c0.0812,0 0.2913,-0.591 0.3905,-0.892c0.0969,-0.2944 0.1305,-0.595 0.1953,-0.8921c0.0648,-0.297 0.1624,-0.5932 0.1952,-0.892c0.0328,-0.2966 0,-0.595 0,-0.8921c0,-0.3715 0,-0.7435 0,-1.115c0,-0.3716 0.2609,-0.7748 0,-1.1151c-0.2405,-0.3135 -0.9028,-0.7279 -1.3668,-0.669c-0.4147,0.0526 -0.2608,0.595 -0.3905,0.892c-0.1296,0.2971 -0.3241,0.5883 -0.3905,0.8921c-0.0648,0.2948 0,0.595 0,0.892c0,0.2971 -0.0289,0.5955 0,0.8921c0.0359,0.3724 0.1953,1.1083 0.1953,1.115c0,0.0071 -0.1609,-0.6677 -0.1953,-1.0035c-0.0305,-0.2966 0,-0.595 0,-0.8921c0,-0.297 0.0906,-0.5994 0,-0.892c-0.107,-0.347 -0.3749,-0.9795 -0.5858,-1.0036c-0.2109,-0.0241 -0.2913,0.591 -0.3905,0.8921c-0.0968,0.2943 -0.1343,0.5945 -0.1953,0.892c-0.0687,0.3341 -0.0796,0.674 -0.1952,1.0036c-0.1453,0.4152 -0.5311,1.1801 -0.5858,1.2265c-0.0547,0.0464 0.1304,-0.595 0.1953,-0.892c0.0648,-0.2971 0.1093,-0.5968 0.1952,-0.8921c0.1094,-0.3733 0.2609,-0.7435 0.3905,-1.115c0.1297,-0.3716 0.1812,-0.756 0.3906,-1.1151c0.1835,-0.3149 0.713,-0.562 0.781,-0.892c0.0703,-0.3399 -0.0781,-0.9442 -0.3905,-1.0036c-0.2734,-0.0522 -0.5811,0.5036 -0.7811,0.7806c-0.2585,0.3586 -0.4381,0.7368 -0.5857,1.115c-0.1141,0.2922 -0.0547,0.6035 -0.1953,0.8921c-0.1874,0.3853 -0.5701,0.7337 -0.781,1.115c-0.1804,0.3265 -0.2968,0.6655 -0.3905,1.0036c-0.1016,0.3684 -0.1609,0.7426 -0.1953,1.115c-0.0305,0.3337 -0.0125,0.9964 0,1.0036c0.0125,0.0071 0.1304,-0.595 0.1953,-0.8921c0.0648,-0.297 0.1304,-0.595 0.1952,-0.892c0.0648,-0.2971 0.1406,-0.5946 0.1953,-0.8921c0.075,-0.4076 0.089,-0.8211 0.1952,-1.2265c0.0891,-0.3385 0.2867,-0.6664 0.3906,-1.0036c0.0913,-0.2948 0.2475,-0.5941 0.1952,-0.892c-0.0797,-0.4572 -0.4983,-1.2881 -0.5858,-1.3381c-0.0874,-0.0499 0.0688,0.6717 0,1.0036c-0.0624,0.3042 -0.2741,0.5932 -0.3905,0.892c-0.1437,0.3698 -0.2921,0.7404 -0.3905,1.1151c-0.0968,0.3688 -0.1304,0.7435 -0.1953,1.115c-0.0648,0.3716 -0.1031,0.7458 -0.1952,1.1151c-0.1031,0.4108 -0.1992,0.826 -0.3905,1.2265c-0.2,0.4193 -0.5913,1.1833 -0.7811,1.2266c-0.1898,0.0433 -0.1952,-0.6672 -0.1952,-1.0035c0,-0.2993 0.0679,-0.6017 0.1952,-0.8921c0.1351,-0.3077 0.4288,-0.5878 0.5858,-0.892c0.1695,-0.3283 0.2968,-0.6655 0.3905,-1.0036c0.1016,-0.3684 0.0367,-0.7529 0.1953,-1.115c0.1695,-0.3881 0.5389,-0.74 0.781,-1.1151c0.2132,-0.3305 0.521,-0.6534 0.5858,-1.0035c0.0687,-0.3711 -0.0078,-1.0937 -0.1953,-1.1151c-0.1874,-0.0214 -0.5084,0.6726 -0.781,1.0036c-0.2476,0.3006 -0.521,0.5949 -0.781,0.892c-0.2601,0.297 -0.5421,0.5892 -0.7811,0.892c-0.3468,0.4403 -0.5686,0.9153 -0.9763,1.3381c-0.3132,0.3252 -0.9684,0.8921 -1.1715,0.8921c-0.2031,0 0.1304,-0.595 0.1952,-0.8921c0.0649,-0.297 0.075,-0.6008 0.1953,-0.892c0.1414,-0.343 0.3905,-0.6695 0.5858,-1.0036c0.1952,-0.3341 0.4163,-0.665 0.5858,-1.0035c0.221,-0.4416 0.4077,-0.8903 0.5857,-1.3381c0.1469,-0.3693 0.4897,-1.0584 0.3905,-1.1151c-0.0991,-0.0566 -0.6888,0.5067 -0.9762,0.7806c-0.2992,0.2845 -0.5772,0.5811 -0.7811,0.892c-0.1882,0.2868 -0.2608,0.595 -0.3905,0.8921c-0.1297,0.297 -0.2609,0.595 -0.3905,0.892c-0.1297,0.2971 -0.2468,0.5972 -0.3905,0.8921c-0.182,0.3733 -0.4038,0.7417 -0.5858,1.115c-0.1437,0.2948 -0.0945,0.864 -0.3905,0.8921c-0.2898,0.0276 -0.7116,-0.484 -0.7811,-0.7806c-0.071,-0.3033 0.2304,-0.5999 0.3906,-0.892c0.1655,-0.3029 0.4006,-0.5928 0.5857,-0.8921c0.2054,-0.3323 0.3726,-0.673 0.5858,-1.0035c0.2421,-0.3751 0.5592,-0.7355 0.781,-1.1151c0.2344,-0.4014 0.3624,-0.8229 0.5858,-1.2265c0.1672,-0.3024 0.6639,-0.8774 0.5858,-0.8921c-0.0781,-0.0147 -0.781,0.5205 -1.1716,0.7806c-0.3905,0.26 -0.8232,0.5017 -1.1715,0.7805c-0.3046,0.2435 -0.5592,0.5094 -0.781,0.7805c-0.2351,0.2877 -0.4507,0.5843 -0.5858,0.8921c-0.1273,0.2903 -0.068,0.6017 -0.1953,0.892c-0.1351,0.3078 -0.4506,0.5843 -0.5858,0.8921c-0.1273,0.2903 -0.1952,0.5927 -0.1952,0.892c0,0.2993 0.1585,0.8921 0.1952,0.8921c0.0367,0 0.1305,-0.595 0.1953,-0.8921c0.0648,-0.297 0.1304,-0.595 0.1953,-0.892c0.0648,-0.2971 0.1038,-0.5973 0.1952,-0.8921c0.1039,-0.3372 0.2304,-0.6735 0.3905,-1.0035c0.1648,-0.3394 0.4288,-0.6628 0.5858,-1.0036c0.1687,-0.3662 0.2046,-0.7515 0.3905,-1.115c0.271,-0.5299 0.9763,-1.5611 0.9763,-1.5611" fill="none" stroke="#ffb57c" stroke-width="1.27197" stroke-linecap="round"/><path d="M238.7386,38.3887c1.8598,1.8985 1.9708,5.1426 2.3826,7.8518c0.6078,3.9775 2.562,8.7031 0.867,12.4667c-1.1046,2.4526 -4.7695,2.7509 -7.3697,2.72c-1.1947,-0.0217 -1.5147,-1.5558 -2.1675,-2.4933c-2.6548,-4.2124 -6.4142,-7.9978 -7.5865,-12.6934c-0.6615,-2.6539 0.77,-5.7157 2.3826,-7.8518c1.037,-1.3782 2.9748,-1.118 4.4669,-0.9883c2.4086,-0.1297 5.3461,-0.7308 7.0246,0.9883z" fill="#ffd6a2" stroke="none" stroke-width="0.88707" stroke-linecap="round"/><path d="M221.8229,37.077c1.7341,0 3.306,0.8378 4.4435,2.1923c1.1384,1.3537 1.8424,3.2242 1.8424,5.2878c0,2.0636 -0.704,3.934 -1.8424,5.2877c-1.1375,1.3546 -2.7094,2.1923 -4.4435,2.1923c-1.734,0 -3.3059,-0.8377 -4.4434,-2.1923c-1.1384,-1.3537 -1.8425,-3.2241 -1.8425,-5.2877c0,-2.0636 0.7041,-3.9341 1.8425,-5.2878c1.1375,-1.3545 2.7094,-2.1923 4.4434,-2.1923z" fill="#ffd6a2" stroke="none" stroke-width="0.88707" stroke-linecap="butt"/><path d="M213.673,45.8717c0,0 -4.31,0.2847 -6.2859,-0.4533c-0.548,-0.2049 0.5158,-2.0636 0.2167,-1.8133c-0.6425,0.5376 -2.1008,3.5478 -2.1675,3.4453c-0.0668,-0.1024 1.5172,-4.4427 1.5172,-4.4427" fill="none" stroke="#ffefd6" stroke-width="1.77414" stroke-linecap="round"/><path d="M231.9998,56.4817c0,0 0.6837,1.0943 0.7699,1.7124c0.2793,2.015 0.3165,4.3524 0.3178,6.124c-0.0002,0.4796 -0.2849,-1.0696 -0.3154,-1.6215c-0.0285,-0.5058 0.0144,-1.026 0.139,-1.5305c0.2837,-1.1501 0.6402,-3.8932 1.0817,-3.4198c0.6787,0.7277 1.0553,4.3025 1.4013,6.0812c0.0921,0.4734 -0.4194,-1.0336 -0.5251,-1.5769c-0.1174,-0.6033 -0.1729,-1.2256 -0.1408,-1.8463c0.0602,-1.1544 0.198,-3.3601 0.4176,-3.4661c0.2196,-0.106 0.6542,1.8632 0.9801,2.7935c0.326,0.9303 0.8429,3.1386 0.9802,2.7935c0.1372,-0.3452 -0.2199,-3.0881 -0.2472,-4.6381c-0.0088,-0.5077 -0.0324,-1.9631 0.139,-1.5305c0.6862,1.731 1.2925,5.9166 1.576,5.8563c0.2835,-0.0603 0.5411,-6.3067 0.7306,-6.347c0.1896,-0.0403 0.8675,5.2768 1.1566,5.9456c0.2045,0.472 0.0899,-2.1378 0.0333,-3.1967c-0.1081,-2.0327 -0.7516,-4.07 -0.5275,-6.0794c0.056,-0.502 0.8773,0.3477 1.0841,1.0827c0.8261,2.9404 1.7523,9.0085 1.7523,9.0085" fill="none" stroke="#ffb57c" stroke-width="1.59638" stroke-linecap="round"/><path d="M249.6011,34.8603c2.4546,1.0164 2.4442,5.169 3.4681,7.7068c1.4861,3.6684 3.4854,7.3522 3.6848,11.3334c0.1769,3.5542 0.0911,8.4239 -2.601,10.8801c-1.8329,1.6456 -5.1831,-0.7689 -7.3697,-2.2667c-2.0566,-1.5522 -3.5522,-3.9649 -4.7764,-6.4673c-1.2719,-2.6049 -1.6786,-5.6069 -2.1598,-8.4928c-0.554,-3.2795 -3.5782,-7.5272 -1.5172,-10.2001c2.3184,-3.0074 7.5751,-3.6521 11.2712,-2.4934z" fill="#ffd6a2" stroke="none" stroke-width="0.88707" stroke-linecap="round"/><path d="M247.3509,36.437c1.643,-3.7881 10.4467,-4.8026 14.7393,-2.04c4.2259,2.9503 3.7724,10.1167 5.2021,15.4135c1.2711,4.7165 3.1456,9.6388 2.3843,14.5067c-0.4621,1.8923 -3.5409,2.1443 -5.4188,2.2667c-2.7234,0.1795 -6.6778,0.5776 -8.02,-1.8133c-2.4224,-4.3131 0.1405,-10.191 -1.3005,-14.9601c-1.4627,-4.8353 -9.2789,-9.4548 -7.5864,-13.3735z" fill="#ffd6a2" stroke="none" stroke-width="0.88707" stroke-linecap="round"/><path d="M266.908,30.5036c2.5118,0 4.955,0.2947 6.4359,1.6937c3.6311,11.7151 5.3374,20.4518 4.1851,29.5866c-0.3659,2.4126 -4.538,1.9384 -6.7194,1.8133c-1.708,-0.0979 -3.7091,-0.6138 -4.5518,-2.4933c-3.8141,-7.8999 -6.8296,-16.3564 -8.4535,-24.8202c-0.4058,-2.1162 1.0205,-3.0401 2.6678,-4.0864c1.6482,-1.0463 3.9242,-1.6937 6.4359,-1.6937z" fill="#ffd6a2" stroke="none" stroke-width="0.88707" stroke-linecap="round"/><path d="M277.2039,28.6903c1.5849,0 3.1325,0.3336 4.0603,1.7272c3.6857,5.5389 7.2899,11.9445 9.0534,18.6729c1.317,4.9867 3.0146,11.5021 -0.3035,15.1868c-2.7025,3.3239 -10.0479,3.2332 -12.355,-0.4533c-5.2177,-8.3405 -4.7964,-19.2061 -6.1992,-29.2402c-0.3503,-2.5088 0.6468,-3.1018 1.6837,-4.1662c1.0405,-1.0681 2.4754,-1.7272 4.0603,-1.7272z" fill="#ffd6a2" stroke="none" stroke-width="0.88707" stroke-linecap="round"/><path d="M235.1597,51.1708c2.4407,-0.2049 4.7201,1.9258 6.2859,4.08c2.3462,3.2269 4.1115,7.0984 4.7687,11.1068c1.2537,7.6342 1.8693,17.5423 1.0837,23.5735c-0.2757,2.0645 -1.9863,-5.2342 -3.468,-7.7067c-3.6303,-6.1518 -8.183,-11.7242 -11.8435,-18.1217c-1.4376,-2.5133 -3.7464,-5.3204 -3.1127,-8.1719c0.5862,-2.6402 3.6589,-4.6911 6.2859,-4.76z" fill="url(#color-12)" stroke="none" stroke-width="0.88707" stroke-linecap="round"/><path d="M171.5493,55.2672c0.2272,-0.0254 0.137,5.5252 0.4335,8.3413c0.4162,3.9114 1.1115,7.88 1.8641,11.8321c0.3919,2.4064 1.9248,4.7837 1.604,7.2534c-0.4335,3.226 -2.0912,6.2225 -3.6848,9.0668c-1.3959,2.3464 -3.632,4.0945 -5.2022,6.3467c-1.2103,1.7363 -2.4267,3.4789 -3.2513,5.4854c-0.7803,1.7317 -1.343,5.4065 -1.5173,5.6213c-0.1725,0.2131 -0.0294,-2.895 0.2168,-4.3067c0.3433,-1.9602 0.8479,-3.9159 1.734,-5.6667c2.1225,-4.1952 4.7322,-8.1383 7.2397,-12.1041c0.6268,-0.991 0.6918,-0.0181 0.7369,-0.3173c0.0876,-1.4915 -0.1864,-2.9821 -0.3901,-4.352c-0.5081,-3.4082 -1.4905,-6.7937 -1.7341,-10.2001c-0.2228,-3.1208 -0.0373,-6.2842 0.3234,-9.3977c0.313,-2.7001 1.4237,-7.782 1.6274,-7.6024z" fill="url(#color-13)" stroke="none" stroke-width="0.88707" stroke-linecap="round"/><path d="M162.1141,95.5943c0,0 9.0932,-11.1015 10.6035,-17.6934c1.6638,-7.2851 -1.0516,-14.9665 -0.8529,-22.4421c0.0604,-2.2302 0.9483,-4.3756 1.9363,-6.3397c1.5675,-3.1723 3.7306,-5.8995 5.855,-8.6056c1.0871,-1.3899 4.9791,-3.6399 4.9791,-3.6399" fill="none" stroke="url(#color-14)" stroke-width="0.94337" stroke-linecap="round"/><path d="M203.2339,31.4177c1.5918,-0.3101 2.5161,2.4498 2.9045,4.08c0.3563,2.0708 -0.2922,4.2786 -0.8237,6.2561c-0.7768,2.8931 -1.3066,6.1717 -3.2947,8.3414c-1.317,1.4343 -3.9085,1.7172 -5.8524,1.2693c-1.9629,-0.4533 -4.7616,-1.6964 -5.072,-3.8534c-0.476,-3.4063 1.2259,-6.8363 3.208,-9.384c2.2568,-3.0719 5.3755,-6.0149 8.9303,-6.7094z" fill="#ffd6a2" stroke="none" stroke-width="0.88707" stroke-linecap="round"/><path d="M259.8737,16.8336c3.2357,1.5323 9.3491,5.7864 8.887,7.0267c-0.4621,1.2331 -7.896,-3.1779 -11.1846,-1.4507c-2.4493,1.4253 0.0728,8.1302 -1.604,8.4774c-1.747,0.3563 -4.1088,-4.1417 -5.2021,-6.6867c-1.2806,-2.9911 -3.9527,-7.8518 -1.9508,-9.6334c2.5499,-1.9013 7.6376,0.6501 11.0545,2.2667z" fill="url(#color-15)" stroke="none" stroke-width="0.88707" stroke-linecap="round"/><path d="M216.6288,16.511c3.0009,1.059 8.6338,4.0306 8.6089,4.1854c-0.0061,0.173 -5.8039,-2.1718 -8.8051,-2.1311c-2.5123,0.0334 -5.3483,0.8013 -7.1673,2.4647c-4.4816,4.0953 -10.9342,14.7444 -11.2414,14.532c-0.3088,-0.2131 4.8015,-11.6818 8.2199,-16.8759c1.0284,-1.5628 2.943,-2.5487 4.6826,-2.8978c1.9157,-0.4164 3.8906,0.0838 5.7024,0.7227z" fill="#e79a6b" stroke="none" stroke-width="0.8868" stroke-linecap="round"/><path d="M247.4909,14.4455c0.9492,0.3414 0.9813,1.5147 1.7153,2.8906c2.936,5.5027 8.5287,16.6628 8.2199,16.8759c-0.3072,0.2124 -6.7598,-10.4367 -11.2414,-14.532c-1.819,-1.6634 -4.6612,-2.6453 -7.1673,-2.4647c-4.6022,0.3327 -13.2593,4.2657 -13.5086,3.9179c-0.1216,-0.2348 7.3466,-5.6034 11.5931,-6.9361c3.2698,-1.0308 6.9568,-0.5466 10.389,0.2484z" fill="#e79a6b" stroke="none" stroke-width="0.8868" stroke-linecap="round"/><path d="M233.5277,10.5568c2.954,-0.097 6.3059,-0.7788 9.1037,0.4533c2.0401,0.9022 6.064,4.4962 4.7687,5.6668c-2.8231,1.8895 -8.7769,-0.5368 -13.0054,0.4533c-2.9192,0.6872 -5.9685,1.7607 -7.7164,4.1707c-2.6731,3.6874 -4.362,13.1377 -4.7687,13.2828c-0.3988,-0.0164 1.5529,-8.5781 1.0838,-12.6935c-0.1309,-1.1478 -1.5147,-1.7843 -2.6877,-2.04c-4.2658,-0.9411 -12.6022,0.0598 -13.0053,-1.5867c-0.4006,-1.641 7.0462,-4.9404 11.0545,-6.12c4.6853,-1.3773 10.0973,-1.4226 15.1728,-1.5867z" fill="#e79a6b" stroke="none" stroke-width="0.88707" stroke-linecap="round"/><path d="M243.065,10.5568c4.0229,0.3581 8.4023,0.942 12.1382,2.9467c5.2499,2.6937 14.4689,10.7513 14.3059,10.8801c-0.163,0.1269 -11.1152,-7.3214 -17.0968,-9.1837c-2.9938,-0.9312 -5.6998,0.7969 -9.3473,0.7969c-3.6476,0 -6.9536,-0.3046 -9.3474,-0.7969c-2.393,-0.4923 -3.8747,-1.1723 -3.8747,-1.9231c0,-0.7507 1.4817,-1.4307 3.8747,-1.923c2.3938,-0.4924 6.2321,-1.0717 9.3474,-0.797z" fill="#e79a6b" stroke="none" stroke-width="0.88707" stroke-linecap="round"/><path d="M220.9559,11.9168c2.543,-0.7099 5.4137,-2.1189 8.02,-1.36c1.343,0.389 1.9031,3.6648 0.867,4.08c-1.2399,0.6048 -3.345,-2.1397 -5.4189,-2.04c-2.8733,0.1387 -5.4275,1.4861 -8.2367,2.72c-2.4727,1.0944 -4.6151,2.6058 -6.9362,4.3067c-2.6374,1.9403 -7.3141,6.9787 -7.3696,6.5734c-0.0555,-0.4053 3.9302,-7.7203 7.3696,-10.2001c3.2245,-2.5087 7.7356,-2.9729 11.7048,-4.08z" fill="url(#color-16)" stroke="none" stroke-width="0.88707" stroke-linecap="round"/><path d="M239.4498,9.4435c7.0489,0.2929 14.2677,2.0446 21.242,4.3067c5.1822,1.7726 14.5807,6.2606 14.9561,7.7068c0.3703,1.4461 -8.9684,-0.2095 -13.4388,0c-10.7614,0.505 -21.5888,2.4008 -32.4266,2.3573c-7.4286,-0.1079 -14.7107,-2.7445 -22.1957,-2.8107c-5.0322,-0.0444 -16.4101,3.9377 -14.9561,2.2667c1.9924,-2.0246 15.2613,-8.9053 23.4096,-11.3334c7.5344,-2.2449 15.5795,-2.8143 23.4095,-2.4934z" fill="url(#color-17)" stroke="none" stroke-width="0.88707" stroke-linecap="round"/><path d="M283.1647,36.6237c0,0 0.6806,1.7852 0.867,2.72c0.5375,2.6964 0.8974,5.4373 1.3005,8.1601c0.391,2.6375 1.1696,5.4164 1.0838,7.9333c-0.0226,0.6565 -1.0725,-0.7924 -1.3005,-1.5866c-0.9113,-3.1761 -1.1393,-6.5408 -1.9508,-9.7468c-0.4908,-1.9384 -1.917,-6.8553 -1.9508,-5.6667c-0.0642,2.2857 1.4869,8.8872 1.734,13.3735c0.0616,1.1215 -0.8774,-0.9394 -1.0838,-1.5867c-0.8245,-2.5877 -1.1262,-5.3458 -1.9508,-7.9334c-0.2063,-0.6474 -1.0005,-2.108 -1.0837,-1.5867c-0.2419,1.5187 0.7413,3.8008 0.4335,5.6667c-0.0989,0.5993 -1.1089,1.1732 -1.5173,0.9067c-0.4587,-0.3001 -0.1448,-1.3609 -0.2168,-2.04c-0.0719,-0.6791 0.007,-1.3981 -0.2167,-2.04c-0.0893,-0.2557 -0.6503,-0.4534 -0.6503,-0.4534" fill="none" stroke="#ffefd6" stroke-width="1.77414" stroke-linecap="round"/><path d="M271.2431,42.0637c0,0 -0.019,5.2986 -0.2167,7.9334c-0.0919,1.2249 -0.3009,3.2006 -0.6503,3.6267c-0.2393,0.2919 -0.5315,-1.3346 -0.6503,-2.04c-0.3156,-1.8714 -0.1647,-4.2278 -0.6502,-5.6667c-0.1648,-0.4878 -0.2922,1.2884 -0.6503,1.8133c-0.3867,0.5667 -0.9468,1.0019 -1.5173,1.36c-0.1855,0.1161 -0.6502,0 -0.6502,0" fill="none" stroke="#ffefd6" stroke-width="1.77414" stroke-linecap="round"/><path d="M252.2177,48.3349c0,0 -0.8374,0.1406 -1.2347,0.2869c-0.3852,0.1423 -0.7013,0.47 -1.0975,0.5738c-0.3545,0.093 -0.732,0 -1.0975,0c-0.7764,0 -1.5562,0.0299 -2.3321,0c-0.4588,-0.0178 -0.9142,-0.1067 -1.3719,-0.1434c-0.1366,-0.0109 -0.4116,0 -0.4116,0" fill="none" stroke="#ffefd6" stroke-width="1.12287" stroke-linecap="round"/><path d="M192.7778,26.1969c2.2291,0.9502 3.6146,3.8135 4.5518,6.3467c0.7873,2.1334 0.0364,4.6531 -0.3468,6.8681c-0.3477,2.0056 -0.6243,4.3747 -1.6326,5.8807c-1.0083,1.506 -2.4459,2.7608 -3.938,2.438c-3.8669,-0.835 -8.5185,-2.1832 -11.2062,-5.44c-1.1896,-1.5486 1.1279,-3.7772 1.9507,-5.4401c1.8,-2.8233 3.6727,-5.6368 5.8524,-7.9334c1.2312,-1.2947 2.954,-3.3429 4.7687,-2.72z" fill="#ffd6a2" stroke="none" stroke-width="0.88707" stroke-linecap="round"/><path d="M224.6408,38.6637c0,0 -0.1934,0.602 -0.2168,0.4533c-0.085,-0.5313 0.0494,-1.2113 0,-1.8133c-0.052,-0.6401 0.02,-2.167 -0.3034,-1.904c-0.6503,0.5286 -1.4705,3.5278 -1.6474,3.4907c-0.1769,-0.0372 0.5332,-3.6975 0.3468,-3.7627c-0.1864,-0.0653 -1.167,2.1733 -1.6473,3.3093c-0.2437,0.5767 -0.4578,2.3175 -0.5202,1.8134c-0.1977,-1.6039 0,-6.0294 0,-6.0294" fill="none" stroke="#ffb57c" stroke-width="1.77414" stroke-linecap="round"/><path d="M237.6461,37.6663c0,0 -0.789,-0.388 -1.2139,-0.4533c-0.5713,-0.0879 -1.1566,0.0218 -1.734,0c-0.6078,-0.0236 -1.2199,-0.2303 -1.8207,-0.136c-0.5835,0.0916 -1.0725,0.8187 -1.6474,0.68c-0.5679,-0.1369 -0.7378,-1.4897 -1.1705,-1.36c-0.4777,0.1423 -0.5627,1.8922 -0.6502,1.904c-0.0876,0.0118 0.0347,-1.2104 0,-1.8133c-0.0382,-0.6673 -0.2168,-1.9947 -0.2168,-1.9947" fill="none" stroke="#ffb57c" stroke-width="1.77414" stroke-linecap="round"/><path d="M253.5993,32.317c0,0 -0.1908,0.3554 -0.2601,0.544c-0.2194,0.5975 -0.0876,1.6284 -0.607,1.8133c-0.4994,0.1777 -0.847,-1.0046 -1.4305,-1.088c-0.6061,-0.087 -1.2642,0.2249 -1.7341,0.6347c-0.4569,0.398 -0.2896,1.4842 -0.867,1.632c-0.5636,0.1451 -0.952,-1.2322 -1.4306,-1.0427c-0.4968,0.1959 -0.463,1.8134 -0.5202,1.8134c-0.0572,0 0.3199,-1.3111 0,-1.8134c-0.3329,-0.5231 -1.0543,-0.6673 -1.6473,-0.7706c-0.5723,-0.0998 -1.291,-0.2104 -1.7341,0.1813c-0.4604,0.4071 -0.0017,1.583 -0.5202,1.8133c-0.5003,0.2231 -0.9589,-1.0762 -1.5173,-0.9066c-0.5705,0.174 -0.7985,2.0064 -0.867,1.632c-0.1327,-0.7226 0.4335,-3.9894 0.4335,-3.9894" fill="none" stroke="#ffb57c" stroke-width="1.77414" stroke-linecap="round"/><path d="M269.1623,66.4532c0,0 0.2306,-1.1569 0.13,-1.7226c-0.1075,-0.6039 -0.5228,-1.7064 -0.7369,-1.6774c-0.2142,0.029 -0.1899,1.2068 -0.2601,1.8134c-0.0746,0.6473 0.1491,1.3908 -0.1734,1.9493c-0.222,0.3844 -1.141,0.7009 -1.2139,0.4533c-0.0997,-0.3391 0.7275,-1.0272 0.867,-1.632c0.2723,-1.1796 0.4041,-3.1253 0.3469,-3.6267c-0.0365,-0.3173 -0.287,1.1896 -0.5636,1.7227c-0.2801,0.5386 -0.8185,1.5395 -1.0838,1.4507c-0.2653,-0.0889 0.2263,-2.0799 0,-1.8134c-0.4092,0.4824 -0.6589,2.8361 -1.3872,3.4454c-0.3555,0.2974 -0.4335,-1.6764 -0.7803,-1.632c-0.3685,0.0462 -0.4847,2.128 -0.6503,1.8133c-0.2653,-0.505 -0.1595,-2.4235 -0.3035,-3.6267c-0.0728,-0.6111 -0.1179,-2.2594 -0.3468,-1.8133c-0.7031,1.3673 -1.0439,5.0275 -1.5173,5.44c-0.4092,0.3564 -0.1005,-3.011 -0.5635,-3.6267c-0.248,-0.33 -0.7639,1.0835 -0.867,1.7227c-0.1934,1.1905 0.1734,3.9975 0,3.6267c-0.1734,-0.3708 -0.6538,-5.2514 -0.9538,-5.6667c-0.2869,-0.3971 -0.1265,3.6267 -0.5202,3.6267c-0.3936,0 -0.9589,-3.6757 -1.4306,-3.6267c-0.4716,0.049 -0.5323,3.9377 -0.7369,3.8534c-0.2046,-0.0844 -0.6936,-4.4427 -0.6936,-4.4427" fill="none" stroke="#ffb57c" stroke-width="1.77414" stroke-linecap="round"/><path d="M254.4663,62.3732c0,0 0.0615,3.4916 -0.1301,4.08c-0.1153,0.3545 -0.4335,-1.2847 -0.5635,-1.9493c-0.1162,-0.5948 -0.0529,-1.2195 -0.1734,-1.8134c-0.1266,-0.621 -0.437,-2.1597 -0.5636,-1.8133c-0.228,0.6229 -0.1474,2.6302 -0.2168,3.944c-0.032,0.6039 0.0009,1.8261 -0.0867,1.8134c-0.0875,-0.0127 -0.4274,-1.2558 -0.5635,-1.904c-0.1249,-0.5948 -0.052,-1.2295 -0.2168,-1.8134c-0.1717,-0.6093 -0.6164,-2.05 -0.7803,-1.7227c-0.2783,0.5549 0.3945,2.5732 -0.1734,3.6267c-0.2844,0.5268 -1.415,0.4135 -1.734,-0.0906c-0.6304,-0.9956 -0.4388,-2.3492 -0.5636,-3.5361c-0.0633,-0.6002 -0.2913,-1.7009 0,-1.8133c0.2939,-0.1143 0.9606,0.7915 1.1705,1.36c0.2081,0.563 -0.0382,1.2104 0,1.8133c0.0771,1.2114 0.7872,2.5043 0.3468,3.6267c-0.2194,0.5594 -1.4202,0.4171 -1.7341,-0.0906c-1.0326,-1.6729 -1.2892,-3.7555 -1.8207,-5.6667c-0.163,-0.5867 -0.4275,-1.7517 -0.2601,-1.8134c0.1673,-0.0616 0.9095,0.904 1.1271,1.496c0.2072,0.5649 0.0095,1.2141 0.0867,1.8134c0.0676,0.5222 0.3468,1.5413 0.3468,1.5413" fill="none" stroke="#ffb57c" stroke-width="1.77414" stroke-linecap="round"/><path d="M262.9491,50.858c0,0 0.4136,1.6547 0.5258,2.4978c0.1479,1.1202 0.214,2.103 0.2388,3.1568c0.0423,1.727 0.157,3.6375 -0.0194,5.4387c-0.136,1.3723 -1.0739,4.193 -1.0739,4.193" fill="none" stroke="#ffb57c" stroke-width="1.12282" stroke-linecap="round"/><path d="M180.9809,124.6274c-1.6298,11.3905 -12.3329,17.2939 -15.5007,21.3068c-1.3544,1.6909 4.6904,-4.6431 6.2511,-8.4321c1.3798,-4.3175 3.1286,-9.6905 2.1346,-14.6881c-2.5142,-7.5807 -12.4788,-5.7283 -12.4514,-14.5068c0.0396,-12.2872 9.2292,-25.9644 12.4514,-29.4668c2.1645,-1.9929 0.4695,11.3415 -2.5411,25.3868c0.7379,8.6823 10.888,11.785 9.6561,20.4002z" fill="url(#color-18)" stroke="none" stroke-width="0.73497" stroke-linecap="round"/><path d="M256.2003,103.2929c0.1361,0.067 -0.3797,0.4161 -0.3901,0.68c-0.0156,0.3808 0.0884,0.7779 0.2167,1.1333c0.1812,0.3545 0.8757,0.972 0.6936,0.952c-0.2384,-0.0245 -1.0751,-0.6863 -1.5623,-1.1016c-0.2038,-0.1732 -0.4318,-0.4198 -0.4318,-0.6891c0,-0.2693 0.1647,-0.5122 0.4318,-0.689c0.267,-0.1768 0.834,-0.3854 1.0421,-0.2856z" fill="#ffa56f" stroke="none" stroke-width="0.88707" stroke-linecap="round"/><path d="M257.9348,100.9687c0.1727,-0.1777 0.6832,-0.2998 0.645,-0.068c-0.0223,0.774 -0.2191,1.6629 -0.7719,2.1742c-0.8664,0.799 -2.1738,1.0727 -3.3248,1.4075c-3.1261,0.912 -6.3369,2.0973 -9.6162,2.3907c-2.8881,0.2578 -9.1581,-0.3746 -8.5367,-0.7463c0.5563,-0.3734 8.1627,-1.0112 12.2915,-1.6302c2.6672,-0.3998 5.4527,-0.4013 7.9731,-1.4392c0.7448,-0.3062 0.7719,-1.499 1.34,-2.0887z" fill="#ffa56f" stroke="none" stroke-width="0.88663" stroke-linecap="round"/><path d="M243.7757,107.7665c-0.1968,-0.0254 0.5575,-0.6665 0.3468,-0.6801c-0.5696,-0.0344 -1.3542,0.7308 -1.9508,0.6801c-0.2445,-0.0218 0.5246,-0.8632 0.3035,-0.9067c-0.4049,-0.0789 -1.0274,0.6909 -1.4739,0.68c-0.2029,-0.0055 0.4794,-0.6564 0.3034,-0.68c-0.5609,-0.0898 -1.1861,0.5558 -1.7774,0.4533c-0.2375,-0.0417 0.3538,-0.6619 0.1301,-0.7707c-0.5202,-0.2502 -1.8338,0.0028 -1.8208,-0.0453c0.0607,-0.0308 1.4514,-0.2647 2.191,-0.35c0.9555,-0.1169 1.7973,-0.2393 2.8811,-0.2393c1.0838,0 1.9309,0.1396 2.8811,0.2393c0.4257,0.0463 1.3266,-0.097 1.2373,0.078c-0.1171,0.2947 -1.1159,0.7009 -1.6907,0.952c-0.509,0.224 -1.0873,0.651 -1.5607,0.5894z" fill="#ffa56f" stroke="none" stroke-width="0.88707" stroke-linecap="round"/><path d="M242.5531,91.9272c5.7189,0.4036 11.8175,1.4307 16.7769,3.862c1.4886,0.73 0.4179,2.8684 -0.1301,4.1752c-0.7621,1.5692 -1.8069,3.3005 -3.6415,4.1056c-3.5608,1.5623 -7.6358,2.4474 -11.6614,2.7139c-3.4551,0.2234 -7.2145,-0.2185 -10.4043,-1.4961c-1.6516,-0.6151 -2.5056,-2.2456 -3.0345,-3.7577c-0.6668,-1.8398 -0.985,-3.9087 -0.3035,-5.7409c0.3572,-0.9519 1.5398,-1.6144 2.7745,-2.018c3.0528,-0.9937 6.3422,-2.0751 9.6239,-1.844z" fill="#ffffff" stroke="none" stroke-width="0.78612" stroke-linecap="butt"/><path d="M244.8641,93.463c2.8861,-0.0999 6.405,-1.2077 8.6481,0.3331c1.7707,1.2163 0.8764,3.9201 0.5817,5.8286c-0.2916,1.8938 -0.9509,3.9748 -2.5572,5.2977c-1.6171,1.331 -4.1014,1.9238 -6.3623,1.8965c-2.1213,0.0273 -4.4412,-0.5948 -5.9745,-1.8965c-1.5831,-1.3442 -2.3176,-3.3986 -2.5572,-5.2977c-0.2358,-1.8625 -0.7066,-4.3452 0.9307,-5.5955c1.8374,-1.4035 4.853,-0.5882 7.2907,-0.5662z" fill="#65e48d" stroke="none" stroke-width="0.72295" stroke-linecap="butt"/><path d="M245.3167,95.1424c0.9168,0 1.7478,0.495 2.3501,1.2954c0.6017,0.7999 0.9739,1.9046 0.9739,3.1242c0,1.2195 -0.3722,2.3242 -0.9739,3.1241c-0.6023,0.8004 -1.4333,1.2954 -2.3501,1.2954c-0.9168,0 -1.7478,-0.495 -2.3501,-1.2954c-0.6016,-0.7999 -0.9739,-1.9046 -0.9739,-3.1241c0,-1.2196 0.3723,-2.3243 0.9739,-3.1242c0.6023,-0.8004 1.4333,-1.2954 2.3501,-1.2954z" fill="#324f35" stroke="none" stroke-width="0.59352" stroke-linecap="round"/><path d="M244.7185,96.2092c1.1085,0 2.1126,0.1318 2.8399,0.3446c0.7273,0.2137 1.1777,0.5075 1.1777,0.8323c0,0.3248 -0.4504,0.6185 -1.1777,0.8322c-0.7273,0.2128 -1.7314,0.3446 -2.8399,0.3446c-1.1085,0 -2.1126,-0.1318 -2.8399,-0.3446c-0.7273,-0.2137 -1.1777,-0.5074 -1.1777,-0.8322c0,-0.3248 0.4504,-0.6186 1.1777,-0.8323c0.7273,-0.2128 1.7314,-0.3446 2.8399,-0.3446z" fill="url(#color-19)" stroke="none" stroke-width="1.06357" stroke-linecap="butt"/><path d="M246.5422,92.8157c2.2902,-0.0968 4.981,-0.5015 6.8228,0.5959c1.3424,0.7989 1.1569,2.521 1.1091,3.8339c-0.209,1.2579 -0.2063,3.7132 -1.8485,3.5749c-4.339,-0.3658 -7.1636,-4.5323 -11.5954,-4.7147c-2.1234,-0.0871 -2.2626,3.9951 -3.4954,4.1189c-0.9545,0.0963 -1.2637,-2.4242 -1.1763,-3.6785c0.1848,-1.1709 0.5908,-2.6683 1.9493,-3.2123c2.4414,-0.9776 5.473,-0.6409 8.2344,-0.5181z" fill="url(#color-20)" stroke="none" stroke-width="0.60011" stroke-linecap="butt"/><path d="M244.7513,94.7219c0.6296,0 1.2007,0.0894 1.6137,0.2341c0.4129,0.1443 0.669,0.3439 0.669,0.5642c0,0.2203 -0.2561,0.4199 -0.669,0.5642c-0.413,0.1447 -0.9841,0.2341 -1.6137,0.2341c-0.6296,0 -1.2007,-0.0894 -1.6137,-0.2341c-0.413,-0.1443 -0.669,-0.3439 -0.669,-0.5642c0,-0.2203 0.256,-0.4199 0.669,-0.5642c0.413,-0.1447 0.9841,-0.2341 1.6137,-0.2341z" fill="url(#color-21)" stroke="none" stroke-width="0.4786" stroke-linecap="butt"/><path d="M245.2271,96.393c0.3589,0 0.684,0.0389 0.919,0.1023c0.2358,0.0626 0.3815,0.1496 0.3815,0.2456c0,0.096 -0.1457,0.183 -0.3815,0.2456c-0.235,0.0634 -0.5601,0.1023 -0.919,0.1023c-0.359,0 -0.6841,-0.0389 -0.9191,-0.1023c-0.2358,-0.0626 -0.3815,-0.1496 -0.3815,-0.2456c0,-0.096 0.1457,-0.183 0.3815,-0.2456c0.235,-0.0634 0.5601,-0.1023 0.9191,-0.1023z" fill="#ffffff" stroke="none" stroke-width="0.78612" stroke-linecap="butt"/><path d="M245.6489,101.5777c1.734,0 3.3059,0.2846 4.4434,0.7445c1.1384,0.4593 1.8425,1.0946 1.8425,1.7954c0,0.7007 -0.7041,1.336 -1.8425,1.7953c-1.1375,0.46 -2.7094,0.7446 -4.4434,0.7446c-1.7341,0 -3.306,-0.2846 -4.4435,-0.7446c-1.1384,-0.4593 -1.8424,-1.0946 -1.8424,-1.7953c0,-0.7008 0.704,-1.3361 1.8424,-1.7954c1.1375,-0.4599 2.7094,-0.7445 4.4435,-0.7445z" fill="url(#color-22)" stroke="none" stroke-width="0.78612" stroke-linecap="butt"/><path d="M245.6316,91.8567c3.2921,0.2928 6.644,0.4869 9.9274,1.1786c0.821,0.1732 -0.6564,0.9466 -0.2601,0.9974c1.4999,0.185 3.4282,-0.9058 4.5952,-0.544c0.4699,0.1478 -1.5295,1.3355 -1.1272,1.4507c0.7587,0.2185 2.8491,-1.1143 3.2947,-0.816c0.3538,0.2402 -1.8597,1.2666 -1.4306,1.9493c0.9425,1.4924 5.021,2.7853 4.2051,2.72c-1.0092,-0.009 -5.607,-2.2404 -8.6269,-2.9013c-4.3203,-0.9466 -8.7274,-1.6266 -13.1353,-1.8587c-3.0493,-0.1605 -6.0778,0.1949 -9.0604,0.7253c-2.6409,0.4706 -6.7836,2.4372 -7.8465,2.448c-0.7171,0.0037 2.2837,-1.5658 3.468,-2.2666c0.9616,-0.5703 1.7306,-1.0781 2.6878,-1.36c2.5109,-0.7363 5.3409,-1.3936 8.0633,-1.7227c1.7098,-0.2067 3.4785,-0.1007 5.2455,0z" fill="#ffa56f" stroke="none" stroke-width="0.88707" stroke-linecap="round"/><path d="M237.9715,95.546c0.0956,0 0.1823,0.0407 0.2452,0.1062c0.0627,0.0658 0.1016,0.1565 0.1016,0.2565c0,0.1 -0.0389,0.1907 -0.1016,0.2565c-0.0629,0.0655 -0.1496,0.1062 -0.2452,0.1062c-0.0957,0 -0.1824,-0.0407 -0.2453,-0.1062c-0.0627,-0.0658 -0.1015,-0.1565 -0.1015,-0.2565c0,-0.1 0.0388,-0.1907 0.1015,-0.2565c0.0629,-0.0655 0.1496,-0.1062 0.2453,-0.1062z" fill="#b3ffc6" stroke="none" stroke-width="0.25345" stroke-linecap="butt"/><path d="M238.6715,96.446c0.0956,0 0.1823,0.0407 0.2452,0.1062c0.0627,0.0658 0.1016,0.1565 0.1016,0.2565c0,0.1 -0.0389,0.1907 -0.1016,0.2565c-0.0629,0.0655 -0.1496,0.1062 -0.2452,0.1062c-0.0957,0 -0.1824,-0.0407 -0.2453,-0.1062c-0.0627,-0.0658 -0.1015,-0.1565 -0.1015,-0.2565c0,-0.1 0.0388,-0.1907 0.1015,-0.2565c0.0629,-0.0655 0.1496,-0.1062 0.2453,-0.1062z" fill="#51d57a" stroke="none" stroke-width="0.25345" stroke-linecap="butt"/><path d="M248.9715,94.746c0.0956,0 0.1823,0.0407 0.2452,0.1062c0.0627,0.0658 0.1016,0.1565 0.1016,0.2565c0,0.1 -0.0389,0.1907 -0.1016,0.2565c-0.0629,0.0655 -0.1496,0.1062 -0.2452,0.1062c-0.0957,0 -0.1824,-0.0407 -0.2453,-0.1062c-0.0627,-0.0658 -0.1015,-0.1565 -0.1015,-0.2565c0,-0.1 0.0388,-0.1907 0.1015,-0.2565c0.0629,-0.0655 0.1496,-0.1062 0.2453,-0.1062z" fill="#b3ffc6" stroke="none" stroke-width="0.25345" stroke-linecap="butt"/><path d="M238.9438,95.1108c0.0418,0 0.0797,0.0178 0.1073,0.0464c0.0274,0.0288 0.0444,0.0685 0.0444,0.1122c0,0.0438 -0.017,0.0834 -0.0444,0.1122c-0.0276,0.0287 -0.0655,0.0465 -0.1073,0.0465c-0.0419,0 -0.0798,-0.0178 -0.1073,-0.0465c-0.0275,-0.0288 -0.0445,-0.0684 -0.0445,-0.1122c0,-0.0437 0.017,-0.0834 0.0445,-0.1122c0.0275,-0.0286 0.0654,-0.0464 0.1073,-0.0464z" fill="#b3ffc6" stroke="none" stroke-width="0.11089" stroke-linecap="butt"/><path d="M257.8003,103.2929c0.0867,0.0943 -0.3797,0.4161 -0.3901,0.68c-0.0156,0.3808 0.0884,0.7779 0.2167,1.1333c0.1812,0.3545 0.8757,0.972 0.6936,0.952c-0.2384,-0.0245 -1.0751,-0.6863 -1.5623,-1.1016c-0.2038,-0.1732 -0.4847,-0.4225 -0.4318,-0.6891c0.0685,-0.3318 0.502,-0.5086 0.8237,-0.7026c0.176,-0.1351 0.5496,-0.3754 0.6502,-0.272z" fill="#ffa56f" stroke="none" stroke-width="0.88707" stroke-linecap="round"/><path d="M257.5191,102.7842c0.107,0.0348 -0.2391,0.3479 -0.2207,0.5436c0.026,0.2825 0.1419,0.5642 0.2715,0.8125c0.1686,0.2419 0.7417,0.6224 0.6055,0.6273c-0.1783,0.0077 -0.8606,-0.3903 -1.2609,-0.644c-0.1674,-0.1057 -0.3598,-0.263 -0.3864,-0.4616c-0.0265,-0.1986 0.071,-0.3956 0.2505,-0.5548c0.1795,-0.1592 0.5772,-0.3741 0.7405,-0.323z" fill="#ffa56f" stroke="none" stroke-width="0.66056" stroke-linecap="round"/><path d="M234.9681,87.9433c2.0649,-0.045 6.2203,0.3608 6.2358,0.4074c0.0155,0.0484 -4.1143,-0.0721 -6.1201,0.3206c-2.1104,0.414 -4.3966,0.9094 -6.2429,2.1317c-0.631,0.4225 0.0211,2.4336 -0.3971,2.5307c-0.4509,-0.0026 -1.5289,-1.525 -1.341,-2.3417c0.2483,-1.0638 0.9073,-1.6734 2.3318,-2.2256c1.4236,-0.5513 3.6214,-0.7839 5.5335,-0.8231z" fill="url(#color-23)" stroke="none" stroke-width="0.88707" stroke-linecap="round"/><path d="M235.5546,80.8667c2.2725,0 3.9302,0.155 5.8229,0.6446c2.784,0.719 8.2913,2.8651 8.2662,2.9821c-0.0252,0.1169 -5.7787,-1.3174 -8.7136,-1.4507c-2.145,-0.0979 -4.3117,0.3536 -6.4593,0.6347c-1.5849,0.2448 -3.1282,1.107 -4.7391,0.942c-0.9407,-0.0961 -2.4138,-0.9475 -2.4138,-1.554c0,-0.6066 0.9234,-1.156 2.4138,-1.5541c1.4913,-0.398 3.5504,-0.6446 5.8229,-0.6446z" fill="#ffa56f" stroke="none" stroke-width="0.88707" stroke-linecap="round"/><path d="M201.0007,103.9369c0.5921,0.4848 -5.355,0.7177 -7.8507,-0.0932c-2.8423,-0.9233 -5.1636,-3.2212 -7.7037,-4.9825c-0.6608,-0.4938 -2.4508,-2.0251 -1.8824,-1.7724c1.3406,0.597 3.9054,2.8591 6.1351,3.6584c3.6377,1.5001 10.7243,2.7059 11.3017,3.1897z" fill="#ffa56f" stroke="none" stroke-width="0.77609" stroke-linecap="round"/><path d="M211.4766,82.0169c0.7135,0.3345 2.1094,0.6771 1.8883,1.237c-0.3529,0.8738 -2.0232,1.7854 -3.2389,1.7509c-1.8542,-0.1953 -3.4097,-1.8648 -5.2773,-2.388c-2.0587,-0.5782 -4.1707,-0.7951 -6.2388,-1.0884c-1.4639,-0.1566 -2.9692,-0.1814 -4.3539,-0.2616c-1.1819,-0.0685 -3.5539,-0.033 -3.5237,-0.1315c0.0397,-0.0932 2.852,-0.6542 4.3678,-0.7437c2.518,-0.1577 5.1441,-0.1912 7.7131,0.0019c1.9485,0.1468 3.81,0.4855 5.6857,0.88c1.0303,0.2214 2.0357,0.319 2.9777,0.7434z" fill="#ffa56f" stroke="none" stroke-width="0.86012" stroke-linecap="round"/><path d="M236.0216,130.0692c0,0 -9.5295,2.7621 -14.4067,3.2915c-3.0264,0.3285 -6.1628,-0.0373 -9.1215,-0.7347c-3.1716,-0.7661 -9.0172,-3.5951 -9.0172,-3.5951" fill="none" stroke="#dbb6a0" stroke-width="0.85845" stroke-linecap="round"/><path d="M252.1912,112.6844c0.209,0 0.3988,0.0635 0.5367,0.1659c0.137,0.1025 0.2219,0.2448 0.2219,0.4008c0,0.1559 -0.0849,0.2983 -0.2219,0.4007c-0.1379,0.1025 -0.3277,0.166 -0.5367,0.166c-0.209,0 -0.3988,-0.0635 -0.5367,-0.166c-0.137,-0.1024 -0.2219,-0.2448 -0.2219,-0.4007c0,-0.156 0.0849,-0.2983 0.2219,-0.4008c0.1379,-0.1024 0.3277,-0.1659 0.5367,-0.1659z" fill="#ffd9a8" stroke="none" stroke-width="0.88707" stroke-linecap="butt"/><path d="M287.4833,97.7708c1.2564,-0.7272 3.4759,-1.7045 4.2485,-0.5893c1.5563,2.2784 1.1982,5.5851 1.2571,8.296c0.033,1.5323 -0.0503,3.3058 -0.9849,4.4862c-2.3947,3.022 -7.8205,7.5526 -8.8558,7.7539c-0.9138,0.1206 3.0814,-4.4853 3.9016,-6.936c0.4726,-1.4108 0.4362,-3.0283 0.1301,-4.4881c-0.3806,-1.8124 -2.3973,-3.176 -2.3843,-5.032c0.1101,-1.4851 1.5216,-2.7663 2.6877,-3.4907z" fill="url(#color-24)" stroke="none" stroke-width="0.88707" stroke-linecap="butt"/><path d="M192.2412,117.6844c0.209,0 0.3988,0.0635 0.5367,0.1659c0.137,0.1025 0.2219,0.2448 0.2219,0.4008c0,0.1559 -0.0849,0.2983 -0.2219,0.4007c-0.1379,0.1025 -0.3277,0.166 -0.5367,0.166c-0.209,0 -0.3988,-0.0635 -0.5367,-0.166c-0.137,-0.1024 -0.2219,-0.2448 -0.2219,-0.4007c0,-0.156 0.0849,-0.2983 0.2219,-0.4008c0.1379,-0.1024 0.3277,-0.1659 0.5367,-0.1659z" fill="#ffd9a8" stroke="none" stroke-width="0.88707" stroke-linecap="butt"/><path d="M188.8412,113.1344c0.209,0 0.3988,0.0635 0.5367,0.1659c0.137,0.1025 0.2219,0.2448 0.2219,0.4008c0,0.1559 -0.0849,0.2983 -0.2219,0.4007c-0.1379,0.1025 -0.3277,0.166 -0.5367,0.166c-0.209,0 -0.3988,-0.0635 -0.5367,-0.166c-0.137,-0.1024 -0.2219,-0.2448 -0.2219,-0.4007c0,-0.156 0.0849,-0.2983 0.2219,-0.4008c0.1379,-0.1024 0.3277,-0.1659 0.5367,-0.1659z" fill="#ffd9a8" stroke="none" stroke-width="0.88707" stroke-linecap="butt"/><path d="M196.5912,112.9344c0.209,0 0.3988,0.0635 0.5367,0.1659c0.137,0.1025 0.2219,0.2448 0.2219,0.4008c0,0.1559 -0.0849,0.2983 -0.2219,0.4007c-0.1379,0.1025 -0.3277,0.166 -0.5367,0.166c-0.209,0 -0.3988,-0.0635 -0.5367,-0.166c-0.137,-0.1024 -0.2219,-0.2448 -0.2219,-0.4007c0,-0.156 0.0849,-0.2983 0.2219,-0.4008c0.1379,-0.1024 0.3277,-0.1659 0.5367,-0.1659z" fill="#ffd9a8" stroke="none" stroke-width="0.88707" stroke-linecap="butt"/><path d="M197.4412,115.8344c0.209,0 0.3988,0.0635 0.5367,0.1659c0.137,0.1025 0.2219,0.2448 0.2219,0.4008c0,0.1559 -0.0849,0.2983 -0.2219,0.4007c-0.1379,0.1025 -0.3277,0.166 -0.5367,0.166c-0.209,0 -0.3988,-0.0635 -0.5367,-0.166c-0.137,-0.1024 -0.2219,-0.2448 -0.2219,-0.4007c0,-0.156 0.0849,-0.2983 0.2219,-0.4008c0.1379,-0.1024 0.3277,-0.1659 0.5367,-0.1659z" fill="#ffd9a8" stroke="none" stroke-width="0.88707" stroke-linecap="butt"/><path d="M187.0912,116.2844c0.209,0 0.3988,0.0635 0.5367,0.1659c0.137,0.1025 0.2219,0.2448 0.2219,0.4008c0,0.1559 -0.0849,0.2983 -0.2219,0.4007c-0.1379,0.1025 -0.3277,0.166 -0.5367,0.166c-0.209,0 -0.3988,-0.0635 -0.5367,-0.166c-0.137,-0.1024 -0.2219,-0.2448 -0.2219,-0.4007c0,-0.156 0.0849,-0.2983 0.2219,-0.4008c0.1379,-0.1024 0.3277,-0.1659 0.5367,-0.1659z" fill="#ffd9a8" stroke="none" stroke-width="0.88707" stroke-linecap="butt"/><path d="M200.7412,109.6844c0.209,0 0.3988,0.0635 0.5367,0.1659c0.137,0.1025 0.2219,0.2448 0.2219,0.4008c0,0.1559 -0.0849,0.2983 -0.2219,0.4007c-0.1379,0.1025 -0.3277,0.166 -0.5367,0.166c-0.209,0 -0.3988,-0.0635 -0.5367,-0.166c-0.137,-0.1024 -0.2219,-0.2448 -0.2219,-0.4007c0,-0.156 0.0849,-0.2983 0.2219,-0.4008c0.1379,-0.1024 0.3277,-0.1659 0.5367,-0.1659z" fill="#ffd9a8" stroke="none" stroke-width="0.88707" stroke-linecap="butt"/><path d="M239.2412,112.4844c0.209,0 0.3988,0.0635 0.5367,0.1659c0.137,0.1025 0.2219,0.2448 0.2219,0.4008c0,0.1559 -0.0849,0.2983 -0.2219,0.4007c-0.1379,0.1025 -0.3277,0.166 -0.5367,0.166c-0.209,0 -0.3988,-0.0635 -0.5367,-0.166c-0.137,-0.1024 -0.2219,-0.2448 -0.2219,-0.4007c0,-0.156 0.0849,-0.2983 0.2219,-0.4008c0.1379,-0.1024 0.3277,-0.1659 0.5367,-0.1659z" fill="#ffd9a8" stroke="none" stroke-width="0.88707" stroke-linecap="butt"/><path d="M249.7412,115.8344c0.209,0 0.3988,0.0635 0.5367,0.1659c0.137,0.1025 0.2219,0.2448 0.2219,0.4008c0,0.1559 -0.0849,0.2983 -0.2219,0.4007c-0.1379,0.1025 -0.3277,0.166 -0.5367,0.166c-0.209,0 -0.3988,-0.0635 -0.5367,-0.166c-0.137,-0.1024 -0.2219,-0.2448 -0.2219,-0.4007c0,-0.156 0.0849,-0.2983 0.2219,-0.4008c0.1379,-0.1024 0.3277,-0.1659 0.5367,-0.1659z" fill="#ffd9a8" stroke="none" stroke-width="0.88707" stroke-linecap="butt"/><path d="M256.2412,109.6844c0.209,0 0.3988,0.0635 0.5367,0.1659c0.137,0.1025 0.2219,0.2448 0.2219,0.4008c0,0.1559 -0.0849,0.2983 -0.2219,0.4007c-0.1379,0.1025 -0.3277,0.166 -0.5367,0.166c-0.209,0 -0.3988,-0.0635 -0.5367,-0.166c-0.137,-0.1024 -0.2219,-0.2448 -0.2219,-0.4007c0,-0.156 0.0849,-0.2983 0.2219,-0.4008c0.1379,-0.1024 0.3277,-0.1659 0.5367,-0.1659z" fill="#ffd9a8" stroke="none" stroke-width="0.88707" stroke-linecap="butt"/><path d="M246.3912,111.3344c0.209,0 0.3988,0.0635 0.5367,0.1659c0.137,0.1025 0.2219,0.2448 0.2219,0.4008c0,0.1559 -0.0849,0.2983 -0.2219,0.4007c-0.1379,0.1025 -0.3277,0.166 -0.5367,0.166c-0.209,0 -0.3988,-0.0635 -0.5367,-0.166c-0.137,-0.1024 -0.2219,-0.2448 -0.2219,-0.4007c0,-0.156 0.0849,-0.2983 0.2219,-0.4008c0.1379,-0.1024 0.3277,-0.1659 0.5367,-0.1659z" fill="#ffd9a8" stroke="none" stroke-width="0.88707" stroke-linecap="butt"/><path d="M271.3298,78.3307c-1.0751,-2.5487 -6.9405,-4.4065 -6.8061,-4.4427c0.1335,-0.0363 6.9301,1.1478 8.2367,3.9893c1.3057,2.6022 -2.4103,5.4528 -2.2976,8.3868c0.0642,1.6365 2.0158,2.6048 3.0346,3.7626c2.9496,3.3566 9.4913,9.9499 9.1037,9.8375c-0.3876,-0.1125 -8.5211,-7.2335 -12.7452,-10.9708c-0.9667,-0.9339 -1.7141,-1.2158 -1.8641,-2.176c-0.1717,-1.1161 0.6329,-1.9784 0.9971,-2.9467c0.7161,-1.9076 3.103,-3.6267 2.3409,-5.44z" fill="#f9b079" stroke="none" stroke-width="0.88707" stroke-linecap="round"/><path d="M236.5623,31.0476c0,0 -0.385,0.4742 -0.2168,0.5894c0.4977,0.3418 1.4861,0.7688 1.7341,0.4533c0.2506,-0.3191 -0.1994,-1.4416 -0.737,-1.7227c-0.5644,-0.2956 -1.3196,0.0281 -1.8641,0.3627c-0.5054,0.311 -0.5739,1.1478 -1.0838,1.4507c-0.5054,0.301 -1.2025,-0.0209 -1.734,0.2266c-0.5523,0.2566 -0.8419,1.3664 -1.3872,1.224c-0.5818,-0.1523 -0.4153,-1.7662 -0.867,-1.8133c-0.4154,-0.0435 -0.6659,1.0472 -0.8671,1.632c-0.2089,0.6075 -0.1378,1.8659 -0.3468,1.904c-0.2089,0.0381 -0.3147,-1.2158 -0.6502,-1.7227c-0.3321,-0.5013 -0.9009,-1.3708 -1.3006,-1.224c-0.4023,0.1478 -0.1396,1.225 -0.3034,1.8134c-0.2281,0.8214 -0.4847,2.6357 -0.8671,2.4027c-0.5046,-0.3065 -0.4317,-3.5025 -0.997,-3.5361c-0.5653,-0.0335 -0.9546,3.0138 -1.3006,3.4001c-0.2262,0.252 0.02,-1.3002 0,-1.9494c-0.0234,-0.7561 -0.13,-2.2667 -0.13,-2.2667" fill="none" stroke="#ffb57c" stroke-width="1.77414" stroke-linecap="round"/><path d="M213.1527,35.8077c0,0 -0.0476,-0.4552 -0.0867,-0.68c-0.1049,-0.6057 -0.3762,-1.1987 -0.3468,-1.8134c0.0304,-0.6292 0.3408,-1.2113 0.5202,-1.8133c0.1812,-0.6057 0.5636,-1.8134 0.5636,-1.8134" fill="none" stroke="#ffb57c" stroke-width="1.77414" stroke-linecap="round"/><path d="M291.5998,96.3961c1.2277,0.292 1.0309,2.4616 1.3006,3.7627c0.2349,1.1352 0.2219,2.3256 0.2167,3.4907c-0.0043,1.1488 -0.0797,2.3655 -0.2167,3.536c-0.0694,0.6002 -0.2081,2.6829 -0.3035,1.8134c-0.5315,-3.4952 -0.1084,-7.1637 -0.9537,-10.5628c-0.2116,-0.8495 -1.2971,-0.9756 -1.9942,-0.952c-1.1817,0.0408 -3.7229,1.321 -3.3813,1.1334c0.3424,-0.1877 3.4542,-2.6511 5.3321,-2.2214z" fill="#dec7b0" stroke="none" stroke-width="0.88707" stroke-linecap="round"/><path d="M286.0796,98.8155c-0.4618,-0.2766 -0.3454,-1.1608 0.062,-0.9748c1.7116,0.7047 3.0477,-0.1501 4.9074,1.6059c1.8053,1.7066 2.1357,3.9505 2.6292,5.6443c0.1471,0.4201 -0.9933,-0.899 -1.3465,-1.4129c-0.7971,-1.1609 -0.7626,-2.532 -1.838,-3.3966c-1.7338,-1.3202 -2.8108,-0.5268 -4.4141,-1.4659z" fill="#ffe5cb" stroke="none" stroke-width="0.67367" stroke-linecap="round"/><path d="M290.2043,91.7073c0.9005,-0.2058 4.9935,-3.7645 6.4973,-0.2266c2.2333,4.3783 4.6144,14.6962 2.3843,19.0401c-7.5309,14.6718 -19.299,13.922 -26.8831,29.0136c-2.3028,4.5895 2.9311,19.9704 2.8214,19.9468c-0.1085,-0.0236 -6.0275,-14.5449 -3.8943,-19.9468c5.8892,-14.9067 17.0104,-15.3138 23.6245,-29.0136c2.0473,-4.2405 0.1776,-13.203 -1.0928,-18.8135c-0.4988,-2.1787 -4.0283,0.1143 -3.4573,0z" fill="#f9b079" stroke="none" stroke-width="0.69999" stroke-linecap="round"/><path d="M295.4043,95.9573c0.9005,-0.2058 5.1116,-4.0138 6.4973,-0.2266c1.7858,4.8661 2.6891,14.5874 0.7351,19.1761c-5.9596,13.8939 -16.9373,14.2003 -21.4587,30.3736c-2.08,7.4429 7.4207,21.2597 7.3714,21.3068c-0.1394,-0.1043 -10.8851,-13.0362 -8.8815,-21.7602c3.766,-16.399 15.3005,-15.6818 20.8031,-29.4669c1.8538,-4.9241 -0.2015,-13.7714 -1.6094,-19.4028c-0.5631,-2.2449 -4.0283,0.1143 -3.4573,0z" fill="#f9b079" stroke="none" stroke-width="0.69999" stroke-linecap="round"/><g stroke="none"><path d="M187.7618,99.9648c0.2181,0.168 0.3448,0.3832 0.329,0.6073c-0.0158,0.2242 -0.2253,0.4116 -0.4098,0.5398c-0.4411,0.3075 -1.1957,0.7929 -1.4011,0.7947c-0.1569,0.0023 0.4734,-0.4573 0.6492,-0.7382c0.1306,-0.2858 0.2429,-0.6082 0.2519,-0.9264c0.0065,-0.2204 -0.4143,-0.5513 -0.2939,-0.5965c0.1838,-0.0668 0.6567,0.1512 0.8747,0.3193z" fill="#ffa56f" stroke-width="0.75062" stroke-linecap="round"/><path d="M195.4342,103.9757c-0.477,-0.254 -1.3076,-0.6703 -1.3905,-0.9247c-0.0661,-0.1527 0.6961,0.0371 1.063,0.0319c0.8187,-0.0086 1.5516,-0.0585 2.4787,0.0263c0.9271,0.0848 1.6401,0.2526 2.4506,0.4248c0.6276,0.1288 1.8036,0.4324 1.8537,0.4628c0.0083,0.041 -1.1005,-0.2724 -1.5602,-0.1048c-0.1977,0.073 0.2717,0.6355 0.0661,0.6516c-0.5119,0.039 -1.0088,-0.5472 -1.4939,-0.5164c-0.152,0.0058 0.3891,0.6014 0.2197,0.5897c-0.3735,-0.0273 -0.8242,-0.645 -1.221,-0.6814c-0.3268,-0.045 0.0613,0.5389 -1.4225,0.0598c-0.1805,0.0192 0.4267,0.5874 0.2568,0.5931c-0.4086,0.0143 -0.8782,-0.3864 -1.3005,-0.6127z" fill="#ffa56f" stroke-width="0.75062" stroke-linecap="round"/><path d="M205.0608,93.4796c1.0325,0.4326 1.6341,1.186 2.2551,1.8969c1.0567,1.2131 3.2847,2.5829 2.7448,3.953c-0.8169,2.0606 -3.3988,3.5843 -6.0145,4.3173c-2.8061,0.785 -6.138,0.7389 -9.1306,-0.1943c-3.7689,-1.1761 -6.6874,-3.8176 -9.697,-5.9298c-0.8129,-0.6043 -0.8973,-1.0912 -0.8952,-1.5976c0.0087,-1.0025 -0.5446,-2.5169 0.6922,-2.9389c3.5224,-1.3642 7.6819,-1.8976 11.9206,-1.7948c2.8213,0.0687 5.5714,1.2221 8.1246,2.2882z" fill="#ffffff" stroke-width="0.66773" stroke-linecap="butt"/><path d="M204.2861,94.1719c1.3182,1.1758 0.779,3.1985 0.4682,4.7304c-0.3164,1.562 -1.0652,3.2145 -2.4982,4.2095c-1.388,0.9634 -3.409,1.2997 -5.222,1.1109c-1.9357,-0.1543 -4.0481,-0.8241 -5.3314,-2.0766c-1.2328,-1.2032 -1.2241,-2.9391 -1.2877,-4.4443c-0.0753,-1.661 -0.4484,-3.8441 1.1418,-4.8342c1.605,-1.1233 4.2405,-0.4474 6.4925,-0.2151c2.1285,0.2238 4.7232,0.1694 6.2368,1.5194z" fill="#65e48d" stroke-width="0.61348" stroke-linecap="butt"/><path d="M200.0316,95.1818c0.587,0.8555 0.7843,1.7794 0.7134,2.8696c-0.0708,1.0903 -0.4771,2.0487 -1.0764,2.7165c-0.6,0.6682 -1.3923,1.0454 -2.2347,0.9733c-0.8424,-0.072 -1.5772,-0.5799 -2.0841,-1.3428c-0.5064,-0.7623 -0.7843,-1.7793 -0.7134,-2.8695c0.0708,-1.0903 0.3416,-1.9953 1.0764,-2.7165c0.5272,-0.522 1.5292,-0.7228 2.4001,-0.6828c0.754,0.099 1.535,0.4915 1.9187,1.0522z" fill="#324f35" stroke-width="0.54155" stroke-linecap="round"/><path d="M200.2499,95.8509c0.6096,0.2348 0.9777,0.5146 0.9586,0.7849c-0.019,0.2704 -0.4216,0.4796 -1.0562,0.6006c-0.6346,0.1201 -1.5013,0.1513 -2.4496,0.0645c-0.9483,-0.0868 -1.7995,-0.2751 -2.4092,-0.5091c-0.6096,-0.2348 -0.9777,-0.5146 -0.9587,-0.785c0.0191,-0.2703 0.4216,-0.4796 1.0563,-0.6005c0.6346,-0.1202 1.5013,-0.1513 2.4496,-0.0645c0.9483,0.0867 1.7995,0.275 2.4092,0.5091z" fill="url(#color-25)" stroke-width="0.9034" stroke-linecap="butt"/><path d="M203.88,93.5387c1.0647,0.5935 0.9216,1.8864 0.8997,2.8384c-0.0242,1.1072 -0.1903,3.3103 -1.0344,3.1823c-1.0576,-0.161 -0.9273,-3.6213 -2.7486,-3.7021c-3.6203,-0.1602 -6.0535,3.2695 -9.6585,3.1961c-1.547,-0.0486 -1.2205,-2.3013 -1.2324,-3.4548c-0.0138,-1.0286 0.024,-2.3381 1.1024,-2.9156c1.5313,-0.8217 3.7217,-0.8947 5.6673,-0.7618c2.3983,0.1643 5.0328,0.4991 7.0045,1.6175z" fill="url(#color-26)" stroke-width="0.51002" stroke-linecap="butt"/><path d="M199.2286,94.4559c0.3448,0.1524 0.5521,0.3386 0.5392,0.522c-0.0129,0.1834 -0.2436,0.3295 -0.6054,0.4173c-0.3617,0.0881 -0.8555,0.1178 -1.3941,0.0685c-0.5386,-0.0493 -1.0219,-0.1684 -1.3667,-0.3212c-0.3448,-0.1524 -0.5522,-0.3386 -0.5392,-0.522c0.0129,-0.1834 0.2436,-0.3294 0.6053,-0.4173c0.3618,-0.088 0.8556,-0.1177 1.3942,-0.0685c0.5386,0.0493 1.0219,0.1684 1.3667,0.3212z" fill="url(#color-27)" stroke-width="0.40852" stroke-linecap="butt"/><path d="M198.4967,95.8897c0.1981,0.0706 0.3176,0.1544 0.312,0.2343c-0.0057,0.0799 -0.1354,0.1409 -0.3408,0.1746c-0.2047,0.0343 -0.4851,0.0413 -0.7922,0.0132c-0.307,-0.0281 -0.5829,-0.086 -0.7802,-0.1571c-0.198,-0.0706 -0.3175,-0.1544 -0.3119,-0.2343c0.0056,-0.0799 0.1353,-0.1409 0.3407,-0.1746c0.2048,-0.0343 0.4852,-0.0413 0.7922,-0.0132c0.3071,0.0281 0.5829,0.086 0.7802,0.1571z" fill="#ffffff" stroke-width="0.66773" stroke-linecap="butt"/><path d="M200.2655,100.3894c0.9469,0.4714 1.512,1.0553 1.4709,1.6386c-0.0411,0.5833 -0.6806,1.057 -1.6814,1.3502c-1,0.2938 -2.3614,0.4077 -3.8448,0.2719c-1.4833,-0.1357 -2.8113,-0.4956 -3.7575,-0.9675c-0.9469,-0.4714 -1.5119,-1.0554 -1.4708,-1.6387c0.0411,-0.5832 0.6806,-1.057 1.6813,-1.3501c1.0001,-0.2939 2.3615,-0.4077 3.8448,-0.272c1.4834,0.1358 2.8114,0.4957 3.7575,0.9676z" fill="url(#color-28)" stroke-width="0.66773" stroke-linecap="butt"/><path d="M198.8796,91.6517c2.3586,0.5014 4.6455,1.3427 6.8231,2.2194c0.7978,0.3214 1.4304,0.7925 2.2195,1.3425c0.9721,0.6761 3.4471,2.2173 2.8339,2.1582c-0.9087,-0.0923 -4.3372,-2.0535 -6.5688,-2.6519c-2.5203,-0.675 -5.1138,-1.1895 -7.7081,-1.313c-4.1655,-0.1981 -8.4167,0.1527 -12.6408,0.3624c-1.2041,0.0532 -2.6889,0.6275 -3.6503,0.4256c-0.3767,-0.0793 0.8491,-0.536 1.1154,-0.9993c0.1303,-0.2289 -0.536,-0.7729 -0.2064,-0.7784c0.6322,-0.1913 1.366,0.6035 2.1376,0.3854c0.3757,-0.1099 -0.4165,-1.1774 0.0082,-1.1765c0.89,-0.1935 1.8288,0.8699 2.707,0.7794c0.3732,-0.0411 -0.7141,-1.1698 -0.3229,-1.2449c0.7341,-0.2586 1.6484,0.5382 2.572,0.5772c2.0785,0.08 4.1462,-0.3224 6.2198,-0.3423c1.5328,-0.0147 3.0314,-0.0736 4.4608,0.2562z" fill="#ffa56f" stroke-width="0.75062" stroke-linecap="round"/><path d="M190.4205,95.4534c0.0498,0.0596 0.0777,0.1382 0.0719,0.2214c-0.0059,0.0832 -0.0445,0.1556 -0.1019,0.2055c-0.0577,0.0496 -0.1343,0.0767 -0.2161,0.0692c-0.0818,-0.0075 -0.1535,-0.0481 -0.2035,-0.1076c-0.0498,-0.0597 -0.0777,-0.1382 -0.0719,-0.2214c0.0059,-0.0832 0.0445,-0.1557 0.1019,-0.2055c0.0577,-0.0497 0.1343,-0.0767 0.2161,-0.0692c0.0818,0.0075 0.1535,0.0481 0.2035,0.1076z" fill="#b3ffc6" stroke-width="0.21446" stroke-linecap="butt"/><path d="M201.9205,96.4534c0.0498,0.0596 0.0777,0.1382 0.0719,0.2214c-0.0059,0.0832 -0.0445,0.1556 -0.1019,0.2055c-0.0577,0.0496 -0.1343,0.0767 -0.2161,0.0692c-0.0818,-0.0075 -0.1535,-0.0481 -0.2035,-0.1076c-0.0498,-0.0597 -0.0777,-0.1382 -0.0719,-0.2214c0.0059,-0.0832 0.0445,-0.1557 0.1019,-0.2055c0.0577,-0.0497 0.1343,-0.0767 0.2161,-0.0692c0.0818,0.0075 0.1535,0.0481 0.2035,0.1076z" fill="#51d57a" stroke-width="0.21446" stroke-linecap="butt"/><path d="M191.3205,93.9034c0.0498,0.0596 0.0777,0.1382 0.0719,0.2214c-0.0059,0.0832 -0.0445,0.1556 -0.1019,0.2055c-0.0577,0.0496 -0.1343,0.0767 -0.2161,0.0692c-0.0818,-0.0075 -0.1535,-0.0481 -0.2035,-0.1076c-0.0498,-0.0597 -0.0777,-0.1382 -0.0719,-0.2214c0.0059,-0.0832 0.0445,-0.1557 0.1019,-0.2055c0.0577,-0.0497 0.1343,-0.0767 0.2161,-0.0692c0.0818,0.0075 0.1535,0.0481 0.2035,0.1076z" fill="#b3ffc6" stroke-width="0.21446" stroke-linecap="butt"/><path d="M190.0402,94.6827c0.0218,0.0261 0.034,0.0605 0.0315,0.0969c-0.0026,0.0364 -0.0195,0.0681 -0.0446,0.0899c-0.0253,0.0217 -0.0587,0.0336 -0.0945,0.0303c-0.0358,-0.0033 -0.0672,-0.0211 -0.0891,-0.0471c-0.0218,-0.0261 -0.034,-0.0604 -0.0314,-0.0969c0.0025,-0.0364 0.0194,-0.0681 0.0446,-0.0899c0.0252,-0.0217 0.0587,-0.0335 0.0945,-0.0303c0.0358,0.0033 0.0672,0.0211 0.089,0.0471z" fill="#b3ffc6" stroke-width="0.09383" stroke-linecap="butt"/><path d="M186.07,98.7971c0.1781,0.1105 0.5279,0.125 0.5708,0.375c0.0386,0.2261 -0.2253,0.4116 -0.4098,0.5398c-0.4411,0.3075 -1.1957,0.7929 -1.4011,0.7947c-0.1569,0.0023 0.4734,-0.4573 0.6492,-0.7382c0.1306,-0.2858 0.2429,-0.6082 0.2519,-0.9264c0.0065,-0.2204 -0.3582,-0.5644 -0.2939,-0.5965c0.0665,-0.0334 0.4096,0.3527 0.6329,0.5516z" fill="#ffa56f" stroke-width="0.75062" stroke-linecap="round"/><path d="M186.7019,99.4977c0.1853,0.1597 0.5356,0.202 0.5678,0.4081c0.0233,0.1647 -0.2082,0.279 -0.3576,0.354c-0.3573,0.1798 -0.9643,0.4577 -1.1163,0.4373c-0.1163,-0.0147 0.3962,-0.2866 0.5547,-0.4748c0.1254,-0.1965 0.2411,-0.4219 0.2799,-0.655c0.0272,-0.1615 -0.1861,-0.4581 -0.1569,-0.4697c0.0362,-0.0128 0.1434,0.2854 0.2284,0.4001z" fill="#ffa56f" stroke-width="0.55895" stroke-linecap="round"/><path d="M209.5667,89.5359c1.2192,0.788 1.7239,1.5012 1.7742,2.5912c0.0361,0.8362 -1.212,2.1501 -1.6276,2.0753c-0.3689,-0.1673 0.5689,-2.0353 0.0586,-2.5596c-1.4953,-1.52 -3.5176,-2.3999 -5.3917,-3.1695c-1.7813,-0.7306 -5.6048,-1.3204 -5.5824,-1.3654c0.0222,-0.0432 3.917,0.2701 5.811,0.6685c1.7543,0.3666 3.7393,0.9726 4.9579,1.7595z" fill="url(#color-29)" stroke-width="0.86007" stroke-linecap="round"/><path d="M185.8412,98.8269c0.2305,0.1396 0.5853,0.2959 0.6329,0.5516c0.0277,0.1378 -0.3335,0.0728 -0.4931,0.1334c-0.6087,0.2284 -1.6914,0.7096 -1.8063,0.7196c-0.1493,0.0099 0.7867,-0.3389 1.0544,-0.6631c0.1994,-0.2445 0.3338,-0.6173 0.2519,-0.9264c-0.0802,-0.2815 -0.8513,-0.5784 -0.8184,-0.5686c0.0536,0.0118 0.803,0.4578 1.1786,0.7535z" fill="#ffa56f" stroke-width="0.75062" stroke-linecap="round"/></g><path d="M218,130.5c0.621,0 1.183,0.308 1.591,0.806c0.407,0.498 0.659,1.185 0.659,1.944c0,0.759 -0.252,1.446 -0.659,1.944c-0.408,0.498 -0.97,0.806 -1.591,0.806c-0.621,0 -1.183,-0.308 -1.591,-0.806c-0.407,-0.498 -0.659,-1.185 -0.659,-1.944c0,-0.759 0.252,-1.446 0.659,-1.944c0.408,-0.498 0.97,-0.806 1.591,-0.806z" fill="#fee5ca" stroke="none" stroke-width="1" stroke-linecap="butt"/><path d="M217.2,119.6c0.831,-0.056 1.704,-0.181 2.411,-0.007c0.486,0.126 0.929,0.359 0.989,0.707c0.043,0.278 -0.439,0.387 -0.65,0.5c-0.925,0.489 -1.789,1.314 -2.75,1.3c-1.005,-0.014 -1.821,-0.816 -2.75,-1.3c-0.192,-0.118 -0.648,-0.236 -0.6,-0.5c0.071,-0.345 0.503,-0.581 0.989,-0.707c0.707,-0.174 1.568,-0.049 2.361,0.007z" fill="#edc1ad" stroke="none" stroke-width="1" stroke-linecap="round"/></g></g></g></svg>